<?xml version="1.0" standalone="no"?>
<!DOCTYPE svg PUBLIC "-//W3C//DTD SVG 1.1//EN" "http://www.w3.org/Graphics/SVG/1.1/DTD/svg11.dtd" >
<svg xmlns="http://www.w3.org/2000/svg" xmlns:xlink="http://www.w3.org/1999/xlink" version="1.1">
<metadata>
Created by FontForge 20170731 at Tue Jun 17 03:17:01 2008
 By Aleksey,,,
2008 Iconian Fonts - www.iconian.com
</metadata>
<defs>
<font id="BushidoShadow" horiz-adv-x="532" >
  <font-face 
    font-family="Bushido Shadow"
    font-weight="400"
    font-stretch="normal"
    units-per-em="1000"
    panose-1="0 0 0 0 0 0 0 0 0 0"
    ascent="800"
    descent="-200"
    x-height="576"
    cap-height="589"
    bbox="-372 -221 1562 855"
    underline-thickness="50"
    underline-position="-175"
    unicode-range="U+0020-2122"
  />
<missing-glyph horiz-adv-x="500" 
 />
    <glyph glyph-name=".notdef" horiz-adv-x="500" 
 />
    <glyph glyph-name=".null" horiz-adv-x="0" 
 />
    <glyph glyph-name="nonmarkingreturn" horiz-adv-x="500" 
 />
    <glyph glyph-name="space" unicode=" " horiz-adv-x="340" 
 />
    <glyph glyph-name="space" unicode="&#xa0;" horiz-adv-x="340" 
 />
    <glyph glyph-name="FL0021h" unicode="!" horiz-adv-x="218" 
d="M59 -6q-20 10 -30 35t-10 49q16 0 22.5 1.5t12.5 5.5q1 1 2.5 1.5t2.5 1.5q5 3 15 7.5t22 9.5q8 -9 14 -15.5t10 -13.5q13 -13 18.5 -22t5.5 -23q0 -10 -2 -20.5t-7 -19.5t-13 -14.5t-21 -5.5q-19 0 -33 14zM60 135q-10 5 -22 19.5t-28 40.5l7 -4q-1 12 -2.5 38t-3 55.5
t-2.5 55.5t-1 37v74q0 3 0.5 6t0.5 6q0 5 0.5 8.5t0.5 7.5v21q9 31 26 56.5t55 31.5h6q17 0 34 -12.5t28 -29.5l4 -4q11 -11 17.5 -23.5t6.5 -24.5l-9 -9q-9 0 -15.5 2t-12.5 5q-5 2 -9.5 4t-9.5 2q-7 0 -11.5 -7.5t-6.5 -19.5t-3 -26.5t-1 -27.5q0 -10 0.5 -18t0.5 -15v-29
q0 -5 0.5 -10.5t0.5 -10.5v-28q0 -5 0.5 -13t1.5 -16q2 -20 3 -44t1 -45q0 -30 -5 -51t-21 -21q-11 0 -25 14zM115 51q0 13 -5 21t-16 19q-14 -5 -22 -9.5t-14 -8t-12 -5.5t-15 -2q0 -11 3.5 -22.5t10 -21.5t15.5 -16t21 -6q20 0 27 17t7 34zM158 514q0 10 -6 22t-16 21.5
t-21.5 15t-22.5 3.5q-33 -5 -47.5 -28.5t-22.5 -51.5q0 -4 -0.5 -13t-0.5 -20t-0.5 -22.5t-0.5 -20.5v-19v-24q0 -12 1 -42t2 -61.5t2 -56t2 -25.5q21 -34 33.5 -42.5t19 0.5t8 31t0.5 48.5t-3 52.5t-3 44v10q0 8 -0.5 18.5t-0.5 20.5v16q0 9 -1 31t1 45.5t8.5 41.5t21.5 18
q14 0 23.5 -6.5t23.5 -6.5z" />
    <glyph glyph-name="FL0022h" unicode="&#x22;" horiz-adv-x="275" 
d="M31 403q-14 3 -18.5 24.5t-4.5 50.5q0 21 1 42.5t3 38.5q0 2 0.5 3.5t0.5 3.5q1 7 1 12v7q0 16 7 26.5t24 27.5q16 -6 25 -10.5t15 -8.5q7 -4 13.5 -6t23.5 -2q0 -4 -1 -6l1 -1q4 8 10.5 15.5t17.5 18.5q17 -6 26 -11t15 -9h-1q7 -4 13.5 -5.5t23.5 -1.5q0 -2 -0.5 -3
t-0.5 -3l18 -17q0 -8 -4 -26t-10 -40.5t-14.5 -46.5t-18 -44t-19 -33t-18.5 -13q-6 0 -11 5l-13 12q-14 3 -18.5 24.5t-4.5 50.5v5q-7 -19 -14.5 -36.5t-15 -31t-14.5 -21.5t-14 -8q-6 0 -11 5zM26 585q0 -9 -2.5 -36.5t-3 -57t2 -53t12.5 -23.5q12 0 25 25t24 57t18.5 62
t7.5 41q-9 0 -15 2t-12 5.5t-14 8t-22 9.5q-11 -11 -16 -19t-5 -21zM131 585q0 -9 -2.5 -36.5t-3 -57t2 -53t12.5 -23.5q12 0 25 25t24 57t18.5 62t7.5 41q-9 0 -15 2t-12 5.5t-14 8t-22 9.5q-11 -11 -16 -19t-5 -21z" />
    <glyph glyph-name="FL0023h" unicode="#" horiz-adv-x="634" 
d="M258 264q16 2 32.5 4t35.5 4q12 4 25 6.5t27 5.5v7q-1 17 -2 41t-2 52l-10 -1q-5 -5 -8.5 -8t-5.5 -5h-4l-102 -11q5 -26 8 -48t5 -30v-6q0 -9 1 -11zM259 203v-36q0 -9 -0.5 -20.5t-0.5 -22.5t-0.5 -20t-0.5 -13q-8 -28 -22.5 -51.5t-47.5 -28.5q-11 -2 -22.5 3.5
t-21.5 15t-16 21t-6 22.5q14 0 23.5 -6.5t23.5 -6.5q15 0 21.5 18t8.5 41.5t1 45.5t-1 31l-136 -14l-20 -10h-10q-2 1 -5.5 4.5t-4.5 5.5q33 28 75 44.5t100 27.5v7q-1 17 -2 41t-2 52l-133 -14l-20 -10h-10q-2 1 -5.5 4.5t-4.5 5.5q32 27 72.5 43.5t97.5 27.5l-3.5 80.5
t-1.5 35.5l-20 20q1 2 4.5 5.5t5.5 4.5q3 2 11.5 6t18.5 9t18.5 9t11.5 6l2 0.5t3 0.5q11 0 13.5 -9t2.5 -17q0 -12 -5.5 -18t-13 -10t-14 -9.5t-8.5 -17.5q2 -9 7.5 -34t10.5 -55q22 3 43.5 6.5t47.5 5.5q11 3 22.5 5.5t24.5 5.5l-3.5 80.5t-1.5 35.5l-20 20q1 2 4.5 5.5
t5.5 4.5q3 2 11.5 6t18.5 9t18.5 9t11.5 6l2 0.5t3 0.5q11 0 13.5 -9t2.5 -17q0 -12 -5.5 -18t-13 -10t-14 -9.5t-8.5 -17.5q2 -9 7.5 -34t10.5 -55q23 4 47 7t52 6q1 0 10.5 0.5t20.5 -0.5t19.5 -4.5t8.5 -11.5q0 -1 -0.5 -3l-0.5 -2q-2 -3 -7.5 -8.5l-12 -12l-12 -12
t-8.5 -7.5h-4l-102 -11q5 -26 8 -48t5 -30v-6q0 -9 1 -11q17 2 36 4.5t40 4.5q1 0 10.5 0.5t20.5 -0.5t19.5 -4.5t8.5 -11.5q0 -1 -0.5 -3l-0.5 -2q-2 -3 -7.5 -8.5l-12 -12l-12 -12t-8.5 -7.5h-4l-89 -9v-36q0 -9 -0.5 -20.5t-0.5 -22.5t-0.5 -20t-0.5 -13
q-8 -28 -22.5 -51.5t-47.5 -28.5q-11 -2 -22.5 3.5t-21.5 15t-16 21t-6 22.5q14 0 23.5 -6.5t23.5 -6.5q15 0 21.5 18t8.5 41.5t1 45.5t-1 31l-13 -2q-5 -5 -8.5 -7.5t-5.5 -4.5h-4zM342 33q10 -9 20 -15t21 -6h6q37 6 53 31t25 55v11q0 5 0.5 11t0.5 14q0 6 0.5 12t0.5 12
v47l80 8h6q3 2 10 8.5t14.5 14t14 14.5t8.5 10q1 4 1 7q0 8 -6 14l-12 11q-4 14 -20.5 19t-32.5 5q-3 0 -5.5 -0.5t-4.5 -0.5h-8q-12 -2 -25 -3t-26 -3q0 2 -0.5 4.5t-0.5 5.5q-2 8 -3 19t-3 23l91 10h6q3 2 10 8.5t14.5 14t14 14.5t8.5 10q1 4 1 7q0 8 -6 14l-12 11
q-4 14 -20.5 19t-32.5 5q-3 0 -5.5 -0.5t-4.5 -0.5h-8q-20 -3 -39 -5t-37 -4q-3 18 -6 32t-5 22q4 11 16 18q9 5 17 12t8 24q0 8 -1.5 16t-6.5 13l-12 11q-2 8 -8 13t-17 5q-3 0 -7 -1q-2 -2 -12 -6.5t-21 -9.5q-6 -3 -12 -6.5t-11 -5.5q-3 -2 -6 -3.5l-3 -1.5l1 -1
q-6 -5 -11 -10.5t-7 -9.5l22 -22q0 -10 1 -39t3 -64q-3 -1 -7 -1q-5 -2 -9.5 -2.5t-9.5 -1.5t-13 -3q-18 -2 -34 -4t-30 -4q-3 18 -6 32t-5 22q4 11 16 18q9 5 17 12t8 24q0 8 -1.5 16t-6.5 13l-12 11q-2 8 -8 13t-17 5q-3 0 -7 -1q-2 -2 -12 -6.5t-21 -9.5q-6 -3 -12 -6.5
t-11 -5.5q-3 -2 -6 -3.5l-3 -1.5l1 -1q-6 -5 -11 -10.5t-7 -9.5l22 -22q0 -10 1 -38.5t3 -63.5q-56 -12 -96.5 -30t-75.5 -47q2 -6 9 -15t12 -11h3l12 -12q4 -4 6 -5h15l20 10l100 10q0 -11 0.5 -20t1.5 -17q0 -3 0.5 -6t0.5 -6v-7q-57 -12 -99.5 -31t-77.5 -48q2 -6 9 -15
t11 -11h3l12 -12q4 -4 6 -5h15l20 10l102 10q0 -3 0.5 -6t0.5 -7q0 -13 -0.5 -27t-3 -25t-6 -18.5t-9.5 -7.5q-9 0 -19 5q-2 1 -3 1l-2 1q-5 2 -11.5 4t-23.5 2q0 -21 14.5 -44.5t33.5 -34.5l4 -3q10 -9 20 -15t21 -6h6q37 6 53 31t25 55v11q0 5 0.5 11t0.5 14q0 6 0.5 12
t0.5 12v47l80 8v-3q0 -13 -0.5 -27t-3 -25t-6 -18.5t-9.5 -7.5q-9 0 -19 5q-2 1 -3 1l-2 1q-5 2 -11.5 4t-23.5 2q0 -21 14.5 -44.5t33.5 -34.5zM281 289q-2 8 -3 19t-3 23l88 9q1 -8 1 -15q0 -6 1 -11q0 -3 0.5 -6t0.5 -6v-8h-3q-11 -2 -20.5 -4.5t-17.5 -4.5h1
q-1 0 -1.5 -0.5t-1.5 -0.5l-25 -3q-5 -1 -9 -1q-3 0 -7 -1q-1 3 -1 10z" />
    <glyph glyph-name="FL0024h" unicode="$" horiz-adv-x="477" 
d="M119 496l-2 -0.5t-3 -0.5q-2 0 -3.5 0.5l-1.5 0.5q-4 3 -15.5 14.5t-14.5 15.5q0 -1 -0.5 -4.5t-0.5 -5.5q0 -15 12.5 -30t30.5 -30t39 -30t38 -31q-1 29 -1.5 59.5t-0.5 59.5zM358 111q0 16 -11 30.5t-26.5 29t-31.5 29t-26 29.5q1 -3 1 -8v-8v-16v-43v-77q2 -2 3.5 -4
t2.5 -3l0.5 -2t0.5 -3t-0.5 -2.5t-0.5 -2.5l-6 -3v-24q8 6 23.5 13t31.5 16t27.5 21t11.5 28zM20 115q0 8 2 19.5t6.5 22t12 17.5t19.5 7q15 0 29.5 -16.5t30.5 -37t36.5 -38t47.5 -19.5q0 42 -0.5 74t-0.5 39v16q0 10 -0.5 20.5t-0.5 18.5v10q-1 10 -1.5 25.5t-0.5 35.5
q-21 25 -47.5 50.5t-49.5 52.5t-39 57t-16 63q0 9 1 22t15 13q1 0 3 -0.5l2 -0.5q2 -2 8 -9.5t7 -10.5v30l111 4q-1 8 -1 14v13v22v20l-20 20q1 2 4.5 5.5t5.5 4.5q3 2 11.5 6t18.5 9t18.5 9t11.5 6l2 0.5t3 0.5q11 0 13.5 -9t2.5 -17q0 -12 -5.5 -18t-13 -10t-14 -9.5
t-8.5 -17.5q1 -5 3 -18t4 -31l159 1q2 0 10 -4t10 -6l0.5 -1.5t0.5 -3.5q0 -1 -0.5 -3l-0.5 -2q7 0 0 -1.5t-23 -4.5t-37.5 -6.5t-43 -7.5t-40.5 -7.5t-29 -6.5q5 -45 9.5 -96t8.5 -93q22 -23 50 -48.5t53 -54t42 -60.5t17 -69q0 -19 -17 -36.5t-41 -32t-50 -25t-44 -14.5
v-41q0 -11 -0.5 -20t-0.5 -13q-8 -28 -22.5 -51.5t-47.5 -28.5l-19 49q7 0 12 11t8.5 30t5.5 42.5t3 49.5q-10 -4 -20 -5.5t-19 -1.5q-18 0 -42.5 6.5t-47.5 19t-39 30t-16 40.5zM8 115q0 -23 13 -40.5t33 -31.5h1q13 -13 30 -23t35 -16.5t35 -10t30 -3.5h4
q-3 -35 -10.5 -60t-21.5 -25l30 -74q2 0 4 1l18 -18q21 3 35 11.5t23.5 20.5t15 26t10.5 29v11q0 5 0.5 11t0.5 14v34q19 5 45.5 16.5t50 26.5t40 33.5t16.5 38.5q0 39 -18 73t-44 64q-18 24 -40 45.5t-43 41.5q-11 7 -19 16v12q0 7 -1 14q-3 35 -6.5 74t-7.5 74
q19 5 48.5 10t57.5 10q21 4 38.5 8t25.5 12l2 -1q0 2 0.5 2.5t0.5 1.5q2 4 2 7l-3 3q-1 0 -1 2l-14 13q1 2 1 5h-3q0 1 -1 1v2q-5 3 -16.5 10t-14.5 7l-135 -1q0 2 -0.5 5t-0.5 5t-0.5 3t-0.5 3v1q2 8 6.5 12t9.5 7q9 5 17 12t8 24q0 8 -1.5 16t-6.5 13l-12 11q-2 8 -8 13
t-17 5q-3 0 -7 -1q-2 -2 -12 -6.5t-21 -9.5q-6 -3 -12 -6.5t-11 -5.5q-3 -2 -6 -3.5l-3 -1.5l1 -1q-6 -5 -11 -10.5t-7 -9.5l22 -22v-38q0 -3 -0.5 -7t0.5 -9l-110 -3v-10q-3 1 -8 1q-20 0 -24 -13t-4 -26v-8q0 -26 9.5 -50t25 -46.5t34.5 -43.5t39 -40q10 -11 20.5 -21.5
t23.5 -25.5q0 -19 0.5 -34t1.5 -24v-38q0 -3 0.5 -5.5t0.5 -4.5v-66v-23q0 -12 1 -25q-18 5 -32.5 17.5t-25.5 26.5q-4 5 -7.5 9.5t-7.5 9.5q-14 19 -28 32t-31 13q-15 0 -25 -8.5t-16 -20.5t-8.5 -25.5t-2.5 -23.5zM346 111q0 -17 -17.5 -29t-35.5 -21v119l4 -4
q18 -17 33.5 -33t15.5 -32zM185 422q-5 4 -10.5 8t-10.5 8q-2 2 -4 3t-4 3q-20 13 -33 25q5 -2 6 -2.5t5 -0.5q3 0 7 1l43 10v-28q0 -13 1 -27zM220 384l-1 1q1 0 1 -1z" />
    <glyph glyph-name="FL0025h" unicode="%" horiz-adv-x="703" 
d="M531 28q0 2 0.5 3.5l0.5 1.5q21 2 34.5 11.5t21.5 23.5t11 31t3 34v23q0 20 -3 41.5t-15 35.5q-2 4 -6.5 9t-5.5 5h-46q-2 0 -6 5t-6 8v2q0 14 11 19.5t22 5.5q51 0 73.5 -24t22.5 -69q0 -18 -3.5 -47.5t-13.5 -58.5t-28.5 -50t-48.5 -21q-8 0 -13 1.5t-5 9.5zM379 162
q0 2 0.5 5l0.5 3q1 3 2.5 9.5t3 14t3.5 14.5t3 10q10 7 22.5 20.5t25.5 28.5t24.5 29t20.5 22q-3 17 12 17q14 0 19 -13t5 -23v-7q0 -5 -1 -6q-17 -14 -35.5 -29t-34.5 -31.5t-26 -35.5t-10 -40q0 -36 23 -66.5t48 -55.5l0.5 -1t0.5 -2l-1 -2q-3 -5 -6 -5h-3h-3
q-20 6 -37.5 23t-30 38t-19.5 43.5t-7 39.5zM172 341q0 2 0.5 3.5l0.5 1.5q21 2 34.5 11.5t21.5 23.5t11 31t3 34v23q0 20 -3 41.5t-15 35.5q-2 4 -6.5 9t-5.5 5h-46q-2 0 -6 5t-6 8v2q0 14 11 19.5t22 5.5q51 0 73.5 -24t22.5 -69q0 -18 -3.5 -47.5t-13.5 -58.5t-28.5 -50
t-48.5 -21q-8 0 -13 1.5t-5 9.5zM20 475q0 2 0.5 5l0.5 3q1 3 2.5 9.5t3 14t3.5 14.5t3 10q10 7 22.5 20.5t25.5 28.5t24.5 29t20.5 22q-3 17 12 17q14 0 19 -13t5 -23v-7q0 -5 -1 -6q-17 -14 -35.5 -29t-34.5 -31.5t-26 -35.5t-10 -40q0 -36 23 -66.5t48 -55.5l0.5 -1
t0.5 -2l-1 -2q-3 -5 -6 -5h-3h-3q-20 6 -37.5 23t-30 38t-19.5 43.5t-7 39.5zM256 88q0 -10 -9.5 -33.5t-23 -49t-28 -47t-23 -28.5t-9 6t13.5 58q0 26 1.5 51.5t9.5 58t25 75.5t49 103t81.5 140.5t121.5 188.5q1 -1 9.5 16l19 38l19 38t9.5 16l0.5 -2t0.5 -3t-0.5 -3
l-0.5 -2q1 -8 -2 -27t-8.5 -42.5t-13 -49t-15 -47t-15 -36t-13.5 -16.5zM178 -99q3 -3 9 -3q7 0 22.5 21t32 49.5t29.5 56t14 41.5l197 400q9 9 21 38.5t22.5 64t18 67.5t7.5 48v3q1 4 1 7v3q0 2 -2 8l-15 15q0 2 -0.5 3t-1.5 5q-1 0 -2.5 0.5t-2.5 0.5q-8 0 -21.5 -18
t-24.5 -41v1q-2 -4 -4 -8.5t-4 -8.5q-5 -8 -7.5 -15t-3.5 -10q-73 -110 -123.5 -192.5t-84 -144t-51.5 -106t-27 -77.5t-10.5 -59t-1.5 -51q-8 -23 -11 -38.5t-3 -25.5q0 -18 13 -20zM519 28q0 -11 3 -15.5t10 -6.5l14 -14q3 -3 9 -3.5t14 -0.5q33 0 53 22t31.5 52.5t15 62
t3.5 49.5q0 51 -25 76l-5 5q-25 44 -95 44q-3 8 -10 17l-10 9q-4 9 -11.5 15.5t-18.5 6.5q-25 0 -25 -24v-2q-7 -8 -15.5 -16.5t-16.5 -18.5q-2 -3 -5 -6t-5 -6q-13 -15 -25.5 -28t-22.5 -21q-5 -19 -6.5 -23.5t-3.5 -12.5q-1 -2 -2 -4.5t-1 -3.5q-2 -7 -1 -7q-1 -4 -1 -12
q0 -17 6 -37.5t16.5 -41t25 -38.5t31.5 -29q19 -19 44 -27h9q6 0 15 12l1 2q0 5 -2 9l-13 12q-2 0 -2 2q0 1 -2 7q-8 7 -15 15l-14 16q-11 15 -17.5 31.5t-6.5 34.5q0 32 23 57.5t52 48.5q1 0 2 -0.5t3 -0.5l14 -13q4 -4 9 -4h34q7 -13 8.5 -29t1.5 -33v-23q0 -15 -3 -30
t-10.5 -27t-20 -20.5t-32.5 -10.5q-4 -8 -4.5 -10t-0.5 -7zM160 341q0 -11 3 -15.5t10 -6.5l14 -14q3 -3 9 -3.5t14 -0.5q33 0 53 22t31.5 52.5t15 62t3.5 49.5q0 51 -25 76l-5 5q-25 44 -95 44q-3 8 -10 17l-3 3v-1q1 0 1 -1l-7 7q-4 9 -11.5 16t-19.5 7q-24 0 -24 -24v-1
q-7 -8 -15.5 -17t-17.5 -19q-2 -3 -5 -6t-5 -6q-13 -15 -25.5 -28t-22.5 -21q-5 -19 -6.5 -23.5t-3.5 -12.5q-1 -2 -2 -4.5t-1 -3.5q-2 -7 -1 -7q-1 -4 -1 -12q0 -17 6 -37.5t16.5 -41t25 -38.5t31.5 -29q19 -19 44 -27h9q6 0 15 12l1 2q0 5 -2 9l-13 12q-2 0 -2 2q0 1 -2 7
q-8 7 -15 15l-14 16q-11 15 -17.5 31.5t-6.5 34.5q0 32 23 57.5t52 48.5q1 0 2 -0.5t3 -0.5l14 -13q4 -4 9 -4h34q7 -13 8.5 -29t1.5 -33v-23q0 -15 -3 -30t-10.5 -27t-20 -20.5t-32.5 -10.5q-4 -8 -4.5 -10t-0.5 -7zM493 32q0 -1 1 -2q-5 5 -7 8zM134 345q0 -1 1 -2
q-5 5 -7 8z" />
    <glyph glyph-name="FL0026h" unicode="&#x26;" horiz-adv-x="589" 
d="M328 60q13 33 16.5 67t3.5 69q0 34 -1.5 67.5t-1.5 68.5q-8 0 -19.5 -1t-24.5 -2.5t-25 -4t-21 -5.5q2 -3 2.5 -5.5t-7 -6t-26.5 -7.5t-56 -10q-14 -3 -24 -3q-8 0 -11 3h-2q-8 0 -13.5 -7.5t-9.5 -17.5t-5.5 -20t-1.5 -15q0 -8 5 -36t14.5 -58t24.5 -53.5t35 -23.5
q15 0 25 8.5t18.5 19t18 19t23.5 8.5q0 -20 -5 -40t-15 -37t-25 -27.5t-35 -10.5q-36 0 -66 24.5t-52 60t-34.5 75.5t-12.5 71t10 50.5t27.5 31t40 16t47.5 4.5q5 7 10 13t10 11q-14 13 -26 29t-21 34t-14 36t-5 34q0 24 10.5 47.5t30.5 37.5q5 0 23.5 1t32.5 1h14
q48 0 93 -7.5t87 -34.5q0 -3 0.5 -12.5t0.5 -12.5v-8q0 -3 -2 -6.5t-8 -5.5t-16 -1t-25 6q-1 1 -3 -0.5t-3 -1.5l-44 -4v16q-20 11 -41.5 21t-44.5 10q-10 0 -21 -3t-13 -18q-2 -16 2.5 -36t13 -41t20 -42t23.5 -40l117 12q-5 18 17 18q7 0 12.5 -2.5t4.5 -10.5h139
q4 0 9 -5l1 -3l-1 -3q-3 -5 -9 -5h9q-3 0 -13.5 -0.5t-23 -1.5t-24 -2t-17.5 -2q-3 0 -14 -1t-23.5 -3t-22.5 -5t-10 -7q0 -7 -1.5 -21t-1 -28t5 -26.5t15.5 -16.5q-4 -38 2.5 -75t6.5 -76q0 -11 0.5 -27.5t-4 -32.5t-17.5 -27.5t-40 -11.5q-2 0 -5 0.5t-4 0.5zM326 -19h6
l17 -17h10q2 0 3.5 -0.5t3.5 -0.5q24 0 37.5 8t21 20.5t9.5 27t2 28.5v24q0 17 -1.5 33.5t-3.5 32.5q-2 17 -3.5 33t-1.5 30v11t2 17l-18 17q0 1 0.5 2t0.5 3q-1 0 -2 0.5t-2 0.5q-1 5 -1 10v10q0 7 0.5 14.5t1.5 13.5q0 5 0.5 9t0.5 6t9 3.5t20 2t21.5 1t12.5 0.5
q4 1 12.5 2t18.5 1.5t19.5 1.5t16.5 1h9v3q4 3 10 10l1 4l-2 6l-16 15l-1 6q-13 13 -21 13h-128q-3 9 -10.5 11t-17.5 2q-27 0 -30 -19l-94 -10q-17 29 -29 60.5t-12 56.5q0 2 0.5 4t0.5 4q2 9 9.5 11t15.5 2q14 0 27.5 -4.5t26.5 -11.5v-15h5l18 -17l56 5q1 1 2 1q1 1 0 1
v0h1q11 -4 18 -5t13 -1q17 0 23 7t6 15v8q0 2 -0.5 5t-0.5 7v18l-17 17v5q-48 31 -95 39t-97 8h-14h-21q-11 0 -20 -1q-3 0 -6 -0.5t-5 -0.5h-7q-25 -17 -37.5 -44t-12.5 -53q0 -32 17.5 -68.5t44.5 -65.5q-7 -7 -10 -11q-27 -1 -50.5 -6.5t-41.5 -18.5t-28.5 -34.5
t-10.5 -54.5q0 -25 7.5 -56t22 -61.5t34.5 -57.5t45 -45q20 -19 41.5 -29.5t46.5 -10.5q22 0 38.5 12.5t28 31.5t17 42.5t5.5 46.5l-17 17v6q-26 0 -39.5 -9t-22.5 -22q-8 -10 -16 -17t-19 -7q-10 0 -15 5q-9 16 -16 36.5t-11 40.5t-6 35.5t-2 21.5q0 4 1 12.5t3.5 17
t6.5 15t10 6.5q6 -3 13 -3q12 0 26 3q29 4 47.5 8t29 8t14.5 7.5t5 7.5q11 3 23 5l24 4q0 -11 0.5 -20.5t1.5 -17.5q1 -17 1 -34v-33q0 -35 -3.5 -68.5t-16.5 -66.5z" />
    <glyph glyph-name="FL0027h" unicode="'" horiz-adv-x="170" 
d="M14 585q0 16 7 26.5t24 27.5q16 -6 25 -10.5t15 -8.5q7 -4 13.5 -6t23.5 -2q0 -2 -0.5 -3t-0.5 -3l18 -17q0 -8 -4 -26t-10 -40.5t-14.5 -46.5t-18 -44t-19 -33t-18.5 -13q-6 0 -11 5l-13 12q-14 3 -18.5 24.5t-4.5 50.5q0 21 1 42.5t3 38.5q0 2 0.5 3.5t0.5 3.5
q1 7 1 12v7zM26 585q0 -9 -2.5 -36.5t-3 -57t2 -53t12.5 -23.5q12 0 25 25t24 57t18.5 62t7.5 41q-9 0 -15 2t-12 5.5t-14 8t-22 9.5q-11 -11 -16 -19t-5 -21z" />
    <glyph glyph-name="FL0028h" unicode="(" horiz-adv-x="367" 
d="M245 524q0 13 -3.5 23t-8 19t-8 18t-3.5 21q17 0 31.5 -8.5t24 -21.5t13 -28t-1.5 -28q-14 -35 -34.5 -61.5t-44 -50t-46.5 -45.5t-42 -47t-30.5 -55.5t-11.5 -69.5q0 -17 1 -30.5t10 -29.5q4 -5 10 -16t12.5 -22.5t13 -22t11.5 -14.5q9 -9 25 -22t36.5 -27t44.5 -27.5
t49 -23.5q16 -7 13.5 -15t-13.5 -14.5t-26.5 -11t-24.5 -4.5q-8 0 -20.5 2t-23.5 2q-22 0 -43.5 15t-41.5 39t-37 55t-29.5 63t-19.5 62t-7 52q0 33 15 67.5t38 67t49.5 61t49.5 49.5zM8 200q0 -29 11 -68t29.5 -78.5t43.5 -74.5t52 -56q36 -38 74 -38q5 0 11.5 -0.5
t12.5 -1.5q5 -1 10 -1.5t10 -0.5q8 0 20.5 3.5t24.5 9t20.5 12.5t8.5 15q0 7 -6 13l-12 11q-2 13 -21 21q-23 9 -45.5 21.5t-42 25t-35 25t-25.5 21.5q-3 6 -6.5 12t-6.5 14q-5 9 -10 17t-8 13h1q-8 13 -9 24.5t-1 25.5v5q0 33 8.5 59t22.5 48t32 41t38 38h1q30 29 59 61.5
t47 78.5q4 9 4 19q0 28 -24 52l-5 5q-12 18 -34 31.5t-48 13.5q0 -21 3.5 -33t8.5 -22v1q0 -1 0.5 -1.5t0.5 -1.5q3 -7 6 -14.5t4 -17.5l-69 -74l-1 -1q-24 -21 -51 -50.5t-50 -63t-38.5 -69.5t-15.5 -70zM144 61l-2 2zM328 -64l2 -2z" />
    <glyph glyph-name="FL0029h" unicode=")" horiz-adv-x="368" 
d="M162 352q4 -6 7 -8l5 -5q-6 6 -8 9zM123 543q-10 -16 -11 -33l52 -56q19 -17 40.5 -40t42.5 -49q18 -21 34 -43.5t28.5 -46.5t20 -48t7.5 -47t-7.5 -54t-20.5 -64t-31 -64.5t-38.5 -56.5t-43.5 -40.5t-46 -15.5q-5 0 -11.5 -0.5t-12.5 -1.5q-5 -1 -10 -1.5t-10 -0.5
q-6 0 -15.5 2t-19 6t-18 8.5t-14.5 10.5l-7 7q-10 5 -16.5 12t-6.5 15q0 15 22 24q24 9 47.5 22.5t43.5 27t35.5 26t24.5 21.5q5 4 12 16.5t15 26.5l8 14t7 12h-1q10 17 11.5 28.5t1.5 24.5v5q0 31 -8 56.5t-21.5 47t-30.5 40t-36 36.5v-1q-33 31 -63.5 65.5t-48.5 80.5
q-4 8 -4 20q0 14 7.5 28.5t20 26.5t29.5 19.5t37 7.5v-6l17 -17q0 -19 -3.5 -30t-8.5 -21zM83 524q0 13 3.5 23t8 19t8 18t3.5 21q-17 0 -31.5 -8.5t-24 -21.5t-13 -28t1.5 -28q14 -35 34.5 -61.5t44 -50t46.5 -45.5t42 -47t30.5 -55.5t11.5 -69.5q0 -17 -1 -30.5t-10 -29.5
q-4 -5 -10 -16t-12.5 -22.5t-13 -22t-11.5 -14.5q-9 -9 -25 -22t-36.5 -27t-44.5 -27.5t-49 -23.5q-17 -7 -14 -15t14 -14.5t26.5 -11t24.5 -4.5q8 0 20.5 2t23.5 2q22 0 43.5 15t41.5 39t37 55t29.5 63t19.5 62t7 52q0 33 -15 67.5t-38 67t-49.5 61t-49.5 49.5z" />
    <glyph glyph-name="FL002Ah" unicode="*" horiz-adv-x="372" 
d="M122 498l-66 -45l-13 -19l-9 -4q-2 -1 -7 0.5t-7 3.5q14 37 40 69t65 65l-67 98l-18 13l-5 8q0 3 1 7.5t3 6.5q58 -23 107 -75l16 90l-2 21l2 9l5 5t5 3q14 -42 20 -70.5t3 -60.5q13 9 27 18.5t29 20.5q2 2 10 6.5t17.5 8.5t19 4.5t13.5 -5.5q0 -1 0.5 -3l0.5 -2
q0 -3 -2 -10.5t-5 -16.5l-5.5 -16.5l-3.5 -10.5l-3 -2l-87 -59q14 -20 29.5 -41t32.5 -45q1 -1 6 -9t9 -18t5 -19t-6 -13q-1 -1 -3 -1.5l-2 -0.5q-3 0 -10.5 2t-16.5 4.5t-16.5 5t-10.5 4.5l-2 4l-50 72q-4 -14 -7.5 -30t-8.5 -34q0 -2 -2 -11t-5.5 -19t-8 -18t-9.5 -7l-3 2
q-1 2 -3.5 8.5t-5.5 14t-5 14t-3 9.5l1 4zM99 437l-2 -7q1 -3 3.5 -11t6 -16.5t6.5 -16.5t5 -11l8 -5h2l12 -12l8 -5h3q6 0 11.5 8t10 18.5t7.5 20.5t4 15q2 10 4 18.5t4 16.5l18 -26l2 -5q2 -2 10 -5l14 -14q3 -2 12.5 -5.5t19.5 -6.5t19 -5.5t12 -2.5q5 1 7 3q5 2 8 8
t3 12q0 7 -3 15t-7 15.5t-7.5 13.5t-4.5 8q-7 9 -13 18t-12 17l-16 22l-16 22l80 54l3 2h1l1 1h-1q1 2 2.5 6t3.5 8q4 12 8.5 27.5t4.5 20.5q-1 4 -1 5l-16 16q-1 4 -1 5q-6 8 -12 11t-12 3q-7 0 -15.5 -2.5t-16.5 -6t-14 -7.5l-9 -6q-5 -3 -9 -6l-8 -6q-2 -1 -2.5 -2
t-1.5 -2q-3 20 -9.5 40.5t-14.5 47.5l-16 15q-1 2 -1 4t-1 4q-11 0 -16.5 -3.5t-8.5 -6.5l-6 -6l-2 -11l1 -21l-11 -67q-23 22 -49 37.5t-52 26.5q-8 -8 -11 -18t-3 -15l5 -9l15 -11l9 -8l2 -2l55 -82q-37 -32 -62.5 -65.5t-39.5 -72.5q4 -6 11 -9l13 -13q4 -4 10.5 -6.5
t10.5 -2.5h4l12 6l14 20l1 1l16 10v-1zM301 609v1h1z" />
    <glyph glyph-name="FL002Bh" unicode="+" horiz-adv-x="451" 
d="M182 281l-122 -13l-20 -10h-10q-2 1 -5.5 4.5t-4.5 5.5q30 26 67.5 41.5t88.5 26.5l-12 118l-10 20v10q1 2 4.5 5.5t5.5 4.5q24 -29 39.5 -64.5t26.5 -83.5q23 3 48 6.5t54 6.5q1 0 10.5 0.5t20.5 -0.5t19.5 -4.5t8.5 -11.5q0 -1 -0.5 -3l-0.5 -2q-2 -3 -7.5 -8.5
l-12 -12l-12 -12t-8.5 -7.5h-4l-105 -11q4 -24 7.5 -50t6.5 -55q0 -2 0.5 -11t-0.5 -20t-4.5 -19.5t-11.5 -8.5q-1 0 -3 0.5l-2 0.5q-3 2 -8.5 7.5l-12 12l-12 12t-7.5 8.5v4zM182 167v-6q2 -3 9 -10l15 -15t15.5 -14.5t10.5 -9.5q1 -1 3 -1q5 -5 10 -9.5t7 -6.5q4 -1 7 -1
q16 0 21 17t5 34q0 5 -0.5 9t-0.5 6v3q-3 26 -6 49.5t-7 46.5l95 10h6q3 2 10 8.5t14.5 14t14 14.5t8.5 10q1 4 1 7q0 8 -6 14l-2 1q1 0 1 -1h1l-12 11q-4 14 -20.5 19t-32.5 5q-3 0 -5.5 -0.5t-4.5 -0.5h-8q-43 -5 -74 -9q-2 -1 -7 -1q-11 36 -26 66.5t-37 57.5l-5 4
q-3 5 -6.5 10t-7.5 10q-6 -2 -15 -9t-11 -12v-17l10 -21l11 -104q-49 -12 -86.5 -29t-70.5 -45q2 -6 9 -15t11 -11h3l12 -12q4 -4 6 -5h15l20 10l91 9zM222 123l6 -5q0 -2 2 -2q-2 1 -8 7z" />
    <glyph glyph-name="FL002Ch" unicode="," horiz-adv-x="170" 
d="M26 51q0 13 5 21t16 19q14 -5 22 -9.5t14 -8t12 -5.5t15 -2q0 -11 -7.5 -41t-18.5 -62t-24 -57t-25 -25q-7 0 -10 11t-4 28t-0.5 37.5t2 39.5t2.5 33.5t1 20.5zM14 51v-5t-1 -8q0 -3 -0.5 -6t-0.5 -7q-2 -17 -3 -39.5t-1 -44.5q0 -29 5 -49.5t19 -22.5l12 -12q5 -5 11 -5
q9 0 18.5 13t19 33t18 44t14.5 46.5t10 40.5t4 26l-18 17q0 2 0.5 3t0.5 3q-17 0 -23.5 2t-13.5 6q-6 4 -15 8.5t-25 10.5q-17 -17 -24 -27.5t-7 -26.5z" />
    <glyph glyph-name="FL002Dh" unicode="-" horiz-adv-x="451" 
d="M60 268l-20 -10h-5h-5q-2 1 -5.5 4.5t-4.5 5.5q25 21 55 35.5t67.5 25t84 17.5t105.5 13q1 0 10.5 0.5t20.5 -0.5t19.5 -4.5t8.5 -11.5q0 -1 -0.5 -3l-0.5 -2q-2 -3 -7.5 -8.5l-12 -12l-12 -12t-8.5 -7.5h-4zM41 234q4 -4 6 -5h15l20 10l284 30h6q3 2 10 8.5t14.5 14
t14 14.5t8.5 10q1 4 1 7q0 8 -6 14l-12 11q-4 14 -20.5 19t-32.5 5q-3 0 -5.5 -0.5t-4.5 -0.5h-8q-60 -6 -107.5 -13.5t-86.5 -19t-71 -27.5t-60 -39q2 -6 9 -15t11 -11h3z" />
    <glyph glyph-name="FL002Eh" unicode="." horiz-adv-x="164" 
d="M8 51q0 16 7 26.5t24 27.5q16 -6 25 -11t15 -9q7 -4 13.5 -5.5t23.5 -1.5v-6l17 -17q0 -14 -4 -29t-11.5 -27t-18.5 -20t-25 -8q-16 0 -27 11l-9 9q-17 6 -23.5 24t-6.5 36zM20 51q0 -17 7 -34t27 -17q12 0 21 6t15.5 16t10 21.5t3.5 22.5q-9 0 -15 2t-12 5.5t-14 8
t-22 9.5q-11 -11 -16 -19t-5 -21z" />
    <glyph glyph-name="FL002Fh" unicode="/" horiz-adv-x="440" 
d="M113 88q0 -10 -9.5 -33.5t-23 -49t-28 -47t-23 -28.5t-9 6t13.5 58q0 26 1.5 51.5t9.5 58t25 75.5t49 103t81.5 140.5t121.5 188.5q1 -1 9.5 16l19 38l19 38t9.5 16l0.5 -2t0.5 -3t-0.5 -3l-0.5 -2q1 -8 -2 -27t-8.5 -42.5t-13 -49t-15 -47t-15 -36t-13.5 -16.5zM35 -99
q3 -3 9 -3q7 0 22.5 21t32 49.5t29.5 56t14 41.5l197 400q9 9 21 38.5t22.5 64t18 67.5t7.5 48v3q1 4 1 7v3q0 2 -2 8l-15 15q0 2 -0.5 3t-1.5 5q-1 0 -2.5 0.5t-2.5 0.5q-8 0 -21.5 -18t-24.5 -41v1q-2 -4 -4 -8.5t-4 -8.5q-5 -8 -7.5 -15t-3.5 -10q-73 -110 -123.5 -192.5
t-84 -144t-51.5 -106t-27 -77.5t-10.5 -59t-1.5 -51q-8 -23 -11 -38.5t-3 -25.5q0 -18 13 -20z" />
    <glyph glyph-name="FL0030h" unicode="0" 
d="M231 -2q-1 0 -1 1v0zM8 280q0 2 0.5 3.5t0.5 3.5v7q2 8 3 13q4 19 9 44t10 37q25 19 50.5 49.5t48.5 62.5q15 21 29.5 40t28.5 33v7q0 34 33 34q15 0 25.5 -8.5t16.5 -20.5l7 -6q11 -11 15.5 -27.5t6.5 -30.5q10 2 16 2q54 0 90.5 -18t57.5 -51q45 -48 45 -138
q0 -23 -2.5 -58t-9 -73t-18.5 -76.5t-31 -69.5t-46 -50t-63 -19q-11 0 -19.5 1t-13.5 6l-12 12q-9 2 -13.5 9t-4.5 22v3q0 1 0.5 2t0.5 2v14q36 4 59 21t36.5 41.5t19 54.5t5.5 61v44q0 37 -5 75.5t-25 67.5h-68q-2 0 -9 7l-10 10h-1q-4 0 -11.5 7t-13.5 15
q-25 -22 -49.5 -46t-44 -50t-32 -55t-12.5 -62q0 -50 25 -95.5t58 -87.5q5 -6 11 -12t11 -12v-2q4 -5 8 -9.5t9 -9.5v-5l1 -1v-6q0 -2 -1 -5t-6.5 -8.5t-9.5 -7.5h-16q-32 12 -59 36q-29 21 -53.5 54t-41.5 70.5t-26.5 75.5t-9.5 68v5zM280 20q0 -15 8.5 -18t22.5 -3
q34 0 59.5 18.5t43.5 48.5t29.5 67.5t17.5 75t8.5 71t2.5 56.5q0 82 -39.5 128.5t-124.5 46.5q-20 0 -38.5 -10.5t-18.5 -35.5v-5q3 -5 10.5 -15t9.5 -10h80q1 0 8.5 -9.5t11.5 -15.5q20 -28 25 -68.5t5 -78.5v-44q0 -33 -5.5 -65t-19 -58.5t-36.5 -44t-59 -21.5
q0 -1 -0.5 -4.5t-0.5 -5.5zM20 275q0 -33 12 -75.5t33.5 -83t51 -72.5t64.5 -44h5h5q2 1 5.5 4.5t4.5 5.5l0.5 2t0.5 3t-0.5 2.5t-0.5 2.5q-21 24 -42.5 50.5t-39.5 56t-29 61t-11 64.5q0 42 18 77.5t45 66.5t59 59t60 55q1 3 1.5 12.5t0.5 12.5q0 9 -2 21t-7 22t-13 17
t-20 7q-25 0 -20 -32q-15 -15 -35.5 -41.5t-42 -55t-43 -54t-39.5 -39.5q-2 -5 -5 -17.5t-6 -27t-5.5 -27.5t-3.5 -18q0 -1 -0.5 -6.5t-0.5 -8.5z" />
    <glyph glyph-name="FL0031h" unicode="1" horiz-adv-x="218" 
d="M20 514q0 10 6 22t16 21.5t21.5 15t22.5 3.5q33 -5 47.5 -28.5t22.5 -51.5q0 -4 0.5 -13t0.5 -20t0.5 -22.5t0.5 -20.5v-19v-24q0 -23 -1 -45.5t-1 -25.5q-2 -12 -7.5 -44.5t-12.5 -69.5t-13 -69t-9 -43q2 -12 8.5 -17.5t14 -9.5t13 -10t5.5 -18q0 -8 -2.5 -17t-13.5 -9
q-1 0 -3 0.5l-2 0.5q-3 2 -11.5 6t-18.5 9t-18.5 9t-11.5 6q-2 1 -5.5 4.5t-4.5 5.5l20 20l0.5 15t2 38.5t2.5 53t2.5 59t2.5 56t2 44.5v10q0 8 0.5 18.5t0.5 20.5v16q0 9 1 31t-1 45.5t-8.5 41.5t-21.5 18q-14 0 -23.5 -6.5t-23.5 -6.5zM19 502h4l17 -17q8 0 14.5 2t12.5 5
q3 1 6 2.5t7 2.5q4 -11 5 -27.5t1 -32.5q0 -5 -0.5 -10t-0.5 -10v-42q0 -3 -0.5 -6t-0.5 -5v-38q-1 -19 -2 -47t-2.5 -59.5t-3 -62t-2.5 -53.5q-1 -17 -1 -24q0 -6 -1 -16l-22 -21q2 -6 8.5 -14.5t11.5 -10.5q2 -3 7 -4l6 -6q6 -6 8 -7l-1 1q5 -3 13.5 -6.5t16.5 -8.5
q10 -5 19.5 -9.5t12.5 -6.5q4 -1 7 -1q17 0 21 12t4 23q0 16 -9 25l-3 2l0.5 -0.5t1.5 -0.5l-9 9q-5 14 -20 22v-1q-1 0 -1 1q3 14 9.5 46.5t12.5 68t11.5 66.5t7.5 42v9q1 10 1.5 28t0.5 35v62q0 6 -0.5 12t-0.5 12q0 8 -0.5 14t-0.5 11v11q-5 18 -12.5 34.5t-20.5 29.5
l-2 1q1 -1 2 -1l-3 2q-9 16 -24 27.5t-38 15.5h-6q-12 0 -25 -7t-23.5 -18.5t-17.5 -24.5t-7 -25z" />
    <glyph glyph-name="FL0032h" unicode="2" horiz-adv-x="427" 
d="M367 50q0 -23 -15.5 -30.5t-38.5 -7.5q-22 0 -46 3.5t-42 3.5q-27 0 -55 14.5t-50 26.5q0 1 -0.5 2.5t-0.5 2.5t0.5 3l0.5 2q1 2 4.5 5.5t5.5 4.5q3 -1 10 -3t15 -3.5t15 -2.5t10 -1q29 0 49.5 7t37 16t30.5 16t30 7q12 0 19.5 -7t12 -17.5t6.5 -22t2 -19.5zM79 110
q0 -27 11.5 -42.5t25 -26.5t25 -21t11.5 -26q-20 0 -43.5 9t-43 24t-32.5 35t-13 43q0 52 18.5 95t46.5 80t60.5 68.5t60.5 60.5t46.5 56t18.5 55q0 2 -0.5 5.5t-0.5 4.5q-3 -4 -14.5 -15.5t-15.5 -14.5l-1.5 -0.5t-3.5 -0.5q-1 0 -3 0.5l-2 0.5l-50 20q-3 1 -15 4.5
t-28.5 7.5t-35 9t-34.5 9t-26.5 7l-10.5 3l-0.5 2t-0.5 3q0 2 0.5 3.5l0.5 1.5q2 2 10 6t10 4h215v-30q1 3 7 10.5t8 9.5l2 0.5t3 0.5q14 0 15 -13t1 -22q0 -44 -16.5 -83t-41 -75t-53.5 -69t-53.5 -65.5t-41 -65.5t-16.5 -68zM42 533q10 -3 17.5 -5t14 -4t14.5 -4l20 -5
q15 -4 29.5 -8t27 -7t21.5 -5.5t11 -3.5v1l46 -19q-13 -21 -33.5 -43t-43.5 -45q-27 -27 -55 -57t-51 -64t-37.5 -73.5t-14.5 -85.5q0 -24 14 -45t36 -38l5 -5q23 -23 56 -37.5t62 -14.5q0 16 -4.5 26t-12.5 18l-3 3l-4 3l-1 1q0 1 -1 2q20 -11 43.5 -19.5t46.5 -8.5
q16 0 39 -3q12 -2 24.5 -3t24.5 -1q27 0 45 9t18 38q0 13 -4.5 32t-16.5 31l-3 3v-1q1 0 1 -1l-6 5q-6 12 -16 20.5t-24 8.5q-17 0 -30 -5.5t-27 -13.5h1q-17 -9 -38.5 -18t-52.5 -9q-3 0 -10 1.5t-15 3t-15.5 3.5t-10.5 3q-5 -2 -11.5 -7.5t-8.5 -10.5q-1 3 -1 7v8
q0 23 8.5 45.5t22 45t31.5 45t37 45.5q22 27 44.5 54.5t39.5 57.5t28 63t11 70v8q0 8 -1.5 16.5t-6.5 13.5l-12 11q-2 8 -8 13t-17 5h-5l-3 3v6h-227q-3 0 -15 -6.5t-16 -10.5q-2 -3 -2 -4v-6v-7t2 -8q2 -1 4 -1t4 -1z" />
    <glyph glyph-name="FL0033h" unicode="3" horiz-adv-x="451" 
d="M134 278h-6v27q12 14 29.5 38.5t33.5 52.5t27.5 56.5t11.5 51.5l-0.5 0.5t-0.5 1.5h-2q-20 0 -39.5 -8.5t-37.5 -19.5v-20l-56 5h-1q0 1 -1 1v0l-1 1q-11 -4 -18.5 -5t-12.5 -1q-8 0 -14 2.5t-9 5.5l-11 11q-11 3 -14.5 9.5t-3.5 13.5v20q0 2 0.5 5.5t0.5 6.5v8
q48 31 95 39t97 8h14h20q12 0 21 -1q2 0 5 -0.5t6 -0.5h7q19 -13 32 -34l1 -1q17 -17 25.5 -38.5t8.5 -43.5q0 -30 -16 -63.5t-39 -61.5q32 -2 59 -13t42 -36l6 -6q27 -27 27 -79q0 -32 -13 -73.5t-36.5 -78.5t-55.5 -62.5t-69 -25.5q-29 0 -50 21l-7 7q-28 17 -41.5 54
t-13.5 74q27 0 40 -9.5t22 -21.5q2 -2 2.5 -4t2.5 -4l3 -2q2 -2 2.5 -3t2.5 -3q10 -8 22 -8q17 0 29.5 22t21 49.5t12.5 53.5t4 34q0 4 -1.5 13t-3.5 18h-142zM121 488v16q20 11 41.5 21t44.5 10q10 0 21 -3t13 -18q3 -24 -7.5 -54.5t-27 -61t-35 -57t-31.5 -41.5v-10h140
q8 0 13.5 -7.5t9.5 -17.5t5.5 -20t1.5 -15q0 -8 -5 -36t-14.5 -58t-24.5 -53.5t-35 -23.5q-15 0 -25 8.5t-18.5 19t-18 19t-23.5 8.5q0 -20 5 -40t15 -37t25 -27.5t35 -10.5q36 0 66 24.5t52 60t34.5 75.5t12.5 71q0 39 -16 60.5t-42 31.5t-58 10.5t-65 -2.5q19 9 37 27
t32.5 40t23.5 46.5t9 45.5q0 24 -10.5 47.5t-30.5 37.5q-5 0 -23.5 1t-32.5 1h-14q-48 0 -93 -7.5t-87 -34.5q0 -3 -0.5 -12.5t-0.5 -12.5v-8q0 -3 2 -6.5t8 -5.5t16 -1t25 6q1 1 3 -0.5t3 -1.5z" />
    <glyph glyph-name="FL0034h" unicode="4" horiz-adv-x="493" 
d="M301 303q-16 6 -39 9t-45.5 4.5t-40.5 2t-24 0.5l-59 -25l-18 17l-5 -2v14q-14 0 -21 8l-11 11q-9 3 -16.5 13t-11.5 33q-1 6 -1.5 16.5t-1.5 23.5h60q2 22 2.5 29.5t0.5 19.5v14q0 4 -1.5 14.5t-3 22t-3 20t-2.5 10.5q-5 4 -6.5 5.5l-3.5 3.5q-5 2 -6 3.5t-4 7.5
q-1 4 -1 8q0 3 1 7q4 5 15.5 16.5t16.5 15.5q20 -14 32 -32l5 -5q29 -29 35.5 -68t6.5 -75v-28l149 -49v15q0 3 0.5 6t0.5 5v22q0 17 -3 35t-8 36q-1 2 -1 5t-1 5l-6 30t-3 34q0 17 10.5 34.5t32.5 17.5q4 0 11 -13l12 -12q6 -6 12.5 -32.5t12.5 -60t10.5 -68t7.5 -55.5
q1 -5 1.5 -9t1.5 -8q3 -21 9 -35q8 -5 16 -8q1 -1 3 -1q8 -5 14.5 -9.5t9.5 -12.5l12 -12q7 -7 7 -21q0 -4 -1 -8q-1 -3 -7.5 -9t-11.5 -8l-42 21q-8 -73 -9.5 -142t-1.5 -145q-18 0 -34 7.5t-29 20.5l-6 6q-23 16 -37 41t-14 48q0 29 5 56.5t11 53.5t11 52.5t5 52.5z
M132 348q9 0 38 -0.5t61 -5t57 -13.5t25 -26q0 -28 -5 -54.5t-11 -53t-11 -53.5t-5 -54q0 -15 6 -31.5t16.5 -30.5t25 -23t31.5 -9q0 75 2 143.5t10 143.5h5h5l40 -20q2 1 5.5 4.5t4.5 5.5l0.5 2t0.5 3q0 13 -9.5 18t-21.5 11.5t-23.5 20t-16.5 45.5q-1 7 -3.5 27t-6 45.5
t-7.5 53.5t-8 51t-8 38t-7 15q-16 0 -23.5 -13.5t-7.5 -26.5q0 -19 3.5 -36.5t7.5 -35t7.5 -36t3.5 -37.5v-13q0 -9 -0.5 -19.5t-0.5 -19.5v-13l-180 60l-10 10q0 19 0.5 45.5t-3.5 53.5t-14.5 51.5t-32.5 39.5q-3 -2 -10.5 -9.5t-9.5 -10.5l-0.5 -2t-0.5 -3t0.5 -3l0.5 -2
q1 -1 4 -3.5t6.5 -6l6.5 -6.5t3 -4q1 -2 2.5 -11t3 -20.5t3 -22.5t1.5 -16q1 -11 0 -29.5t-2 -31t-1 -14.5h-59l0.5 -9.5t1.5 -15.5q5 -26 13.5 -32.5t18.5 -6.5h17q8 0 11 -11v-14z" />
    <glyph glyph-name="FL0035h" unicode="5" horiz-adv-x="458" 
d="M212 569q0 -4 -0.5 -6.5t-0.5 -5.5q25 10 45 10q16 0 39 3q12 2 24.5 3t24.5 1q23 0 39.5 -6.5t23.5 -23.5l8 -8q12 -12 12 -32q0 -9 -2.5 -22t-8 -25t-15 -20t-23.5 -8q-15 0 -28 5.5t-27 13.5q-17 9 -38.5 18t-53.5 9q-3 0 -10 -1.5t-15 -3t-15.5 -3.5t-10.5 -3
q-2 1 -6 4t-7 6l-8 7q-4 2 -7 5q-5 -6 -8 -13t-5 -17q62 -45 106 -85t74 -78q51 -57 72 -105t21 -84q0 -32 -9 -56t-21 -40.5t-25 -25t-21 -8.5q-4 0 -8 1l-3 3v-13h-224q-3 0 -12.5 5t-14.5 9l-12 12q-8 4 -12 9q-2 4 -2 9v7t2 8l8 2t7 2q14 4 23.5 6.5t29.5 7.5
q15 4 30.5 8t28.5 7.5t22.5 6t11.5 3.5v-1l51 21h7q16 6 16 26q0 45 -63.5 143t-199.5 247q-8 8 -10.5 15t-2.5 14q0 18 21.5 29.5t51.5 18t61.5 9.5t51.5 3v-6zM398 524q0 22 -15.5 30t-38.5 8q-22 0 -46 -3.5t-42 -3.5q-27 0 -55 -14.5t-50 -26.5q0 -1 -0.5 -2.5
t-0.5 -2.5t0.5 -3l0.5 -2q1 -2 4.5 -5.5t5.5 -4.5q3 1 10 3t15 3.5t15 2.5t10 1q29 0 49.5 -7t37 -16t30.5 -16t30 -7q12 0 19.5 7t12 17.5t6.5 22t2 19.5zM110 464q0 27 11.5 42.5t25 26.5t25 21t11.5 26q-20 0 -53.5 -3t-61.5 -11t-42 -21t5 -34q181 -199 237 -310t3 -127
l-1.5 0.5t-3.5 0.5q-1 0 -3 -0.5l-2 -0.5l-50 -20q-3 -1 -15 -4.5t-28.5 -7.5t-35 -9t-34.5 -9t-26.5 -7l-10.5 -3l-0.5 -2t-0.5 -3q0 -2 0.5 -3.5l0.5 -1.5q2 -2 10 -6t10 -4h215v30q1 -3 7 -10.5t8 -9.5l2 -0.5t3 -0.5q7 0 18.5 8t22 23.5t18.5 38t8 51.5t-13.5 65.5
t-45 79t-84 92t-130.5 103.5z" />
    <glyph glyph-name="FL0036h" unicode="6" horiz-adv-x="461" 
d="M346 255q-22 5 -44.5 -3.5t-44 -25.5t-40 -40t-33 -47t-23.5 -46.5t-11 -38.5q15 -6 33 -8.5t40 -2.5q34 0 59.5 22.5t42 55.5t25.5 69.5t11 63.5q-2 0 -7.5 0.5t-7.5 0.5zM21 194q-2 27 2.5 55.5t12 57t17 56t18.5 51.5q6 9 21.5 31.5t33.5 48t33.5 48.5t21.5 32
q10 15 15 18t19 3q8 0 21 -3t25.5 -8t21.5 -13t9 -18q0 -6 -14.5 -19t-33.5 -28t-37.5 -29t-25.5 -23q-92 -119 -92 -265q0 -4 0.5 -15t0.5 -23t0.5 -22.5t0.5 -14.5q18 -33 40 -49q-6 42 17.5 85t60.5 77t79 53.5t73 13.5q1 0 7 7t12.5 9.5t12.5 -6.5t8 -40q-2 0 -6 -4
t-4 -6q0 -1 -0.5 -12t-0.5 -16q0 -40 -7.5 -68.5t-16.5 -46.5t-15 -27t-3 -10h-7q-10 -9 -24.5 -22.5t-31.5 -26t-35 -22t-34 -9.5q-44 0 -79 16t-60 43t-39.5 63.5t-16.5 77.5zM9 194q2 -56 25.5 -102t65.5 -75q26 -24 60 -38t76 -14q16 0 32.5 7.5t32 18.5t30 23.5
t25.5 22.5l8 8h4v18l8 -8l1 1.5l3 4.5q10 15 24.5 50.5t14.5 94.5q0 4 0.5 11.5t0.5 12.5v4l4 0.5t6 0.5q-2 27 -5.5 41.5t-9.5 19.5l-12 11q-7 16 -19 16q-8 0 -13 -4.5t-10 -9.5l-2 -2h-12q-30 0 -67 -18t-70.5 -47.5t-58.5 -66.5t-31 -74v2q0 5 -0.5 12.5t-0.5 15.5
t-0.5 15.5t-0.5 13.5v9q0 142 90 259q5 8 19 18.5t31 23.5q23 18 43 34.5t20 28.5t-10 22l-10 9q-5 10 -16 18.5t-24 13.5t-25.5 8t-20.5 3q-11 0 -17 -0.5t-10.5 -3.5t-9 -9.5t-11.5 -17.5h2q-8 -12 -24 -35t-33 -47.5t-31.5 -46t-20.5 -29.5q-17 -45 -34.5 -100
t-17.5 -108v-8q0 -2 0.5 -4t0.5 -4zM345 227q-5 -27 -15 -57.5t-25 -56t-35.5 -42t-46.5 -16.5h-20t-18 2q8 24 24 52.5t37.5 54t47 43.5t51.5 20z" />
    <glyph glyph-name="FL0037h" unicode="7" horiz-adv-x="573" 
d="M20 35q0 16 10.5 35t24.5 37.5t29.5 35t25.5 27.5q7 9 26.5 30.5t42 45.5t43 45t28.5 29q-6 9 -17 16t-24 12t-26 8t-23 4v15q3 0 11.5 -0.5t18.5 -1.5t18.5 -1.5t11.5 -1.5q2 0 11 -3t19 -7t19 -7t11 -3t13.5 7.5t16.5 12.5q48 39 93.5 87.5t87.5 93.5h-20
q-54 0 -111.5 -11t-108.5 -29q-3 -1 -13 -5.5t-22 -9.5t-22 -9.5t-13 -5.5q-1 0 -4.5 -0.5t-5.5 -0.5q-11 0 -20.5 10t-9.5 21q0 17 9 37t21 33q16 1 55.5 3t84.5 3.5t84.5 2.5t55.5 1h29q24 0 28.5 -7t4.5 -32q0 -5 -1 -12.5t-1 -8.5l-171 -201q7 -13 21 -19t29.5 -11
t29 -11t20.5 -19l0.5 -2t0.5 -3t-0.5 -2.5t-0.5 -2.5q-18 -8 -36 -18t-34 -22q-7 6 -14 17.5t-15.5 23.5t-17 21t-18.5 9q-1 0 -2.5 -0.5t-2.5 -0.5q-4 -5 -14 -18t-21 -27t-21 -27t-14 -18q-4 -6 -20 -31t-35 -53.5t-35 -54t-20 -31.5q-2 -3 -10 -10.5t-10 -9.5h-4h-6h-13
q-13 0 -32 4.5t-25 15.5v5zM8 35v-8q4 -12 21 -19l7 -7q11 -11 30 -15.5t31 -4.5h26l7 7l9 9t8 9h1l5.5 7.5t11.5 17.5q11 17 25.5 40t28 44.5t24.5 38t14 21.5l14 17.5t21 26.5l18 24t14 18l9 -12q1 -2 2 -3.5t3 -3.5q6 -11 13 -20.5t18 -16.5l1 1l9 -9q2 -2 5 -4l6 -4
q17 14 38 24.5l41 20.5v8q0 1 0.5 1.5t0.5 1.5q0 3 -1 7q-2 4 -4 7t-5 6l-8 8q-8 16 -21.5 23t-27.5 12l-9 3q-5 1 -8.5 2t-8.5 3l163 191v5q2 10 2 20q0 17 -1 26.5t-6 14.5l-12 12q-3 11 -12 14.5t-31 3.5h-29q-16 0 -56.5 -1t-86 -2.5t-86 -3.5t-56.5 -3q-15 -16 -26 -39
t-11 -43q0 -12 8 -24t20 -17l8 -7q12 -12 26 -12q2 0 3.5 0.5t3.5 0.5h6q-2 -1 10 4t26 12q10 5 19.5 8.5t7.5 3.5q42 14 87.5 24.5t90.5 14.5q-35 -37 -70 -73t-68 -63q-6 -6 -15.5 -13.5t-11.5 -7.5t-10 2.5t-16 6.5q-5 2 -10 3.5t-10 3.5l-10 3v1q-3 1 -13.5 1.5
t-23.5 1.5t-24 1.5t-15 0.5v-38q2 -1 7 -1l16 -16q12 -2 28.5 -6t31.5 -9q-14 -14 -33.5 -34.5t-38.5 -41t-35 -38t-22 -25.5l-3 -3q-1 -1 -1.5 -2t-2.5 -3q-12 -12 -27 -28.5t-28.5 -35t-22.5 -37t-9 -34.5zM184 472h-1v3q-1 -1 2 -1q4 0 9 2q-4 -2 -7.5 -3.5t-2.5 -0.5z
" />
    <glyph glyph-name="FL0038h" unicode="8" horiz-adv-x="504" 
d="M350 340q-1 4 -5 18.5t-10 32.5t-13.5 38t-16.5 37l-26 9q-25 5 -45.5 13.5t-32.5 13.5l-6 3l-2 1q-7 0 -14.5 -2t-7.5 -10v-3q0 -15 6 -33.5t16 -38t22.5 -38.5t26.5 -37q21 -24 37 -40v-4q1 -1 1.5 -2t2.5 -2h55q3 0 5.5 5t3.5 12t2 14.5t1 12.5zM311 63q0 21 -12 48.5
t-30 55t-38 52.5t-36 42h-48q-5 0 -8 -6t-4.5 -14t-2 -16t-0.5 -13q1 -5 4.5 -18.5t9 -31t13 -36.5t16.5 -36q32 -17 50 -23t30 -9q2 -1 4 -1q3 0 5 -1q3 -1 6.5 -1.5t5.5 -1.5v-1q4 -1 8 -1h8q6 0 12.5 1.5t6.5 7.5v3zM333 212q6 -6 11.5 -12.5t11.5 -13.5q26 -27 44 -59
t20 -61v-11q0 -24 -9.5 -46.5t-27.5 -37.5q-2 0 -8 -0.5t-11 -0.5q-9 -1 -21 -1h-20h-14q-33 0 -63 3h-1q-1 0 -1.5 -0.5t-1.5 -0.5q-4 -1 -11 -1q-30 0 -65 19l-1 1q-12 5 -23 10t-21 13l-9 8q-3 2 -6.5 4.5t-6.5 5.5q-5 4 -7 11t-2 14q-34 41 -55 88.5t-25 84.5q-1 5 -1 9
v10q0 29 10.5 47.5t28.5 29.5t42 15.5t51 4.5h8q-16 14 -31 31.5t-27 36.5t-20 38t-9 37v11q0 25 10 48t29 39h7q2 0 6 0.5t7 0.5q9 1 20 1h21h14q33 0 65 -3h1v1q3 1 12 1q33 0 67 -20q14 -5 25.5 -11t24.5 -14v-5l17 -17v-10h1q0 -5 1 -8.5t1 -5.5q32 -40 54.5 -86.5
t26.5 -84.5q1 -5 1 -9v-8q0 -29 -10.5 -47.5t-28 -29.5t-41 -15t-50.5 -4h-10zM303 491q12 -16 22.5 -39t18 -45t12.5 -39.5t6 -23.5q0 -5 -1 -15t-3.5 -20t-7.5 -17.5t-12 -7.5h-140v-10q15 -15 37 -41.5t42 -57t33.5 -61t12.5 -54.5q0 -15 -10.5 -18t-20.5 -3
q-5 0 -10.5 0.5t-10.5 1.5q-8 3 -17 4.5t-21.5 5t-29.5 10.5t-40 21q-12 16 -22.5 39t-18.5 45t-13 40t-6 24q0 5 1 15t3.5 20t7 17.5t12.5 7.5h140v10q-15 15 -37 41.5t-42 57t-33.5 61t-12.5 54.5q0 15 10.5 18t20.5 3q2 0 9.5 -3.5t19.5 -9t27 -10.5t33 -8zM211 -1
q2 0 6 0.5t9 1.5q31 -3 63 -3h14q14 0 32.5 1t23.5 1q18 14 26 37.5t6 47.5q-2 21 -13.5 45.5t-28.5 46.5t-37.5 40t-40.5 27q34 -3 66.5 -2.5t57.5 10.5t38.5 31.5t9.5 60.5q-4 37 -26 83t-54 85q0 5 -2 12t-2 10q-11 7 -22 12.5t-22 9.5q-16 9 -30.5 14t-30.5 5
q-2 0 -5.5 -0.5t-8.5 -1.5q-32 3 -64 3h-14q-14 0 -32.5 -1t-23.5 -1q-18 -14 -26 -37.5t-6 -47.5q2 -21 13.5 -45.5t28 -46.5t36.5 -40t39 -27q-32 3 -64.5 2.5t-57 -10.5t-38.5 -31.5t-9 -60.5q2 -18 8.5 -39.5t16.5 -44t24 -44.5t31 -41q0 -5 1 -12t3 -9q20 -14 44 -23
q16 -8 31 -13t30 -5z" />
    <glyph glyph-name="FL0039h" unicode="9" horiz-adv-x="461" 
d="M75 333q22 -5 44.5 3.5t44 26t40 40.5t33 47t23.5 46t11 38q-31 11 -73 11q-35 0 -60 -22.5t-41.5 -55.5t-25.5 -69.5t-11 -63.5q2 0 7.5 -0.5t7.5 -0.5zM400 394q2 -27 -2.5 -55.5t-12 -57t-17 -56t-18.5 -51.5q-6 -9 -21.5 -31.5t-33.5 -48t-33.5 -48.5t-21.5 -32
q-10 -15 -15 -18t-19 -3q-8 0 -21 3t-25.5 8t-21.5 13t-9 18q0 6 14.5 19t33.5 28t37.5 29t25.5 23q92 119 92 265q0 4 -0.5 15t-0.5 23t-0.5 22.5t-0.5 14.5q-18 33 -40 49q6 -42 -17.5 -85t-60.5 -77t-79 -53.5t-73 -13.5q-2 0 -7.5 -7t-12 -9.5t-12.5 6t-8 40.5q2 0 6 4
t4 6q0 1 0.5 12t0.5 16q0 40 7.5 68.5t16.5 46.5t15 27t3 10h7q10 9 24.5 22.5t31.5 26t35 22t34 9.5q43 0 78.5 -16t60.5 -43t39.5 -63.5t16.5 -77.5zM81 264l-1 1q1 0 1 -1h13q30 0 66.5 18t69.5 46.5t57.5 65t30.5 73.5v-14q0 -4 0.5 -8t0.5 -8t0.5 -8t0.5 -8v-22
q0 -141 -89 -257q-5 -6 -15 -14.5t-23 -18.5l-12 -9q-4 -3 -7 -5.5t-7 -5.5q-20 -15 -35 -28.5t-15 -25.5q0 -11 7.5 -19.5t18.5 -15.5l7 -7q7 -7 17.5 -12.5t21.5 -9t21 -5.5t16 -2q9 0 15 0.5t10 3t7.5 7.5t9.5 14l-1 1q6 9 22 32t34 48.5t33.5 48t21.5 31.5
q17 45 34.5 100t17.5 108q0 4 -0.5 8t-0.5 8q-2 43 -17 80.5t-41 66.5q-27 38 -69.5 61.5t-96.5 23.5q-16 0 -32.5 -8t-33 -19t-31 -24t-25.5 -23l-5 -5q-1 0 -1 -1h-1h-6v-18l-2 2v3q0 13 -11 -4q-9 -14 -23.5 -49.5t-14.5 -97.5v-10q0 -4 -0.5 -7.5t-0.5 -6.5v-2h-10
q2 -38 8.5 -53.5t15.5 -17.5l14 -13q4 -4 11 -4q8 0 13.5 5.5zM218 516q9 0 17.5 -0.5t16.5 -1.5q-9 -24 -25.5 -54t-38 -55.5t-46.5 -43.5t-50 -18q4 27 14 57.5t25.5 56t37 42.5t49.5 17z" />
    <glyph glyph-name="FL003Ah" unicode=":" horiz-adv-x="168" 
d="M20 270q0 13 5 21t16 19q14 -5 22 -9.5t14 -8t12 -5.5t15 -2q0 -11 -3.5 -22.5t-10 -21.5t-15.5 -16t-21 -6q-20 0 -27 17t-7 34zM24 51q0 13 5 21t16 19q14 -5 22 -9.5t14 -8t12 -5.5t15 -2q0 -11 -3.5 -22.5t-10 -21.5t-15.5 -16t-21 -6q-20 0 -27 17t-7 34zM12 51
q0 -18 6.5 -36t23.5 -24l9 -9q11 -11 27 -11q14 0 25 8t18.5 20t11.5 27t4 29l-17 17v6q-17 0 -23.5 1.5t-13.5 5.5v1q-6 4 -15 8.5t-25 10.5q-17 -17 -24 -27.5t-7 -26.5zM8 270q0 -18 6.5 -36t23.5 -25l9 -8q5 -5 11.5 -8t15.5 -3q14 0 25 8t18.5 20t11.5 27t4 29l-17 17
v6q-17 0 -23.5 1.5t-13.5 5.5q-6 4 -15 9t-25 11q-17 -17 -24 -27.5t-7 -26.5z" />
    <glyph glyph-name="FL003Bh" unicode=";" horiz-adv-x="170" 
d="M10 270q0 16 7 26.5t24 27.5q16 -6 25 -10.5t15 -8.5v-1q7 -4 13.5 -5.5t23.5 -1.5v-6l17 -17q0 -14 -4 -29t-11.5 -27t-18.5 -20t-25 -8q-9 0 -15.5 3t-11.5 8l-9 8q-17 7 -23.5 25t-6.5 36zM14 51q0 16 7 26.5t24 27.5q16 -6 25 -11t15 -9q7 -4 13.5 -5.5t23.5 -1.5
q0 -2 -0.5 -3t-0.5 -3l18 -17q0 -8 -4 -26t-10 -40.5t-14.5 -46.5t-18 -44t-19 -33t-18.5 -13q-6 0 -11 5l-13 13q-14 2 -18.5 23.5t-4.5 50.5q0 21 1 42.5t3 38.5q0 2 0.5 3.5t0.5 3.5q1 7 1 12v7zM26 51q0 -9 -2.5 -36.5t-3 -57t2 -53t12.5 -23.5q12 0 25 25t24 57
t18.5 62t7.5 41q-9 0 -15 2t-12 5.5t-14 8t-22 9.5q-11 -11 -16 -19t-5 -21zM22 270q0 -17 7 -34t27 -17q12 0 21 6t15.5 16t10 21.5t3.5 22.5q-9 0 -15 2t-12 5.5t-14 8t-22 9.5q-11 -11 -16 -19t-5 -21z" />
    <glyph glyph-name="FL003Ch" unicode="&#x3c;" horiz-adv-x="381" 
d="M12 370q31 19 41 28.5t14 14.5q5 6 8.5 8t11.5 2h5q4 0 13 -2q2 -2 3.5 -4t3.5 -4q1 -2 5 -6v3q0 14 14.5 37t30.5 46l9 12q5 8 10 15t8 15q4 7 5.5 13.5t3.5 12.5v-1q0 2 0.5 3.5t0.5 2.5q1 8 3 13.5t6 9t11 5t20 1.5q19 0 39 -11t29 -30l6 -5q8 -8 12.5 -17.5
t4.5 -20.5q0 -10 -6.5 -19t-15.5 -16.5t-19.5 -14t-19.5 -10.5q-5 -3 -8.5 -4.5t-9.5 -7.5q-5 -4 -18 -15t-27 -23.5t-26.5 -24t-17.5 -16.5q-3 2 -6 2.5t-5 1.5q1 0 1 -1q25 -31 59.5 -75t65 -88.5t52 -83.5t21.5 -61q0 -4 -1 -8q-2 -4 -10.5 -12.5t-12.5 -11.5h-1
q-4 -4 -12 -10.5t-18 -13.5l1 -1q-10 -8 -23 -19l-13 -11l-2 2h-3q-2 0 -4 2l-15 15h-1q-8 0 -15.5 18.5t-17.5 46.5q-4 10 -8 21l-8 22q-7 19 -14.5 39.5t-15 38.5t-14 32.5t-11.5 23.5l-8 17q-2 3 -3.5 6t-3.5 6q-5 8 -8 13.5t-6 10.5q-7 2 -19 10t-35 28q-8 5 -17 13
t-20 19zM129 410q0 -6 1.5 -11.5t9.5 -8.5q5 5 17.5 16.5t27 24t27.5 24t18 15.5q3 3 14.5 8.5t24 13.5t22.5 18t10 21q0 23 -20.5 37.5t-41.5 14.5q-14 0 -19 -2.5t-7 -8.5t-4 -16.5t-9 -25.5q-5 -11 -16.5 -27t-23.5 -33.5t-21.5 -33.5t-9.5 -26zM20 360q20 -18 33 -28.5
t21 -15t12 -5.5t7 -1t6 -2t7.5 -9.5t12.5 -21.5t21 -37q5 -9 14 -30.5t19.5 -48.5t21 -55.5t19.5 -52t14.5 -39t6.5 -15.5t2.5 0.5t2.5 0.5q3 3 11.5 10t18.5 15t18.5 15t11.5 10q4 3 11.5 10.5t8.5 9.5l0.5 2t0.5 3q0 16 -13 43t-33.5 59t-45.5 67t-49.5 66.5t-46 58
t-33.5 41.5q-13 1 -16 0.5t-7.5 -5.5t-15.5 -15.5t-41 -29.5z" />
    <glyph glyph-name="FL003Dh" unicode="=" horiz-adv-x="453" 
d="M62 163l-20 -10h-5h-5q-2 1 -5.5 4.5t-4.5 5.5q25 21 55 35.5t67.5 25t84 17.5t105.5 13q1 0 10.5 0.5t20.5 -0.5t19.5 -4.5t8.5 -11.5q0 -1 -0.5 -3l-0.5 -2q-2 -3 -7.5 -8.5l-12 -12l-12 -12t-8.5 -7.5h-4zM60 321l-20 -10h-5h-5q-2 1 -5.5 4.5t-4.5 5.5q25 21 55 35.5
t67.5 25t84 17.5t105.5 13q1 0 10.5 0.5t20.5 -0.5t19.5 -4.5t8.5 -11.5q0 -1 -0.5 -3l-0.5 -2q-2 -3 -7.5 -8.5l-12 -12l-12 -12t-8.5 -7.5h-4zM41 287q4 -4 6 -5h15l20 10l284 30h6q3 2 10 8.5t14.5 14t14 14.5t8.5 10q1 4 1 7q0 8 -6 14l-2 1q1 0 1 -1h1l-12 11
q-4 14 -20.5 19t-32.5 5q-3 0 -5.5 -0.5t-4.5 -0.5h-8q-60 -6 -107.5 -13.5t-86.5 -19t-71 -27.5t-60 -39q2 -6 9 -15t11 -11h3zM43 129q4 -4 6 -5h15l20 10l284 30h6q3 2 10 8.5t14.5 14t14 14.5t8.5 10q1 4 1 7q0 8 -6 14l-12 11q-4 14 -20.5 19t-32.5 5q-3 0 -5.5 -0.5
t-4.5 -0.5h-8q-60 -6 -107.5 -13.5t-86.5 -19t-71 -27.5t-60 -39q2 -6 9 -15t11 -11h3z" />
    <glyph glyph-name="FL003Eh" unicode="&#x3e;" horiz-adv-x="381" 
d="M212 410q0 -6 -1.5 -11.5t-9.5 -8.5q-5 5 -17.5 16.5t-27 24t-27.5 24t-18 15.5q-3 3 -14.5 8.5t-24 13.5t-22.5 18t-10 21q0 23 20.5 37.5t41.5 14.5q13 0 18.5 -2.5t7.5 -8.5t4 -16.5t9 -25.5q5 -11 16.5 -27t23.5 -33.5t21.5 -33.5t9.5 -26zM321 360q-20 -19 -33 -29
t-21 -14.5t-12.5 -5.5t-7.5 -1q-2 0 -4.5 -2t-7.5 -9.5t-13 -21.5t-21 -37q-5 -9 -14 -30.5t-19.5 -48.5t-21 -55.5t-19.5 -52t-15 -39l-6 -15.5q-1 0 -2.5 0.5t-2.5 0.5q-3 3 -11.5 10t-18.5 15t-18.5 15t-11.5 10q-4 3 -11.5 10.5t-8.5 9.5l-0.5 2t-0.5 3q0 16 13 43
t33.5 59t45.5 67t49.5 66.5t46 58t33.5 41.5q13 1 16 0.5t7.5 -5.5t15.5 -15.5t41 -29.5zM197 471q-8 12 -16 23t-12 20t-6 17t-4 14q-3 16 -8 21l-12 11q-2 10 -9.5 14t-27.5 4q-12 0 -25.5 -4.5t-24 -13t-17.5 -20.5t-7 -26q0 -15 11 -27t25 -21l1 -1q10 -10 23 -18
t24 -13q2 -2 4 -2.5t4 -2.5q9 -8 21 -18t23 -20.5t20.5 -19t14.5 -12.5q-26 -32 -59 -75t-62.5 -86t-49.5 -80.5t-20 -59.5q0 -5 1 -9q2 -5 11.5 -14t15.5 -14q3 -3 9 -7.5t12 -9.5q2 -3 5 -5q1 -1 2 -1.5t2 -1.5v-1q2 -2 4.5 -3.5t5.5 -3.5q2 -2 4 -3.5t4 -2.5l1 -1
q9 -8 20.5 -17.5t11.5 -8.5q2 -2 6 -2h3q5 0 12.5 18t17.5 45q9 23 18.5 50t19.5 52.5t19 46.5t16 33q12 22 19.5 35t11.5 20t5.5 9l1.5 2q4 0 9 1t14 5.5t22.5 15t34.5 30.5l-1 15l-17 16v6q-31 19 -41 28.5t-14 14.5q-5 6 -8.5 8t-11.5 2h-6q-3 0 -12 -2q-3 -3 -4 -5
q-6 13 -16 27t-19 28z" />
    <glyph glyph-name="FL003Fh" unicode="?" horiz-adv-x="353" 
d="M55 51q0 13 5 21t16 19q14 -5 22 -9.5t14 -8t12 -5.5t15 -2q0 -11 -3.5 -22.5t-10 -21.5t-15.5 -16t-21 -6q-20 0 -27 17t-7 34zM112 183q-2 -11 -10.5 -15.5t-19.5 -4.5q-10 0 -19 4t-10 11q-11 50 0 87.5t34 66.5t53.5 51.5t57.5 43.5t45.5 43t18.5 50q0 2 -0.5 5.5
t-0.5 4.5q-3 -4 -14.5 -15.5t-15.5 -14.5l-1.5 -0.5t-3.5 -0.5q-1 0 -3 0.5l-2 0.5l-50 20q-3 1 -15 4.5t-28.5 7.5t-35 9t-34.5 9t-26.5 7l-10.5 3l-0.5 2t-0.5 3q0 2 0.5 3.5l0.5 1.5q2 2 10 6t10 4h215v-30q1 3 7 10.5t8 9.5l2 0.5t3 0.5q14 0 15 -13t1 -22
q0 -44 -16.5 -77.5t-40 -61t-50 -51t-46.5 -48t-29 -52t2 -63.5zM33 533q10 -3 17.5 -5t14 -4t14.5 -4l20 -5q15 -4 29.5 -8t27 -7t21.5 -5.5t11 -3.5v1l43 -18q-11 -15 -28 -29t-37 -28q-23 -17 -46.5 -36t-42 -42t-30 -51t-11.5 -64q0 -12 1 -24.5t4 -25.5q3 -12 20 -19
l9 -9q5 -6 14 -9t18 -3q15 0 25.5 6t13.5 21v5q-6 18 -6 33q0 36 24 64.5t54 57.5q19 18 38.5 38t35 43.5t25 51t9.5 62.5v8q0 8 -1.5 16.5t-6.5 13.5l-12 11q-2 8 -8 13t-17 5h-5l-3 3v6h-227q-3 0 -15 -6.5t-16 -10.5q-2 -3 -2 -4v-6v-7t2 -8q2 -1 4 -1t4 -1zM43 51
q0 -18 6.5 -36t23.5 -24l9 -9q11 -11 27 -11q14 0 25 8t18.5 20t11.5 27t4 29l-17 17v6q-17 0 -23.5 1.5t-13.5 5.5q-6 4 -15 9t-25 11q-17 -17 -24 -27.5t-7 -26.5z" />
    <glyph glyph-name="FL0040h" unicode="@" 
d="M157 259q0 2 0.5 5l0.5 3q2 8 4 8q3 0 4 7q10 8 22.5 23.5t25.5 33t24.5 33.5t20.5 25q-3 19 12 19q14 0 19 -15t5 -26v-8q0 -6 -1 -7q-16 -32 -34 -52.5t-33 -33.5t-25 -19.5t-10 -9.5q0 -20 6 -31.5t15.5 -19.5t21.5 -16t24 -22l0.5 -1.5t0.5 -2.5l-1 -3q-1 -1 -1 -10
v-19v-18q0 -8 -1 -8h-6q-20 7 -37.5 26.5t-30 43.5t-19.5 49.5t-7 45.5zM285 144q0 2 0.5 3.5l0.5 1.5q42 5 68 21.5t26 55.5v25q0 12 -1 18t-4 10t-7 8t-10 12q-2 5 -6.5 10.5t-5.5 5.5h-46q-2 0 -6 6l-6 9v2q0 17 11 23t22 6q28 0 47 -9t30 -25q-2 27 -8.5 52t-18.5 44
q-4 7 -11.5 18t-8.5 11h-80q-2 0 -9.5 11.5t-10.5 16.5v7q0 28 18.5 40t38.5 12q85 0 124.5 -53t39.5 -147l-39 -172q-1 -24 -8 -39t-19.5 -22.5t-32 -10t-46.5 -2.5q-4 0 -11 6t-14 14.5t-12 17t-5 13.5zM20 269q0 3 0.5 9.5t0.5 7.5q1 6 3.5 20.5t5.5 31t6 31t5 20.5
q18 16 39.5 45t43 61.5t42 63t35.5 48.5q-5 36 20 36q12 0 20 -8t13 -19.5t7 -25t2 -24.5q0 -3 -0.5 -14t-1.5 -14q-28 -31 -60 -63t-59 -67.5t-45 -76.5t-18 -89q0 -38 11 -73.5t29 -69t39.5 -64t42.5 -58.5q0 -1 0.5 -3t0.5 -3t-0.5 -3l-0.5 -2q-1 -3 -4.5 -7t-5.5 -5h-10
q-35 14 -64.5 50.5t-51 83t-33.5 95t-12 86.5zM145 259q0 -19 6.5 -43.5t18 -48.5t27.5 -44.5t35 -32.5q17 -17 39 -25h6q8 0 9 4.5t1 12.5v34q8 -11 17.5 -20.5t16.5 -13.5l4 -3q15 -15 22 -15q28 0 49 2.5t35 11t21.5 24.5t9.5 43l39 172q0 56 -13 98.5t-40 69.5h-1
q-43 66 -139 66q-5 0 -8.5 -0.5t-7.5 -1.5q-1 17 -6 37.5t-18 33.5l-6 6q-7 12 -17 20.5t-24 8.5q-33 0 -33 -37v-8q-17 -21 -30 -40.5t-27 -39.5q-13 -20 -26.5 -40t-27 -38t-25.5 -33t-22 -24q-2 -6 -4 -17t-4.5 -23.5t-5 -26t-4.5 -23.5q0 -2 -0.5 -3t-0.5 -3q0 -3 -2 -9
v-8q0 -2 -0.5 -3.5t-0.5 -3.5v-6q0 -35 10.5 -80t29.5 -89t45 -82t58 -60q12 -11 24 -19t26 -14h13q3 1 8.5 7.5t7.5 11.5q1 4 1 9q-1 1 -1 2v0v4q-21 28 -42.5 58.5t-39.5 63.5t-29 68.5t-11 72.5q0 39 12 72.5t31.5 63.5t43.5 56.5t49 52.5q6 -9 14 -18t13 -9l12 -12
q5 -5 8 -5h66q2 -7 5 -11q12 -21 19 -55q-26 16 -60 16q-2 6 -4 12.5t-7 11.5l-9 9q-5 9 -12 15.5t-18 6.5q-25 0 -25 -25v-3q-8 -8 -15 -18t-15 -21q-1 -1 -1.5 -2t-1.5 -2q-2 -2 -3 -4t-3 -4q-13 -18 -26 -35t-27 -27v-3q-6 -5 -8 -14q-1 -4 -1 -5v-6zM221 224
q1 -1 3.5 1.5t5.5 4.5q12 8 31 25t39 45l11 -10q4 -4 9 -4h32q2 -2 3 -2q8 -8 10.5 -13.5t2.5 -19.5v-25q0 -33 -25 -47t-65 -19q-2 -3 -2.5 -4l-1.5 -3l-2 3q0 1 -0.5 2t-0.5 3q-8 9 -17.5 17.5t-19.5 14.5q-4 2 -10 6q-3 10 -3 25zM273 139l-3 4v1l3 -4v-1z" />
    <glyph glyph-name="FL0041h" unicode="A" horiz-adv-x="615" 
d="M452 283l-1 1v-1h1zM318 436q-12 -39 -24 -77.5t-26 -76.5q6 1 12 1.5t12 0.5q2 0 5 -0.5t5 -0.5h10q2 0 4.5 -0.5t4.5 -0.5h9q10 0 16.5 3t6.5 13q0 1 -0.5 1.5t-0.5 1.5v3zM411 19q0 17 8.5 20t19.5 5q1 0 2.5 -0.5l1.5 -0.5l-59 155q-13 -2 -23 -10t-20 -17
q-13 -12 -27 -22.5t-35 -10.5q-20 0 -28 8l-11 11q-11 3 -15 10q-19 -45 -39 -88t-44 -86q-7 -10 -22.5 -18t-31.5 -8l-17 17h-6q0 20 -7 30t-15 19l-1 1q0 1 -1 2q-14 14 -23.5 29t-9.5 43q22 0 41 9t34.5 23t28 30.5t21.5 32.5q5 9 18 35.5t27 56.5t27 57.5t18 39.5l7 18
q-20 -22 -46 -22q-16 0 -23 7l-12 11q-14 4 -16 14.5t-2 27.5q0 28 22 45t50 31q12 6 23.5 12.5t20.5 15t14.5 20t5.5 27.5q17 0 28 2.5t22 6.5l2 1q1 0 3 1q1 0 1.5 0.5t1.5 0.5h-1q11 4 21.5 6.5t23.5 2.5h11q0 -3 1 -3l3 -3l-1 -2l2 2q3 -4 6.5 -7t4.5 -7l12 -12
q5 -5 5 -10q0 -14 -2.5 -21.5t-7.5 -12.5q13 -5 24.5 -10.5t19.5 -10.5q0 -1 -0.5 -1.5t-0.5 -2.5l18 -17q-2 -17 -8.5 -37.5t-17.5 -36.5q-14 2 -26 10.5t-23 18.5q-5 3 -8.5 5.5t-7.5 6.5q3 -18 9.5 -40t16 -44t20 -43.5t20.5 -39.5q5 -3 9 -5.5t7 -3.5l1.5 -3t0.5 -3
l15 -15q2 -4 2 -9q0 -4 -1 -8l-11 -11v-1q0 -2 1 -3l83 -167q4 -4 5 -7l10 -9q15 -14 19 -37.5t4 -41.5q0 -23 -5.5 -31.5t-28.5 -8.5q-9 0 -23 2t-29 6.5t-29 11t-23 15.5l-6 6q-13 8 -21 17.5t-8 22.5zM423 19q0 -14 12.5 -24t29.5 -16t35.5 -9t29.5 -3q17 0 21 7t4 24
q0 10 -1 22t-4.5 23t-9.5 20.5t-16 14.5l-90 180l-0.5 2t-0.5 3t0.5 3l0.5 2l10 10l0.5 2t0.5 3q0 2 -0.5 3.5l-0.5 1.5q-2 2 -10 6t-10 4q-12 19 -26 46.5t-26.5 57t-20.5 57.5t-8 49q0 2 0.5 5.5t0.5 4.5q3 -3 10.5 -12t17.5 -19t21 -18.5t21 -10.5q8 12 13 29t7 31
q-7 5 -18.5 10t-23.5 9.5t-22.5 7.5t-15.5 3q-2 0 -10 -5t-10 -5t-6 4t-4 6q5 13 15 15t20 2.5t17.5 6t7.5 26.5q0 2 -4 5t-6 5h-5q-21 0 -44 -10.5t-46 -10.5q0 -18 -10 -31t-25 -23t-33 -18.5t-33 -18t-25 -21t-10 -27.5q0 -14 3 -22.5t18 -8.5q24 0 42 23t33.5 50.5
t30.5 50.5t32 23q0 -2 1.5 -3t0.5 -3l-20 -40l-50 -130q-5 -12 -18 -40t-27 -58.5t-27 -56.5t-18 -35q-9 -17 -22 -35t-28.5 -33t-34 -24.5t-39.5 -9.5q0 -16 9 -28t19.5 -23t19.5 -22.5t9 -26.5q10 0 21 7t16 15q65 117 108.5 239.5t81.5 250.5h10l50 -200q0 -1 0.5 -4.5
t0.5 -5.5q0 -18 -10 -23t-25 -5q-14 0 -31 1.5t-31.5 -2.5t-24.5 -17.5t-10 -43.5q0 -20 2 -30.5t24 -10.5q18 0 31 9.5t25.5 21.5t26 21.5t32.5 9.5q11 0 13 -3.5t7 -17.5l60 -160q2 -2 2 -5q0 -7 -5 -8.5t-11.5 -2.5t-11.5 -3t-5 -10z" />
    <glyph glyph-name="FL0042h" unicode="B" horiz-adv-x="481" 
d="M70 80q4 0 9 17.5t9.5 39.5t8 41t3.5 22q1 7 3 18t3.5 22t2.5 19.5t1 10.5v24q0 17 -0.5 39.5t-1 46.5t-1 47t-0.5 40v25q-1 0 -3 1.5t-3 0.5l-40 -20q-6 1 -8 5.5t-3 10.5t-0.5 11.5t0.5 7.5q0 3 0.5 12.5t0.5 12.5q42 27 87 34.5t93 7.5h14q14 0 32.5 -1t23.5 -1
q20 -14 30.5 -37.5t10.5 -47.5q0 -21 -9 -45.5t-23.5 -46.5t-32.5 -40t-37 -27q33 3 65 2.5t58 -10.5t42 -31.5t16 -60.5q0 -31 -12.5 -71t-34.5 -75.5t-52 -60t-66 -24.5q-20 0 -35 10.5t-25 27.5t-15 37t-5 40q14 0 23.5 -8.5t18 -19t18.5 -19t25 -8.5q20 0 35 23.5
t24.5 53.5t14.5 58t5 36q0 5 -1.5 15t-5.5 20t-9.5 17.5t-13.5 7.5h-140v10q13 15 31.5 41.5t35 57t27 61t7.5 54.5q-2 15 -13 18t-21 3q-23 0 -44.5 -10t-41.5 -21v-16q0 -11 -0.5 -24t-0.5 -25v-15q0 -35 1.5 -72t4 -74.5t4 -74.5t1.5 -70q0 -9 2 -31t0 -45t-10 -40.5
t-28 -17.5q-17 0 -32 8.5t-28.5 21t-24.5 26.5t-20 25h50zM-8 92q12 -12 17 -17.5t8 -9.5q1 -1 1.5 -2t1.5 -2l-1 1q1 -2 2 -2t2 -2q11 -14 24 -28.5t28 -25.5q14 -14 31.5 -24t38.5 -10q22 0 32 17t13 39q13 -19 30 -29l6 -6q21 -21 50 -21q37 0 69 25.5t55.5 62.5
t36.5 78.5t13 73.5q0 52 -27 79l-6 6q-15 25 -42 36t-59 13q23 28 39 61.5t16 63.5q0 22 -8.5 43.5t-25.5 38.5l-1 1q-13 21 -32 34h-7q-3 0 -6 0.5t-6 0.5q-9 1 -21 1h-19h-14q-50 0 -97 -8t-95 -39v-8q0 -3 -0.5 -6.5t-0.5 -5.5v-18q0 -2 -0.5 -3t-0.5 -3q0 -10 3.5 -20
t14.5 -14l13 -12q4 -4 14 -6l13 6q0 -16 0.5 -34t1.5 -37q1 -24 1 -47v-39v-24q0 -2 -1 -10t-2.5 -19t-3.5 -22t-3 -18q0 -3 -2 -20t-5 -37t-6 -36t-5 -16h-78zM234 85l-3 2q-2 2 -2.5 4t-2.5 4q-7 8 -15 15.5t-21 11.5q0 32 -1.5 66t-3.5 69q0 1 -0.5 1.5t-0.5 2.5h139
q2 -9 3.5 -18t1.5 -13q0 -8 -4 -34t-12.5 -53.5t-21 -49.5t-29.5 -22q-12 0 -22 8q-2 2 -2.5 3t-2.5 3zM179 404v15q0 6 0.5 12t0.5 13v34q18 11 37.5 19.5t39.5 8.5h2q0 -1 0.5 -1.5l0.5 -0.5q0 -18 -7.5 -40.5t-19.5 -45.5t-26 -44.5t-27 -39.5q-1 18 -1 35v35z" />
    <glyph glyph-name="FL0043h" unicode="C" horiz-adv-x="425" 
d="M321 -16q0 13 -15.5 30.5t-37 33.5t-43 27t-33.5 11l-20 20q-23 21 -49.5 42t-49.5 45t-38 51t-15 60q0 22 11 52.5t29.5 63.5t42.5 64.5t50 56.5t51.5 40.5t47.5 15.5q11 0 23.5 2t20.5 2q9 0 18 -0.5t16.5 -4.5t12 -13t4.5 -27q0 -14 -21 -28.5t-48 -27.5t-52 -24
t-34 -20q-5 -4 -20 -15.5t-31.5 -24.5t-31 -25t-18.5 -17q-9 -16 -10 -29.5t-1 -30.5q0 -40 21 -69.5t53 -53.5t68.5 -45.5t68.5 -44.5t53 -50t21 -62q0 -14 -4 -29t-12.5 -28t-21 -21t-29.5 -8q0 12 3.5 21t8 18t8 19t3.5 23zM309 -16q0 -11 -3 -19.5t-7 -16.5
q0 -1 -0.5 -1.5t-0.5 -1.5v1q-5 -10 -8.5 -22t-3.5 -33h6l17 -17q21 0 37 9t26.5 23t16 31t5.5 32q0 26 -10 46.5t-27 38.5q-20 29 -53 52.5t-69 46.5q-31 19 -60.5 39t-49.5 43q-16 26 -16 59v5q0 14 1 25.5t9 24.5q4 5 14.5 14t23 19t25.5 20t22 17q5 3 8 5.5t5 4.5
q5 5 20.5 13t35.5 17q18 8 36 17t33 18.5t24.5 20t9.5 21.5q0 17 -3.5 27t-9.5 16l-3 2l0.5 -0.5t1.5 -0.5l-8 8q-8 18 -22.5 21.5t-29.5 3.5h-6q-5 0 -10 -0.5t-10 -1.5q-6 -1 -12.5 -1.5t-11.5 -0.5q-23 0 -50 -16t-54 -42t-52.5 -59t-45 -67t-31 -66t-11.5 -55
q0 -29 10 -52.5t26 -44.5t36.5 -39.5t41.5 -35.5q3 -3 5 -4q1 -2 2 -2.5t2 -1.5q4 -3 7.5 -5.5t6.5 -5.5l2 -2q2 -2 4 -3t4 -3q6 -6 14 -12l19 -19q1 0 2 -0.5t2 -0.5l17 -16q12 0 34.5 -11.5t43.5 -27.5q10 -9 16 -17.5t6 -16.5zM92 160v-1q1 0 1 -1q-2 2 -5 4.5t-5 5.5
l-4 4l-4 4z" />
    <glyph glyph-name="FL0044h" unicode="D" horiz-adv-x="471" 
d="M80 90q-8 0 -8 -10t8 -10t8 10t-8 10zM89 65q0 -11 9 -13.5t17 -2.5q10 0 17 1t13.5 3.5t14.5 6.5l20 10q61 28 94 55.5t47.5 62.5t16.5 81t2 111q0 25 -3 50.5t-12.5 45.5t-27.5 32.5t-48 12.5q-14 0 -32.5 -1.5t-36 -6t-31.5 -12.5t-19 -21v-16q0 -11 -0.5 -24
t-0.5 -25v-15q0 -62 10.5 -123t10.5 -123q0 -18 -9.5 -33t-21 -26t-21 -18.5t-9.5 -11.5zM30 30q0 18 3.5 23.5t9.5 8t13 7t14 21.5q1 2 -4 10t-6 10v5v5q17 88 22.5 173t5.5 176q-15 0 -29.5 -9.5t-28.5 -9.5q-1 0 -4.5 4t-5.5 6v5q0 40 17.5 58t52.5 27q0 3 1 11.5
t2.5 18.5t3.5 18.5t3 11.5q1 2 4.5 5.5t5.5 4.5q2 0 6 -4t4 -6q0 -3 -0.5 -9.5t-1.5 -14.5t-1.5 -15t-0.5 -10q29 0 57 5t57 5q58 0 93.5 -23t55 -60.5t26 -84t6.5 -93.5t-3.5 -86t-16.5 -71t-39.5 -57.5t-71.5 -45.5q-11 -5 -30.5 -13.5t-38.5 -16.5t-34 -14t-17 -6
q-1 0 -13 -0.5t-18 -0.5q-5 0 -21 1t-33.5 4t-31 9t-13.5 17zM18 30q0 -9 6 -15.5t15 -11.5l9 -8q8 -8 23 -13t31 -7.5t29 -3.5t18 -1t13.5 0.5t13.5 0.5h4q2 0 14 4.5t28.5 11.5t34.5 14.5t32 13.5q5 2 8.5 3.5t6.5 3.5q47 21 74.5 47.5t41 59.5t17 73t3.5 88
q0 61 -11.5 120t-47.5 99q-22 33 -58 53.5t-93 20.5q-24 0 -45 -3q-4 -1 -7 -1t-7 -1h1l-12 -2l-12 -2q1 5 1 9v7q0 5 -6 10l-11 11q-2 5 -11.5 13t-14.5 8q-3 -1 -10.5 -9t-9.5 -13h1q-2 -8 -4 -23t-4 -28q-36 -11 -53.5 -31.5t-17.5 -62.5v-9l8 -8q4 -5 5.5 -6t7.5 -4h1
l10 -10q3 -3 6.5 -5l3.5 -2q12 0 26 6q-2 -78 -8 -153t-20 -151v-14q2 -5 3 -6t4 -6q1 -5 3 -6q-7 -13 -13 -16q-13 -4 -20 -11.5t-7 -33.5zM179 134q0 32 -3.5 62.5t-7.5 61.5t-7 61t-3 61v15q0 6 0.5 12t0.5 13v40q5 10 18 16.5t29.5 10t33 4.5t29.5 1q20 0 36 -8
q14 -19 18.5 -47t4.5 -57v-23q0 -56 -3 -96.5t-17.5 -72t-45 -56.5t-85.5 -50l-18 -9q-5 -2 -8.5 -3.5t-6.5 -3.5q13 13 24 29.5t11 38.5z" />
    <glyph glyph-name="FL0045h" unicode="E" horiz-adv-x="574" 
d="M141 132q3 27 4.5 42t3 26.5l3 23t3.5 30.5q2 20 3 32q0 5 -0.5 18.5t-1.5 29.5v6q0 2 -0.5 3t-0.5 3q-1 -1 -3 -1q-14 -5 -27.5 -10.5t-21.5 -7.5h1l-22 -11h-15q-2 1 -3.5 2t-3.5 3l-12 12h-2q-5 2 -11.5 10.5t-8.5 13.5q20 33 42.5 42t42.5 12q17 2 31.5 11t19.5 44
q-9 -2 -18.5 -4.5t-17.5 -4.5q-18 -5 -37.5 -9.5t-47.5 -4.5l-17 17h-6v29q1 1 9 5.5t18.5 10.5t21.5 12t18 9q76 34 158.5 54.5t172.5 20.5v-6l8 -9q6 2 11 2q12 0 18 -5t8 -13l11 -11q6 -6 7 -15t1 -17v-2q0 -16 -3.5 -24.5t-11 -12.5t-20 -5t-30.5 -1l-17 17h-6
q0 2 -0.5 5.5t0.5 8.5q-23 -10 -52.5 -12.5t-55.5 -2.5h-24q-10 0 -18 -2q-3 -3 -3 -4v-7q0 -4 0.5 -15t2.5 -23q11 0 22 1.5t23 3.5l32 4t33 2h7q2 0 4.5 0.5t5.5 0.5q16 0 32.5 -5t20.5 -19l12 -11q6 -6 6 -14q0 -3 -1 -7q-2 -3 -8.5 -10t-14 -14.5t-14.5 -14t-10 -8.5h-6
q-17 0 -33 1t-33 2q-33 3 -68 3q0 -27 2.5 -54.5t6.5 -54.5q3 -29 6 -58.5t3 -60.5q0 -8 -1 -14.5t-3 -13.5q72 17 142 25.5t118 8.5v-6l17 -17q0 -14 -5.5 -29.5t-14.5 -30t-20 -26t-21 -15.5q-1 0 -2.5 -0.5t-2.5 -0.5q-11 0 -22 11h-38q-7 0 -13 0.5t-12 0.5h-17
q-38 0 -68.5 -3t-59.5 -9t-59.5 -15.5t-67.5 -23.5q3 0 -3 -2q-6 -3 -14.5 -7t-17 -8.5t-15.5 -8t-8 -4.5q-4 -1 -7 -1q-4 0 -8 1q-3 1 -9 7l-9 9q-1 0 -1.5 0.5t-1.5 0.5q-4 2 -10 8t-8 11l2 10q20 26 61.5 47.5t93.5 38.5l-7 8l-3 2q-17 9 -30 28zM435 576q-11 0 -17.5 -8
t-9.5 -19t-3.5 -21.5t-0.5 -16.5q26 0 36.5 4.5t10.5 29.5q0 9 -1.5 20t-14.5 11zM140 115q8 -11 20 -16t25 -5q27 0 41.5 17t14.5 43q0 60 -9 118.5t-9 118.5q43 0 75 -3t68 -3h4q3 2 8.5 7.5l12 12l12 12t7.5 8.5l0.5 2t0.5 3q0 8 -8.5 11.5t-19.5 4.5t-20.5 0.5
t-10.5 -0.5q-32 0 -63.5 -5.5t-63.5 -5.5h-5q-1 3 -3 13t-3.5 21.5t-2.5 22t-1 13.5v6v4q1 2 4.5 5.5t5.5 4.5q16 3 47 2.5t61.5 3.5t53 16.5t22.5 41.5q-81 0 -160 -20.5t-154 -53.5q-7 -3 -17 -8t-19.5 -9.5t-16.5 -8.5l-7 -4v-13q19 0 37 4.5t36 9.5t36 9.5t38 4.5
q0 -38 -6.5 -57.5t-17.5 -29t-25 -11.5t-29.5 -5.5t-30.5 -12t-28 -29.5q1 -2 4.5 -5.5t5.5 -4.5h5h5l20 10q6 2 17.5 6.5t24.5 9.5t24 9t14 5q1 0 3 -1t3 -1q0 -6 0.5 -19.5t1.5 -29.5t1.5 -29.5t0.5 -19.5q-2 -17 -4.5 -43.5t-5.5 -52t-6 -44.5t-4 -20zM20 -15
q1 -2 4.5 -5.5t5.5 -4.5l2 -0.5t3 -0.5t3 0.5l2 0.5l11 5.5t19.5 10t19 9.5t10.5 5q37 14 67.5 23.5t59.5 15.5t59.5 9t68.5 3h17q12 0 25.5 -0.5t25.5 -0.5h17q1 -4 8.5 -8t11.5 -2q9 4 19 13.5t17.5 21.5t12.5 24.5t5 23.5q-33 0 -77 -4t-92.5 -12.5t-98.5 -20.5
t-94 -27.5t-79 -35.5t-53 -43z" />
    <glyph glyph-name="FL0046h" unicode="F" horiz-adv-x="536" 
d="M436 620q5 0 16 -1t13 -1l10 -10l-3 -6t-8 -14t-10 -16.5t-9 -13.5q-1 -2 -4.5 -5.5t-5.5 -4.5q-35 10 -68 10.5t-68 0.5q-36 0 -65.5 -3t-58 -9t-58 -15.5t-65.5 -22.5l-20 -10q-1 0 -6 -1t-6 -1q0 17 27 32.5t68.5 29.5t91.5 25t96 19t82.5 12.5t50.5 4.5zM102 39
q11 -11 19 -16t21 -5q2 0 5.5 0.5t4.5 0.5q1 10 2.5 31t3.5 47.5t4 56t4 56t3.5 48t2.5 31.5v20q0 10 -0.5 22t-1 23.5t-1 20.5t-0.5 14h-49q0 10 7.5 16.5t17 11t19 7.5t13.5 5v100q0 3 6 5.5t13.5 3.5t14.5 1.5t9 0.5v-100q51 0 100.5 5t100.5 5q0 -9 -4.5 -20t-12 -20.5
t-16 -15.5t-17.5 -6q-37 0 -72 3.5t-72 3.5q0 -88 4.5 -174.5t4.5 -174.5v-25q0 -20 -1 -48.5t-4.5 -54t-11 -43.5t-19.5 -18q-14 0 -28 21t-27.5 49.5t-27 57.5t-25.5 44zM436 632q-14 0 -51.5 -5.5t-85 -15t-99 -23t-94.5 -29.5t-70.5 -35t-27.5 -39h6l17 -17h13q3 0 5 1
q2 0 3 0.5t2 0.5l22 11h-1q26 9 48 16.5t42 12.5v-72q-9 -3 -19 -7.5t-18.5 -11.5t-14 -17.5t-5.5 -24.5h6l17 -17h27q1 -13 1.5 -26.5t0.5 -24.5v-19q-2 -15 -4.5 -52.5t-5.5 -80.5q0 -4 -0.5 -8t-0.5 -8q-2 -32 -4.5 -61.5t-4.5 -49.5q-9 0 -17 5.5t-21 19.5l-26 -26
q14 -17 23 -33.5t17 -35.5q1 -2 2 -4.5t2 -4.5q8 -17 16.5 -33.5t17 -30.5t17.5 -24.5t18 -14.5l8 -8q12 -12 23 -12q15 0 24 19t13.5 46t6 57t1.5 51v25q0 44 -1.5 87t-3.5 87q-2 42 -3 83t-1 83q15 -1 30.5 -2t31.5 -2q36 -3 73 -3q10 0 20.5 8t19 20t14 26t5.5 26l-17 17
v6q-23 0 -51 -1t-51 -3q-3 0 -6 -0.5t-6 -0.5q-17 -2 -34.5 -3.5t-35.5 -1.5v74q16 2 33 3t37 1h17q29 0 57.5 -1.5t62.5 -10.5q5 2 11 8t7 9h-1q4 7 8.5 17t8 19.5t5 16.5t0.5 8l6 -2l-19 18l2 3l-15 15h-4q-2 0 -4 0.5t-4 0.5q-5 1 -12 1h-9zM451 550l2 2z" />
    <glyph glyph-name="FL0047h" unicode="G" horiz-adv-x="557" 
d="M338 55l4 -5v1zM9 194q0 2 -0.5 4t-0.5 4v8q0 53 17.5 108t34.5 100q6 8 20.5 29.5t31.5 46t33 47.5t24 35h-2q7 11 11.5 17.5t9 9.5t10.5 3.5t17 0.5q8 0 20.5 -3t25.5 -8t24 -13.5t16 -18.5l10 -9q10 -10 10 -22t-20 -28.5t-43 -34.5q-17 -13 -31 -23.5t-19 -18.5
q-90 -117 -90 -259v-9q0 -6 0.5 -13.5t0.5 -15.5t0.5 -15.5t0.5 -12.5v-7q1 -2 2 -4.5t2 -4.5q18 -19 41.5 -25.5t57.5 -6.5q25 0 45.5 16t35.5 40.5t25 54.5t15 57q-28 -7 -54.5 -25.5t-46.5 -32.5h-24l-17 17h-6q0 22 9.5 38t25 27t34.5 19t38 15q3 1 5.5 2t5.5 2
q12 5 22.5 9t16.5 8q3 5 3.5 6t3.5 6q2 4 4.5 7t4.5 6q2 5 9.5 11.5t12.5 8.5q19 -10 22 -20l1 -1h95q0 -2 -0.5 -3t-0.5 -3l18 -17q0 -12 -6 -25.5t-14.5 -25t-19 -19.5t-19.5 -8h-6q-3 0 -10.5 1.5t-14.5 3.5h-1q-5 2 -9 2.5t-6 1.5v-4q0 -5 -0.5 -12.5t-0.5 -11.5
q0 -79 31 -150q0 -2 2.5 -5t5.5 -7q5 -7 8.5 -12.5t3.5 -7.5v-3q0 -2 0.5 -4t0.5 -4q0 -6 -8.5 -14.5t-19.5 -16t-22 -13t-15 -5.5q-9 0 -17 8l-10 10q-13 4 -20 17t-12 29q-11 -10 -24.5 -21t-28 -20.5t-29.5 -15.5t-29 -6q-42 0 -76 14t-60 38q-42 29 -65.5 75t-25.5 102z
M21 194q2 -41 16.5 -77.5t39.5 -63.5t60 -43t79 -16q16 0 34 9.5t35 22t31.5 26t24.5 22.5h10q1 -5 3 -18.5t6 -27.5t10.5 -24.5t15.5 -10.5q4 0 13 4.5t18.5 10.5t17 13t7.5 12q0 2 -0.5 6t-0.5 5t-3 5.5t-7 9.5t-7 9.5t-3 5.5q-16 36 -23.5 74.5t-7.5 77.5q0 5 0.5 16
t0.5 12q0 2 4 6t6 4q1 0 7 -1.5t12.5 -3.5t12.5 -3.5t8 -1.5h6q7 0 16 6t16.5 15t12.5 19.5t5 19.5h-98q0 4 1 6.5t1 4.5q0 5 -10 9q-2 -1 -5.5 -4.5t-4.5 -5.5q-1 -1 -4 -5.5t-6 -9.5t-6 -9.5t-4 -5.5q-14 -10 -39.5 -19t-51 -19.5t-44 -25t-18.5 -36.5h13q12 9 26.5 19.5
t31 20t33.5 15.5t34 6q2 0 7.5 -0.5t7.5 -0.5q-2 -27 -11 -63.5t-25.5 -69.5t-42 -55.5t-59.5 -22.5q-48 0 -78.5 14.5t-53.5 56.5q0 4 -0.5 14.5t-0.5 22.5t-0.5 23t-0.5 15q0 146 92 265q7 9 25.5 23t37.5 29t33.5 28t14.5 19q0 10 -9 18t-21.5 13t-25.5 8t-21 3
q-14 0 -19 -3t-15 -18q-6 -9 -21.5 -32t-33.5 -48.5t-33.5 -48t-21.5 -31.5q-9 -24 -18.5 -51.5t-17 -56t-12 -57t-2.5 -55.5z" />
    <glyph glyph-name="FL0048h" unicode="H" 
d="M406 597q0 1 -1 1zM291 -62q11 14 29.5 22t39.5 14q23 7 41.5 14t18.5 23v3q-8 1 -15 6q-14 5 -28 11t-25 17l-5 4q-16 10 -27 25.5t-11 43.5v198q-19 -1 -43.5 -3t-46 -6t-36 -10.5t-14.5 -16.5q0 -26 5 -53t11 -53t11 -53t5 -56q0 -17 -7.5 -35t-20.5 -33t-30.5 -25
t-38.5 -10l-17 17h-6q0 67 -1.5 129.5t-7.5 129.5l-21 -10q-3 1 -7 4t-7 6l-8 7q-5 3 -11.5 9t-8.5 10q-1 4 -1 9q0 16 7.5 22.5t18.5 12.5h1t2 1q12 6 24.5 17t17.5 46q1 4 1.5 8t1.5 9q3 23 8 60.5t11.5 73t14 61.5t15.5 26q14 0 23 -8t14 -19l8 -7q8 -8 11.5 -18t3.5 -20
q0 -21 -3.5 -38.5t-7.5 -34.5q-5 -18 -8 -36t-3 -36v-23l147 49l3 3v40q0 20 2 42t8 43.5t18.5 40.5t33.5 34q5 -4 16.5 -15.5t15.5 -16.5q0 -2 0.5 -2.5l0.5 -0.5l2 -2q5 -5 8.5 -9t5.5 -6q1 -4 1 -7t-1 -7q-2 -5 -3 -6t-4 -3q-4 -3 -8.5 -7l-4.5 -4q-1 -2 -2.5 -11t-3 -20
l-3 -22t-1.5 -15v-14q0 -11 -0.5 -16.5t-0.5 -12.5h47v-6l17 -17q-1 -23 -3 -36q-6 -31 -17 -38.5t-24 -7.5h-18q0 -2 -1 -4v-32q0 -6 -0.5 -11.5t-0.5 -10.5v-14q0 -44 4 -80t16 -74q19 -6 33.5 -15t22.5 -25l6 -5q9 -9 14.5 -22t5.5 -33q0 -30 -18 -50t-44 -32t-54 -17.5
t-49 -5.5h-8q-3 1 -9 7l-10 10h-2q-4 2 -10 8t-8 11zM301 -69q1 -2 4.5 -5.5t5.5 -4.5h5q19 0 46 5t51.5 16t41.5 29.5t17 45.5q0 36 -20.5 51t-50.5 23q-19 47 -25 88t-6 92v14q0 10 0.5 21.5t0.5 20.5v14q3 11 11 11h17q10 0 18.5 6.5t13.5 32.5q1 6 1.5 15.5l0.5 9.5h-59
q0 2 -1 14.5t-2 31t0 29.5q0 5 1.5 16t3 22.5t3 20.5t2.5 11q0 1 3 4l6.5 6.5t6.5 6t4 3.5l0.5 2t0.5 3t-0.5 3l-0.5 2q-2 3 -9.5 10.5t-10.5 9.5q-22 -15 -32.5 -39.5t-14.5 -51.5t-3.5 -53.5t0.5 -45.5l-10 -10l-180 -60v13q0 9 -0.5 19.5t-0.5 19.5v13q0 19 3.5 37.5
t7.5 36t7.5 35t3.5 36.5q0 13 -7.5 26.5t-23.5 13.5q-3 0 -7 -15t-8 -38t-8 -51t-7.5 -53.5t-6 -45.5t-3.5 -27q-5 -32 -16.5 -45.5t-23.5 -20t-21.5 -11.5t-9.5 -18q0 -1 0.5 -3l0.5 -2q1 -2 4.5 -5.5t5.5 -4.5l40 20h5h5q8 -75 10 -143.5t2 -143.5q17 0 31.5 9t25 23
t16.5 30.5t6 31.5q0 27 -5 54t-11 53.5t-11 53t-5 54.5q0 17 25 26t57 13.5t61 5t38 0.5v-227q0 -21 8 -34t20.5 -21.5t27 -13t27 -10t20.5 -12.5t8 -19q0 -20 -16.5 -29.5t-38 -16t-43.5 -13.5t-33 -21z" />
    <glyph glyph-name="FL0049h" unicode="I" horiz-adv-x="218" 
d="M20 62q14 0 23.5 -6.5t23.5 -6.5q15 0 21.5 18t8.5 41.5t1 45.5t-1 31v16q0 10 -0.5 20.5t-0.5 18.5v10q-1 18 -2 44.5t-2.5 56t-2.5 59t-2.5 53t-2 38.5l-0.5 15l-20 20q1 2 4.5 5.5t5.5 4.5q3 2 11.5 6t18.5 9t18.5 9t11.5 6l2 0.5t3 0.5q11 0 13.5 -9t2.5 -17
q0 -12 -5.5 -18t-13 -10t-14 -9.5t-8.5 -17.5q3 -11 9.5 -43t13 -69t12 -69.5t7.5 -44.5q0 -3 1 -25.5t1 -45.5v-24v-19q0 -9 -0.5 -20.5t-0.5 -22.5t-0.5 -20t-0.5 -13q-8 -28 -22.5 -51.5t-47.5 -28.5q-11 -2 -22.5 3.5t-21.5 15t-16 21t-6 22.5zM8 63q0 -17 13 -36
t30 -30l4 -3q10 -10 22.5 -16.5t23.5 -6.5h6q37 6 53 31t25 55v11q0 5 0.5 11t0.5 14q0 6 0.5 12t0.5 12v62q0 17 -0.5 35t-1.5 28v9q-2 11 -7 43.5t-12 69t-13.5 69t-9.5 44.5q4 11 16 18q9 5 17 12t8 24q0 8 -1.5 16t-6.5 13l-12 11q-2 8 -8 13t-17 5q-3 0 -7 -1
q-2 -2 -12 -6.5t-21 -9.5q-6 -3 -12 -6.5t-11 -5.5q-3 -2 -6 -3.5l-3 -1.5l1 -1q-6 -5 -11 -10.5t-7 -9.5l22 -23q1 -10 1 -16t1 -23q1 -23 2.5 -53.5t3 -62t2.5 -59.5t2 -47v-39q0 -3 0.5 -5.5t0.5 -4.5v-43q0 -5 0.5 -9.5t0.5 -9.5q0 -13 -0.5 -27t-3 -25t-6 -18.5
t-9.5 -7.5q-9 0 -19 5q-2 1 -3 1t-3 1l-10 4t-13 2z" />
    <glyph glyph-name="FL004Ah" unicode="J" horiz-adv-x="441" 
d="M102 192l17 -17v-31q10 24 24.5 43.5t31.5 19.5q10 0 20 -5.5t19 -13.5t17 -16.5t13 -14.5q0 -1 -1 -1v0q4 -4 10 -12q7 4 11.5 6.5t8.5 4.5q9 3 12 8.5t3 11.5v50q0 4 -0.5 13t-1.5 23q-1 11 -1.5 25t-1.5 28q-2 30 -3.5 56.5t-1.5 34.5q0 10 0.5 24t2 29t3 29.5
t3.5 26.5q-24 -15 -44.5 -36t-36.5 -40l-5 -2.5t-3 -0.5q-3 -1 -8 -1q-10 0 -19 7l-12 11q-13 5 -17.5 17.5t-4.5 25.5q0 33 19 53t46 31.5t58 15t55 3.5h4q2 0 5.5 -0.5t7.5 -0.5h25q3 -8 6 -9t6 -3q1 -1 2 -1q7 -4 12.5 -8t7.5 -12l9 -8h-1l4 -3q7 -7 7 -21q0 -2 -0.5 -6
t-0.5 -7v-6q-2 -8 -6 -34t-9 -56q-5 -29 -9.5 -54.5t-5.5 -33.5q0 -3 -0.5 -7t-0.5 -9q0 -17 1.5 -42t3.5 -49v-11t1 -10h8v-6l17 -17v-32l-66 -66h-11q-11 -8 -33.5 -23.5t-47.5 -32.5t-46.5 -32t-29.5 -21q-3 -2 -12 -6.5l-19 -9.5l-19 -9.5t-12 -5.5h-6q-2 0 -3.5 -0.5
t-3.5 -0.5q-17 0 -23 7l-13 12q-13 5 -15 17t-2 26v4q0 24 7 36t20 18l-1 1q-9 5 -14 13q-7 7 -11 12t-9 12t-12 17.5t-19 29.5v25q1 0 2.5 0.5t3.5 0.5q2 1 5 1.5t5 1.5q11 5 28 10.5t25 7.5h15q2 0 5.5 0.5t4.5 0.5v-6zM175 195q-12 0 -22.5 -12t-19 -28t-13 -33t-4.5 -27
h24l9.5 5.5t23 13.5t26.5 16.5t21 14.5q2 1 5.5 4.5t4.5 5.5q-8 10 -23.5 25t-31.5 15zM90 186q-2 0 -5 -0.5t-5 -0.5q-7 -2 -17 -5t-19.5 -6.5t-16.5 -6l-7 -2.5v-10q1 -2 9.5 -14t20.5 -29.5t20 -26.5q5 -6 8.5 -9t11.5 -3v113zM59 11q0 -14 2 -25.5t19 -11.5q2 0 5.5 0.5
t4.5 0.5q3 1 12 5t18.5 9t18 9.5t11.5 6.5q9 6 31.5 21.5t48 33.5t48.5 33.5t32 21.5h10l60 60v20h-23q0 9 -1.5 31.5t-3 48t-2.5 48.5t0 32q1 7 5.5 33.5t9.5 56.5t9.5 56.5t5.5 33.5q0 1 0.5 7.5t0.5 9.5q0 8 -3.5 12t-8 6.5t-10 5.5t-9.5 9q-4 0 -17.5 0.5t-17.5 0.5
q-23 0 -51.5 -3.5t-54 -13t-43 -27.5t-17.5 -47q0 -11 4 -21.5t17 -10.5q2 0 5.5 1t4.5 1q14 16 31 33.5t36.5 32.5t41.5 24.5t46 9.5h5l-40 -30q-1 -1 -3 -16t-3.5 -35t-2.5 -42t-1 -37q0 -7 1.5 -33.5t3.5 -56.5t3.5 -56.5t1.5 -33.5v-35q0 -13 -0.5 -26t-19.5 -19
l-28 -14t-42.5 -21.5t-42.5 -21t-27 -13.5q-16 -7 -30.5 -10.5t-26 -9t-18 -15.5t-6.5 -29z" />
    <glyph glyph-name="FL004Bh" unicode="K" horiz-adv-x="450" 
d="M275 153l4 -4l4 -4l-4 4zM48 46q1 12 1.5 23.5t0.5 23.5q0 57 -6.5 113.5t-14.5 113.5q-1 5 -1 9t-1 9q-7 51 -13 102t-6 103q0 14 9 28.5t22.5 26.5t28.5 19.5t27 7.5q11 0 20 -7t13 -18l8 -7q13 -13 13 -30q0 -8 -1.5 -19t-3 -22.5t-3 -20t-2.5 -11.5q0 -3 0.5 -6.5
t0.5 -8.5q1 -8 1 -17v-20q19 27 42.5 54t47 51t46 45t40.5 37v-3q8 4 13 4q13 0 21.5 -7.5t14.5 -18.5l7 -7q5 -5 8 -11l32 16q-2 -3 -4 -9l18 -18q-12 -28 -26 -48t-30 -34t-32.5 -24.5t-33.5 -19.5q-20 -11 -39.5 -23t-34.5 -27.5t-24 -36.5t-9 -50q0 -31 9.5 -56
t25.5 -48q9 -11 18 -21t19 -20q14 -14 26.5 -28.5t24.5 -30.5q29 -33 49 -71.5t20 -91.5q0 -15 -2 -31t-9.5 -29t-21.5 -21.5t-38 -8.5l-17 17h-6q0 21 2 31.5t4 18.5v-1q0 2 0.5 3t0.5 3q2 8 4 15t2 14q0 26 -9.5 50.5t-25.5 48t-35.5 46t-40.5 45.5q-15 16 -30 33t-29 34
v-47q0 -7 -1.5 -24t-3 -36.5t-3.5 -37.5t-3 -26q-1 -2 -4 -6.5t-6.5 -10t-7 -10t-6.5 -7.5q-4 -2 -9 -2q-4 0 -8 1q-3 1 -9 7l-9 9q-2 0 -3 1q-5 2 -10.5 7.5t-7.5 10.5v8zM60 42q1 -2 4.5 -5.5t5.5 -4.5l2 -0.5t3 -0.5q2 0 3.5 0.5l1.5 0.5q3 3 10.5 14.5t9.5 15.5
q1 7 3 24t3.5 36t2.5 36t1 24v16q0 11 -0.5 25t-0.5 29v28q18 -42 53.5 -81t70.5 -78t61.5 -80.5t26.5 -88.5q0 -22 -6.5 -37t-6.5 -35q18 0 28.5 7.5t16 19.5t7 26t1.5 28q0 42 -14 75.5t-35.5 61.5t-46.5 53t-46.5 51.5t-35.5 57t-14 68.5q0 37 13 61.5t33.5 42t46 31
t50 28t45.5 33.5t33 48l-20 -10q-3 6 -6.5 15t-8 17.5t-10.5 14t-15 5.5q-2 0 -5.5 -0.5t-4.5 -1.5q-24 -21 -54.5 -50t-60.5 -62t-56 -68.5t-40 -69.5l2 53q2 33 0.5 59t-1.5 38q1 3 2.5 11.5t3 19.5l3 22t1.5 18q0 11 -7 20.5t-18 9.5t-24 -6.5t-24 -16.5t-19 -22.5
t-8 -24.5q0 -62 8 -124t16.5 -124.5t14 -125.5t1.5 -127z" />
    <glyph glyph-name="FL004Ch" unicode="L" horiz-adv-x="501" 
d="M220 590q8 0 8 -10t-8 -10t-8 10t8 10zM210 550q8 0 8 -10t-8 -10t-8 10t8 10zM200 530q8 0 8 -10t-8 -10t-8 10t8 10zM39 19q0 11 5.5 14t5.5 12q0 25 -4.5 48.5t-10.5 47.5t-10.5 48.5t-4.5 50.5q0 4 1.5 18.5t3.5 31.5t3.5 31.5t1.5 18.5v10q1 6 5 23t9 36t9.5 36.5
t6.5 24.5q3 12 11 40t18.5 57t21.5 51.5t19 22.5q13 0 27.5 -7.5t26 -19t19 -26t7.5 -28.5q-17 -22 -39.5 -55.5t-42.5 -71t-34 -75.5t-14 -68v-210l10 -20q64 48 144 79.5t161 31.5q4 0 17.5 -0.5t17.5 -0.5q8 -3 9.5 -8.5t1.5 -11.5q0 -12 -3.5 -27t-10.5 -29t-16 -26
t-21 -18l-30 30l-5.5 0.5t-12.5 0.5t-14.5 0.5t-11.5 0.5q-28 0 -50.5 -2.5t-44 -7.5t-43.5 -13t-48 -19q-6 -2 -20 -10t-20 -10q-1 -1 -5.5 -4t-9.5 -6.5t-9.5 -6.5t-5.5 -3q-14 -3 -17.5 4t-3.5 15zM220 602q-6 0 -10 -2q-1 0 -1 1l-7 7q-14 20 -33.5 32.5t-38.5 12.5
q-11 0 -24 -23.5t-25 -54.5t-21 -60.5t-12 -41.5q-2 -7 -6.5 -24.5t-9.5 -36.5t-9 -36t-5 -23v-12l-5 -50q-2 -17 -3.5 -32t-1.5 -19q0 -29 4.5 -54t10.5 -49q1 -2 1 -5t1 -5q5 -21 9 -41.5t4 -40.5q0 -2 -0.5 -2.5l-0.5 -0.5q-5 -5 -7.5 -9.5t-2.5 -13.5q0 -11 2.5 -20
t14.5 -11l12 -12q4 -6 17 -6q7 0 10 1l-1 1q5 2 15.5 9.5t15.5 10.5q3 2 9.5 5t11.5 5l20 10h-1q26 10 47.5 18t42.5 13t43.5 7.5t49.5 2.5h9q4 0 8.5 -0.5t8.5 -0.5h9l18 -17h1q0 1 1 1l18 -17q14 7 25 20.5t19 29t12.5 32t4.5 29.5q0 5 -0.5 10.5t-5.5 10.5l-3 2h1l-10 10
q-2 5 -6 10t-15 9h-19q-4 0 -7.5 0.5t-5.5 0.5h-4q-74 0 -148 -27t-138 -70v184q0 23 8.5 50.5t22.5 57t30.5 58t33.5 53.5l4 -4q4 -4 12 -4q17 0 17 19v2q10 3 10 18q0 10 -5 15l-3 3v3h1q17 0 17 19q0 10 -5 15l-13 12q-3 15 -19 15z" />
    <glyph glyph-name="FL004Dh" unicode="M" horiz-adv-x="703" 
d="M269 55q0 2 0.5 3.5l0.5 1.5q1 1 5.5 2.5t9.5 2.5t9.5 2.5t5.5 2.5q6 9 11 34.5t8.5 58.5t5.5 70.5t3.5 71.5t2 61t0.5 39v14q0 11 -0.5 23t-0.5 23v15q-2 10 -13 10.5t-17 0.5q-33 0 -66 -9.5t-64 -21.5q19 -33 30 -59.5t11 -63.5q0 -17 -1 -44.5t-5 -59.5t-11 -65
t-19 -59t-29.5 -43t-41.5 -17q-5 0 -16 0.5t-22 2.5t-19 7.5t-8 15.5q0 6 8 9.5t18.5 7t20.5 8t14 10.5q15 27 23.5 61t13.5 69.5t7.5 69t5.5 60.5v5q0 33 -5.5 50t-15.5 24.5t-23 9.5t-27 5t-29.5 10.5t-29.5 25.5q0 2 4 6t6 4q1 0 5.5 -1.5t9.5 -3.5t9.5 -3.5t5.5 -1.5h10
h10l52.5 10t65 13t66 14t56.5 13q-2 1 -10.5 3t-17.5 5t-16 7t-7 10q0 9 11 12.5t21 3.5h10q12 0 21.5 -5t18.5 -10.5t18 -10.5t20 -5q25 0 50.5 4.5t51 10.5t50.5 10.5t50 4.5q11 0 17 -7t9 -17.5t3.5 -21.5t0.5 -20q0 -11 -3.5 -17.5t-16.5 -6.5q-20 0 -40.5 5t-40.5 5
h-10l25 -40v-250l3 -8.5t6.5 -20t8 -23t7.5 -18.5q9 -20 22.5 -27t33.5 -7h27q0 -12 -5.5 -27t-15 -28.5t-21.5 -22.5t-25 -9q-30 0 -50 18.5t-32.5 45.5t-18 56.5t-5.5 50.5q0 6 0.5 26t2 47t2.5 57t2.5 57t2 47t0.5 26v6v4q-1 5 -4.5 20t-5.5 20h-9q-6 0 -13.5 0.5
t-13.5 0.5h-9h-38q-20 0 -37 -11l30 -60v-400q0 -6 -4 -13t-10 -13t-13 -10t-13 -4t-18 6t-24 14.5t-20.5 18t-8.5 16.5zM257 55q0 -9 11.5 -21.5t25.5 -23.5h1q7 -7 16.5 -14t18.5 -12.5t17 -9t13 -3.5q7 0 16 5t16 12t12 15.5t5 16.5v402l-27 54q12 6 25 6h47q2 0 5 -0.5
t6 -0.5q2 -4 2 -7q0 -2 1 -4v-10q0 -5 -0.5 -18t-1.5 -31q-1 -17 -1.5 -38t-1.5 -43t-2 -43.5t-1.5 -39t-1 -30.5t-0.5 -17q0 -18 4 -42.5t12.5 -48.5t22 -45.5t33.5 -33.5l4 -4q26 -26 62 -26q15 0 28.5 11t24 27t17 34t6.5 33l-17 17v6h-39q-19 0 -30 7q-4 8 -8 23t-8 29
q-1 2 -1.5 4t-4.5 10v252l-17 28q7 -1 15 -2.5t16 -2.5q22 -5 43 -5q19 0 24 8.5t5 24.5q0 14 -2.5 34.5t-13.5 31.5l-9 9q-5 10 -12.5 16.5t-21.5 6.5q-24 0 -45.5 -3.5t-44.5 -8.5q-3 -1 -6.5 -1.5t-6.5 -1.5q-26 -6 -51 -10.5t-48 -4.5q-9 0 -16 3.5t-14 8.5
q-11 7 -22.5 13t-25.5 6h-10q-14 0 -29 -6t-15 -22q0 -8 5 -13.5t13 -9.5q-25 -6 -52.5 -11.5t-54.5 -11t-51 -10t-41 -7.5h-16q-4 0 -13 4h-8q-3 1 -6 1.5l-3 0.5v4q-5 0 -13.5 -10t-8.5 -15q9 -12 18 -20t17 -13h1q18 -18 34.5 -23.5t31.5 -7.5q8 -1 19 -5q4 -8 6.5 -20.5
t2.5 -32.5v-4q-2 -11 -2.5 -22t-1.5 -23q-2 -26 -5 -53.5t-7.5 -54.5t-12 -52.5t-18.5 -46.5q-11 -11 -28 -16q-2 -1 -3 -1l-2 -1q-12 -4 -21.5 -9t-9.5 -17t6 -19t16 -12l9 -8q6 -6 14.5 -9t17.5 -4.5t17.5 -2t13.5 -0.5h3q26 0 45 17.5t32 44.5t20.5 61t11.5 67t5.5 61.5
t1.5 45.5q0 36 -10 62t-27 57q27 11 56 18t59 8v-20q0 -3 0.5 -6t0.5 -6v-25q0 -11 -0.5 -35t-2 -54.5t-4 -65.5t-6 -67.5t-8.5 -60.5t-11 -44h-1q-1 -1 -4 -1q-6 -2 -11.5 -4t-11.5 -8q-2 -3 -2 -4v-6zM47 516q1 0 0.5 0.5l-0.5 0.5v-1z" />
    <glyph glyph-name="FL004Eh" unicode="N" horiz-adv-x="516" 
d="M322 605q0 1 0.5 2.5t0.5 2.5q4 3 15.5 9t24.5 12t24.5 11.5t15.5 7.5l2 0.5t3 0.5q10 0 16.5 -12t8.5 -19q1 -5 4 -17.5t6 -27t6 -27.5t4 -18v-31q0 -22 0.5 -46.5t0.5 -46.5v-31q0 -44 1 -92.5t-1 -97.5t-8.5 -96t-22.5 -89q-1 0 -4.5 -0.5t-5.5 -0.5q-5 0 -12.5 1.5
t-7.5 9.5v370q0 20 -2 46t-7 52.5t-12.5 50.5t-18.5 41l-30 30l-0.5 2t-0.5 3zM20 79q5 0 16 1.5t20.5 6t15.5 12.5t1 21v24q0 17 0.5 36t0.5 36v24v62v37q0 18 -1 36t-3.5 38.5t-6.5 46.5q-2 11 -8.5 23.5t-14 24.5t-13 23t-5.5 19q0 11 8.5 18.5t20 12t23.5 6.5t19 3
q5 1 15.5 -7t14.5 -13q1 -5 2.5 -17.5t3 -27t3 -27.5t1.5 -18v-20q15 -4 17.5 5t2.5 21q0 13 2.5 24t18.5 11q19 0 41 -26t44 -66t42.5 -88t36.5 -91t25.5 -75t9.5 -41v-4q-1 -2 -4.5 -5.5t-5.5 -4.5l-10 10q-23 53 -43.5 91t-43.5 71t-50 65t-63 73q-2 2 -5.5 10t-4.5 10
l-10 -10q0 -11 0.5 -37.5t0.5 -57.5q0 -30 -0.5 -57t-0.5 -38q0 -5 -1 -21t-2.5 -35t-3.5 -37l-3 -27q-1 -8 -4 -30t-8.5 -44.5t-14.5 -40t-23 -17.5q-8 0 -17 10.5t-17 24t-13.5 27t-5.5 19.5zM310 605q0 -5 1 -9l25 -26q12 -20 20.5 -45t14 -51t8 -50.5t2.5 -43.5v-191
q-12 35 -29.5 79t-38 86.5t-42 78.5t-41.5 57q-15 20 -29 31.5t-27 11.5q-12 0 -19 -5q-1 9 -2 15.5t-1 9.5q-1 1 -1.5 2t-1.5 2l-14 13v4q-6 8 -20 18t-21 10h-2q-8 -1 -22 -3.5t-27.5 -8.5t-23 -15.5t-9.5 -24.5q0 -12 7.5 -27t17.5 -31q6 -10 10.5 -19t5.5 -14
q4 -26 6.5 -46.5t3.5 -38.5t1 -36v-36v-86q0 -5 -0.5 -9t-0.5 -9v-81l2 -8q-1 -6 -6.5 -9.5t-12.5 -5.5t-14 -2.5t-11 -0.5l-11 -11q0 -7 5.5 -20.5t14.5 -28t19 -27t19 -16.5l8 -8q11 -11 19 -11q16 0 26.5 16t17 37.5t9.5 44t5 35.5q0 2 0.5 3.5t0.5 3.5l3 27t3.5 37
t2.5 35.5t1 21.5v27q0 14 0.5 31.5t0.5 36.5q0 20 -0.5 37.5t-0.5 31.5v7q30 -35 54 -64.5t45 -60t40.5 -67t40.5 -84.5l19 -20q2 0 3 1l17 -17v-79q0 -10 4.5 -14.5t10.5 -6.5l13 -13q5 -5 12 -5.5t12 -0.5q2 0 3.5 0.5t3.5 0.5h9q23 60 29.5 125t6.5 130q0 17 -0.5 34
t-0.5 34q0 16 -0.5 31t-0.5 30v31q0 11 -0.5 22.5t-0.5 23.5v80q-1 5 -4 18.5t-6.5 28.5t-6.5 28t-4 18q-2 5 -5.5 12.5t-9.5 13.5l-7 6q-5 9 -12.5 17.5t-18.5 8.5q-4 0 -8 -1q-4 -2 -15.5 -7.5t-25.5 -12.5t-27.5 -14.5t-20.5 -12.5q0 -1 -0.5 -2.5t-0.5 -2.5v-5zM146 559
l-2 2z" />
    <glyph glyph-name="FL004Fh" unicode="O" 
d="M110 250q0 13 5 21t16 19q13 -14 29 -19.5t34 -5.5q0 -11 -3.5 -22.5t-10 -21.5t-15.5 -16t-21 -6q-20 0 -27 17t-7 34zM280 20q0 2 0.5 5.5t0.5 4.5q36 4 59 21.5t36.5 44t19 58.5t5.5 65v44q0 38 -5 78.5t-25 68.5q-4 6 -11.5 15.5t-8.5 9.5h-80q-2 0 -9.5 10t-10.5 15
v5q0 25 18.5 35.5t38.5 10.5q85 0 124.5 -46.5t39.5 -128.5q0 -23 -2.5 -56.5t-8.5 -71t-17.5 -75t-29.5 -67.5t-43.5 -48.5t-59.5 -18.5q-14 0 -22.5 3t-8.5 18zM20 275q0 3 0.5 8.5t0.5 6.5q1 5 3.5 18t5.5 27.5t6 27t5 17.5q18 14 39.5 39.5t43 54t42 55t35.5 41.5
q-5 32 20 32q12 0 20 -7t13 -17t7 -22t2 -21q0 -3 -0.5 -12.5t-1.5 -12.5q-28 -27 -60 -55t-59 -59t-45 -66.5t-18 -77.5q0 -33 11 -64.5t29 -61t39.5 -56t42.5 -50.5q0 -1 0.5 -2.5t0.5 -2.5t-0.5 -3l-0.5 -2q-1 -2 -4.5 -5.5t-5.5 -4.5h-5h-5q-35 12 -64.5 44t-51 72.5
t-33.5 83t-12 75.5zM268 20q0 -15 4.5 -22t13.5 -9l12 -12q5 -5 13.5 -6t19.5 -1q36 0 63 19t46 50t31 69.5t18.5 76.5t9 73t2.5 58q0 90 -45 138q-21 33 -57.5 51t-90.5 18q-6 0 -16 -2q-2 14 -6.5 30.5t-15.5 27.5l-7 6q-6 12 -16.5 20.5t-25.5 8.5q-33 0 -33 -34v-7
q-14 -14 -28.5 -33t-29.5 -40q-23 -32 -48.5 -62.5t-50.5 -49.5q-5 -12 -10 -37t-9 -44q-1 -5 -3 -13v-7q0 -2 -0.5 -3.5t-0.5 -3.5v-5q0 -30 9.5 -68t26.5 -75.5t41.5 -70.5t53.5 -54q27 -24 59 -36h16q4 2 9.5 7.5t6.5 8.5t1 5v6l-1 1v5q-5 5 -9 9.5t-8 9.5v2
q-8 9 -17 18.5t-17 20.5q-25 32 -43.5 67t-25.5 72q8 -10 18 -14l9 -8q11 -11 27 -11q14 0 25 8t18.5 20t11.5 27t4 29l-17 17v6q-20 0 -39 6.5t-35 23.5l-11 -11q17 43 52.5 79.5t72.5 69.5q6 -8 13.5 -15t11.5 -7h1l10 -10q7 -7 9 -7h68q20 -29 25 -67.5t5 -75.5v-44
q0 -31 -5.5 -61t-19 -54.5t-36.5 -41.5t-59 -21v-14q0 -1 -0.5 -2t-0.5 -2v-3z" />
    <glyph glyph-name="FL0050h" unicode="P" horiz-adv-x="601" 
d="M199 400q0 -14 14 -18.5t27 -4.5h16q0 6 -1.5 15t-5 18t-9.5 15t-15 6q-12 0 -19 -10t-7 -21zM251 290q0 5 -0.5 20t-0.5 20q-10 2 -24.5 6t-28.5 11t-24.5 17.5t-12.5 25.5q-3 21 4.5 36.5t21.5 25.5t31.5 14.5t34.5 4.5t27.5 -9.5t16.5 -23t9 -29.5t5 -29h15
q25 0 54 7.5t54 22.5t41.5 37.5t16.5 51.5q0 21 -8 33t-21.5 18t-30.5 8t-36 2h-5q-60 -8 -114.5 -21t-115.5 -29q-6 -2 -17.5 -7t-25 -10.5t-26.5 -9.5t-22 -4q-8 0 -16.5 5.5t-16 14t-12 18.5t-4.5 18q0 7 4.5 11t11 5t13 0.5t11.5 -1.5q10 4 37 11.5t57 15.5t57.5 14.5
t38.5 8.5q2 0 15 0.5t29.5 1t33.5 1t27 0.5q6 0 21 -0.5t31.5 -1t31.5 -1t21 -0.5q21 -9 36 -16t25 -16t15 -22.5t5 -35.5q0 -44 -23 -74.5t-58 -51.5t-75.5 -34t-74.5 -20l-10 -20v-8q0 -7 -0.5 -16t-0.5 -19v-14q0 -48 6 -91.5t6 -91.5q0 -4 -0.5 -15.5t-0.5 -14.5
q-23 -16 -54 -29.5t-59 -13.5q0 35 8.5 70.5t18.5 72t18.5 74t8.5 76.5zM239 290q0 -38 -8.5 -76t-19.5 -76q-10 -35 -18 -71.5t-8 -81.5h6l17 -17q33 0 69 15t62 33v18q0 5 0.5 9.5t0.5 6.5q0 25 -2 47t-4 45t-4 45.5t-2 45.5v14q0 5 0.5 10.5t0.5 10.5v20l7 14
q36 7 77 20.5t76 35.5t58 54t23 78q0 23 -4.5 37t-15.5 25l-7 6q-9 19 -28 29.5t-48 22.5v-1l-3 3h-23t-34 1t-31.5 1.5t-20.5 0.5q-14 0 -39 -0.5t-44 -1.5q-7 0 -12 -0.5t-8 -0.5h-3q-11 -2 -37 -8t-55.5 -14t-56.5 -15.5t-40 -12.5q-3 1 -7 1h-9q-14 0 -25 -5.5
t-11 -22.5q0 -16 13 -35t29 -28l5 -4q8 -8 17 -13t17 -5q14 0 34.5 8t37.5 15q6 2 10.5 4t10.5 4q62 16 116 29t113 21h4q16 0 31 -1t27 -6q6 -11 6 -25q0 -25 -14 -44.5t-35.5 -33t-47.5 -21t-49 -8.5q-3 14 -8.5 28t-15.5 25l-5 5q-8 14 -20.5 23.5t-31.5 9.5
q-18 0 -36.5 -5t-33.5 -15t-25 -25.5t-10 -36.5v-8t1 -7q2 -14 11 -25t21 -19l7 -6q10 -11 23.5 -17t27.5 -11q0 -4 0.5 -7t0.5 -5v-6zM239 401l3 -12h-2h-11q3 9 10 12z" />
    <glyph glyph-name="FL0051h" unicode="Q" horiz-adv-x="613" 
d="M228 90q0 22 13.5 29t33.5 7h18q11 0 17 -6t10 -15l9 -8q6 -6 9.5 -15t5.5 -18q2 -5 2.5 -9.5t2.5 -6.5q2 -5 4.5 -8.5t4.5 -7.5q4 12 11 21.5t16 20.5l6 6q17 19 32.5 40.5t15.5 45.5v38q0 26 -1.5 59t-6 65t-13 61t-23.5 47q-7 2 -23 3.5t-33 3.5q-22 2 -40.5 6
t-24.5 10l-11 10l-35 -35q-33 -34 -65 -70t-52 -77q4 4 11 12t15 15.5t15 14t10 9.5q11 -9 26 -24t26 -32q14 -16 25.5 -34t11.5 -35q0 -3 -5.5 -17.5t-13 -30.5t-15 -29t-10.5 -13q-13 0 -21 8l-11 10q-17 5 -21 21.5t-5 36.5q-1 11 -2.5 21.5t-8.5 19.5l-29 29q-1 4 -1 9
v4q-5 -10 -8 -19q11 -46 27 -93t39 -91q1 -1 2 -1.5t2 -1.5v1q19 -8 38.5 -19.5t34.5 -31.5v-2l6 -6q6 -8 10 -12l1 -1q-2 -14 -12 -18.5t-19 -4.5q-2 0 -4.5 0.5t-4.5 0.5h-4q-26 0 -48.5 10.5t-41.5 28.5q-29 19 -51 52t-37 69.5t-22.5 73.5t-7.5 66v32q0 2 0.5 4t0.5 4
v13q4 5 16 24t26 41.5t26.5 42.5l17.5 28v-2q0 -1 1 0t2 3q5 7 16.5 23.5t22.5 29.5q3 4 6.5 8t6.5 8q7 9 13 17l6 8q2 2 6 10t8 17q1 2 2.5 4.5t11.5 16.5q5 1 6 1h7q14 0 27 -11t22 -25l4 -3q15 -15 23 -36q10 10 21 14h8q3 0 7 0.5t9 0.5h14q52 0 86.5 -19t55.5 -51
q20 -21 32.5 -48t19.5 -57.5t9.5 -63.5t2.5 -64q0 -38 -5.5 -82.5t-22 -83t-48.5 -65.5t-84 -30q34 -35 74 -61t91 -52q4 -3 7 -12l10 -10q6 -6 7.5 -15.5t1.5 -23.5q-25 0 -57 10t-66 26.5t-67 39t-61 47.5q-45 35 -74 74.5t-29 74.5zM120 278q0 -1 0.5 -3l0.5 -2l30 -30
q7 -9 8.5 -24.5t3 -30t6 -25.5t18.5 -11q3 0 8.5 11.5t11.5 26t10.5 27.5t4.5 16q0 12 -6.5 25t-15.5 25t-19.5 22.5t-19.5 17.5q-3 -2 -8.5 -7.5l-12 -12l-12 -12t-7.5 -8.5l-0.5 -2t-0.5 -3zM451 166q0 -24 -13 -45t-29 -39t-29 -33.5t-13 -28.5q51 0 81.5 25.5t47 63.5
t21.5 82t5 82q0 46 -6 94.5t-25 87.5t-54 64t-92 25q-7 0 -20 -0.5t-14 -0.5q-6 -2 -14.5 -9t-16.5 -15t-13.5 -15.5t-5.5 -10.5v-10q0 -3 16.5 -5.5t37.5 -4.5t40.5 -4.5t25.5 -5.5q24 -13 38 -43.5t21 -68t9 -77t2 -70.5v-38zM20 283q0 -35 11 -81.5t33.5 -88.5t55 -71.5
t76.5 -29.5q3 0 8.5 -0.5t11 0.5t10 3t5.5 8q-13 19 -36.5 30t-43.5 20q-29 48 -48.5 103t-31.5 107q12 34 34.5 66t49.5 61.5t55 57.5t51 55q0 2 0.5 7.5t0.5 7.5q0 9 -4.5 20.5t-11.5 21.5t-16.5 17t-19.5 7q-2 0 -5.5 -0.5l-3.5 -0.5q-1 -1 -4 -7t-6 -12.5l-6 -13
t-4 -7.5q-2 -3 -12.5 -16.5t-22.5 -28.5t-22.5 -28.5t-12.5 -16.5l-17.5 -28t-27 -42.5t-27.5 -42.5t-18 -27v-10q0 -7 -0.5 -15t-0.5 -15v-10zM240 90q0 -25 16 -53t42 -55t59.5 -51.5t68.5 -43t68 -29.5t59 -11q0 8 -2 14.5t-10 11.5q-36 18 -66.5 36.5t-57 40.5
t-50.5 49.5t-46 63.5q-3 6 -5 14.5t-5 16.5t-7 14t-11 6h-18q-14 0 -24.5 -4.5t-10.5 -19.5z" />
    <glyph glyph-name="FL0052h" unicode="R" horiz-adv-x="542" 
d="M209 447q0 -35 1 -70t4 -70q8 13 20 24t26 23q15 13 30.5 27.5t28.5 30.5t21.5 34.5t8.5 38.5v4q0 1 -0.5 1.5t-0.5 1.5h-7q-10 0 -32 -1.5t-44 -6t-39 -13.5t-17 -24zM263 244q0 5 10.5 13.5t16.5 8.5q3 -5 8 -11t9 -11l2 -1q2 -4 6 -8.5t8 -9.5l4 -4q2 -4 3 -5
q17 -18 34 -31.5t34 -13.5q9 0 19 2l20 4q2 1 3 1q2 0 4 1q8 2 17.5 3.5t32.5 1.5v-6l17 -17q0 -24 -10.5 -43t-22.5 -38q-6 -9 -12 -19t-11 -20h-10q-11 0 -27 9.5t-33 26.5q-20 15 -41.5 38.5t-39.5 48t-29.5 46.5t-11.5 34zM58 144h12q8 0 11 -2h2l38 -19q11 42 15 84.5
t4 85.5q0 25 -0.5 49t-1.5 47q-1 12 -1.5 25.5t-0.5 27.5l-63 -21q-2 -1 -3 -1h-6h-4t-6 2l-15 15q-1 0 -7 2l-13 26q-2 6 -3 10q-2 7 -5 16l-3 9q0 4 6.5 15.5t11.5 16.5q5 1 18 4t27.5 6t27.5 6t18 4h2v1q3 1 6 1.5t8 2.5q6 2 7 2q2 6 3 10q0 1 0.5 2t0.5 2q1 3 2 6.5
t9 11.5q3 2 4 2h6q3 0 7 -1q4 -3 10.5 -9t11.5 -11h186q17 0 25 -7t13 -18l9 -8q8 -8 10.5 -20t2.5 -23v-17q0 -36 -18 -75t-47.5 -72t-67.5 -54t-78 -21l-10 9q2 -11 2.5 -22t2.5 -22q5 -45 9 -91.5t6 -92.5q-1 -3 -1.5 -7t-1.5 -8q-3 -18 -10.5 -36t-30.5 -18
q-13 0 -20 2.5t-13 8.5l-10 10q-8 3 -14 9.5t-14 19.5q-2 1 -5 6q-5 7 -12 17t-14.5 20.5t-14.5 20.5t-11 17q-2 4 -2.5 6.5t-2.5 4.5q-2 1 -4 5v28zM275 244q0 -10 8 -26.5t21 -36t29.5 -39t33.5 -36t32 -26.5t26 -10h5q5 11 13.5 24t17 26.5t15 26.5t6.5 25
q-23 0 -42 -6.5t-42 -6.5q-17 0 -33 10t-30 25t-27 31.5t-23 28.5q-2 0 -6 -4t-4 -6zM70 120l7 -11t16.5 -25.5t19.5 -29.5t17 -24q13 -18 20 -25t25 -7q11 0 17 6.5t9 16t5 20.5t4 19q-2 51 -7 102t-10 101.5t-9 101.5t-4 102q0 18 18 29t41.5 16.5t47 7t34.5 1.5t20.5 -1
t18.5 -10q0 -3 0.5 -12.5t0.5 -12.5q0 -38 -22.5 -67.5t-49 -53.5t-49 -43t-22.5 -35q36 0 71 20.5t62 51.5t43.5 68.5t16.5 72.5v17q0 14 -5.5 29t-25.5 15h-190q-2 3 -9.5 10.5t-10.5 9.5l-2 0.5t-3 0.5q-2 0 -3.5 -0.5l-1.5 -0.5q-2 -2 -4 -10.5t-4 -14.5q-1 -4 -2 -5
t-13 -5q-5 -2 -9.5 -3t-7.5 -2q-5 -1 -17.5 -4t-27 -6t-27.5 -6t-18 -4q-2 -2 -6 -9.5t-4 -10.5q0 -2 4 -13t6 -17q2 -4 5.5 -11.5t4.5 -8.5l1.5 -0.5t2.5 -0.5q2 0 4 0.5l2 0.5l90 30q1 0 3.5 -0.5t4.5 -0.5q0 -45 2 -91.5t2 -94.5t-4.5 -94t-17.5 -89h-5h-5l-40 20l-10 2
v-12z" />
    <glyph glyph-name="FL0053h" unicode="S" horiz-adv-x="430" 
d="M20 115q0 8 2 19.5t6.5 22t12 17.5t19.5 7q16 0 30.5 -17.5t31.5 -38t38 -38t50 -17.5q3 0 10 1t15 2.5t15 3.5t10 3q2 -1 5.5 -4.5t4.5 -5.5l0.5 -2t0.5 -3t-0.5 -2.5t-0.5 -2.5q-22 -12 -50 -26.5t-55 -14.5q-18 0 -42.5 6.5t-47.5 19t-39 30t-16 40.5zM311 110
q0 35 -16.5 68t-41 65.5t-53.5 65.5t-53.5 69t-41 75t-16.5 83q0 9 1 22t15 13q1 0 3 -0.5l2 -0.5q2 -2 8 -9.5t7 -10.5v30h215q2 0 10 -4t10 -6l0.5 -1.5t0.5 -3.5q0 -1 -0.5 -3l-0.5 -2l-10.5 -3t-26.5 -7t-34.5 -9t-35 -9t-28.5 -7.5t-15 -4.5l-50 -20l-2 -0.5t-3 -0.5
q-2 0 -3.5 0.5l-1.5 0.5q-4 3 -15.5 14.5t-14.5 15.5q0 -1 -0.5 -4.5t-0.5 -5.5q0 -28 18.5 -55t46.5 -56t60.5 -60.5t60.5 -68.5t46.5 -80t18.5 -95q0 -23 -13 -43t-32.5 -35t-43 -24t-43.5 -9q0 16 11.5 26t25 21t25 26.5t11.5 42.5zM8 115q0 -23 13 -40.5t33 -31.5h1
q13 -13 30 -23t35 -16.5t35 -10t30 -3.5q11 0 21 2.5t21 5.5q-1 -5 -1 -16h6l17 -17q23 0 49 9.5t48.5 26t37.5 38.5t15 46q0 33 -7.5 62.5t-20.5 56t-30.5 50t-36.5 45.5q-19 23 -39.5 44.5t-40.5 41.5q-13 13 -25.5 25t-23.5 24q-10 13 -17 25.5t-9 26.5q9 -9 15 -13
q5 -2 6 -2.5t5 -0.5h3l54 21h1q2 1 11 3.5t21.5 5.5t27 7t29.5 8l20 5t14.5 4t13.5 4t18 5q2 6 2 7v5q0 5 -2 9l-15 15q0 2 -0.5 3l-1.5 3q-5 3 -16.5 10t-14.5 7h-227v-10q-3 1 -8 1q-20 0 -24 -13t-4 -26v-8q0 -37 11 -70t28.5 -63.5t39.5 -58.5t45 -55q19 -23 37 -45
t31.5 -44t21.5 -44.5t8 -45.5q0 -14 -4 -24t-10 -18l-2 2l-0.5 0.5t-0.5 2.5q-2 4 -9 11t-12 9q-3 -1 -10.5 -3t-15.5 -3.5t-15 -3t-10 -1.5q-23 0 -40.5 13t-31.5 30h-1q-3 4 -5.5 7t-5.5 7q-4 6 -7 9q-14 19 -28 32t-31 13q-15 0 -25 -8.5t-16 -20.5t-8.5 -25.5
t-2.5 -23.5zM222 383l20 -20l-9 8q-8 8 -11 12zM222 383q-1 0 -2 1q1 -1 2 -1z" />
    <glyph glyph-name="FL0054h" unicode="T" horiz-adv-x="632" 
d="M168 124q14 0 22.5 -9t15.5 -21l4 -3q2 -2 3 -3.5t3 -3.5q10 50 13 100.5t3 101.5q0 30 -0.5 60t-1.5 60q-1 20 -1.5 41.5t-0.5 43.5q-18 -6 -36.5 -15.5t-37.5 -19.5q-27 -15 -52.5 -26.5t-45.5 -11.5q-11 0 -17 6l-12 12q-11 3 -15 12t-4 20q0 13 5 28.5t12 31t15 30
t15 26.5l27 -13l146 27q0 34 33 34q8 0 17 -4.5t13 -15.5l3 -2h267q5 0 8.5 -3.5l7.5 -7.5l-2 -2l2 1l3 -3q0 -1 3 -1q0 -2 0.5 -3t0.5 -2l7 -7q2 -1 4 -5l-1 1q0 -1 1 -2t2 -3l3 -2q1 -4 1 -8t-1 -8q-1 -3 -6.5 -8.5t-9.5 -7.5h-18q-8 0 -18.5 0.5t-21.5 0.5t-21.5 -0.5
t-18.5 -0.5h-15q-3 0 -15 -1t-26 -2.5t-27.5 -3.5t-20.5 -3q-3 0 -14.5 -1t-24 -3.5t-23 -6t-10.5 -8.5v-12q0 -6 -1 -14q-1 -11 -1.5 -24.5t-0.5 -27.5q0 -16 1 -30.5t5 -26.5h1q0 -1 -0.5 -1.5t-0.5 -1.5q1 -2 1.5 -2.5t1.5 -2.5l15 -14q-2 -18 -2 -27v-14q0 -29 2 -56
t4 -56t4 -59t2 -60v-18q0 -7 0.5 -15.5t0.5 -16.5q0 -22 -2.5 -45.5t-11 -43t-24.5 -32t-43 -12.5q-2 0 -3.5 0.5t-3.5 0.5h-10l-17 17h-6q-7 29 -15 48t-16 37q-13 27 -23 54t-10 58zM169 112q0 -24 8 -47t18.5 -45.5t20.5 -45t15 -46.5q1 0 4.5 -0.5t5.5 -0.5
q32 0 47 20.5t20.5 49t4.5 57.5t-1 47q0 69 -7.5 135t-3.5 132q-13 6 -17.5 27.5t-5 47t1 50.5t1.5 37q0 7 11.5 12.5t25.5 9t27 5t16 1.5q7 1 20.5 3t28 3.5t26.5 2.5t15 1q6 0 22 0.5t33 0.5t33 -0.5t22 -0.5q2 1 5.5 4.5t4.5 5.5l0.5 2t0.5 3t-0.5 3l-0.5 2q-2 2 -5 6
t-5 4h-280q1 13 -5.5 17.5t-14.5 4.5q-25 0 -20 -32l-160 -30l-20 10q-6 -10 -13 -22.5t-13.5 -26t-10.5 -26.5t-4 -25q0 -8 3.5 -14.5t12.5 -6.5q20 0 45.5 12.5t53 27t54.5 27t51 12.5q0 -60 2 -120t2 -120t-4.5 -120t-18.5 -118q-7 5 -12.5 15.5t-11.5 21.5t-12.5 19
t-15.5 8z" />
    <glyph glyph-name="FL0055h" unicode="U" horiz-adv-x="533" 
d="M383 278q0 62 -13.5 113t-47.5 105q-5 8 -11.5 12.5t-13 8t-13.5 7.5t-12 11q6 8 15.5 19t21.5 20.5t25.5 15.5t27.5 4q13 -2 24.5 -19t20.5 -41.5t15.5 -54t11 -56t7 -46.5t2.5 -27q0 -8 -1.5 -27.5t-4.5 -44t-8.5 -51.5t-13.5 -49t-19 -36.5t-25 -14.5q0 38 6 75t6 76z
M21 13q0 18 4 34t9.5 32t10.5 32t7 34v30q0 22 0.5 46t0.5 45v30q0 17 0.5 45t0 59.5t-3 62t-8.5 53.5q0 1 -3 7t-7 12.5t-7 12t-3 7.5q0 1 -0.5 4.5t-0.5 5.5q0 19 16 19q18 0 28.5 -16t16 -36.5t7.5 -39.5t3 -25q14 -100 21 -196.5t9 -193.5q-8 -11 -19 -18t-22.5 -13
t-22 -12t-16.5 -16h5h5q46 13 91 27t91 25.5t92.5 19t95.5 7.5q5 0 20 -0.5t20 -0.5q2 -1 5.5 -4.5t4.5 -5.5l1 -4q0 -12 -10.5 -24t-24.5 -22t-27.5 -17.5t-18.5 -10.5h-4q-33 0 -64.5 5.5t-66.5 5.5q-33 0 -68 -1t-67 -10q-3 -1 -11.5 -4t-18 -6t-18 -5.5t-12.5 -3.5
l-20 -10h-5q-8 0 -11 4t-4.5 9t-1 11t0.5 10zM371 278q0 -19 -2 -37.5t-4 -37.5t-4 -39t-2 -49h5l9 -8q-59 -5 -113.5 -17.5t-108.5 -28.5q-2 97 -9 193t-21 194q0 7 -1 12q-1 9 -3 22.5t-6 28t-9.5 27.5t-14.5 22l-6 6q-8 13 -18.5 21.5t-25.5 8.5q-28 0 -28 -31v-4
q0 -1 0.5 -1.5t0.5 -1.5v-3q0 -4 3 -11t8 -15q2 -2 3 -5t3 -5l-1 1q4 -8 4 -7q8 -28 10 -66t2 -74q0 -8 -0.5 -14.5t-0.5 -13.5v-124q0 -6 -0.5 -12t-0.5 -12v-51q-2 -14 -6 -28.5t-9 -28.5q-6 -17 -11 -35t-5 -41v-9q0 -10 2.5 -20.5t14.5 -14.5l13 -13q6 -6 18 -6h7l20 11
l1 -1q4 1 12.5 3.5t18 5.5t18 6t11.5 4q30 8 61.5 9.5t61.5 1.5h9q17 0 33.5 -2t33.5 -4q16 -2 31.5 -3.5t32.5 -1.5h6l5 2.5t6 3.5q9 5 22.5 13.5t25.5 18.5t20.5 22t8.5 25l-1 4q-2 4 -9 12l-8 7v2q-2 4 -7.5 10.5t-10.5 8.5h-24q-4 0 -7.5 0.5t-6.5 0.5h-6h-13
q18 16 30.5 48.5t19.5 67.5t10 64.5t3 40.5q0 10 -4.5 42.5t-13.5 71t-22 75t-30 53.5l-3 2l1 -1q1 0 2 -1l-7 6q-14 25 -32 28h-7q-15 0 -29.5 -8t-27.5 -19t-24 -23.5t-18 -21.5q8 -10 14 -15t12 -9l5 -4q5 -6 10.5 -9.5t12.5 -6.5v-1h1h-1q33 -53 46.5 -102t13.5 -109z
" />
    <glyph glyph-name="FL0056h" unicode="V" horiz-adv-x="542" 
d="M30 283q2 8 2 14v14q0 20 -3 43t-8 47q-5 23 -8.5 47t-3.5 48v22q0 4 -0.5 8t-0.5 8q0 15 1.5 30.5t5.5 28t10.5 21t16.5 8.5q4 0 15.5 -6.5t16.5 -11.5q0 -1 -0.5 -2t-0.5 -2l18 -17q-1 -14 -1 -28v-27q0 -66 8 -121.5t26 -108t46.5 -105t70.5 -111.5v-1q38 51 64 105
t26 119q0 9 -0.5 26t-2.5 36.5t-6 39t-10 33.5q-5 -1 -11 -1h-12q-9 0 -17.5 1.5t-13.5 6.5l-12 11q-8 3 -12.5 9t-4.5 19v6t2 6l39 19q-3 4 -6.5 9t-7.5 10q-5 6 -9 11.5t-7 8.5v7q0 1 -0.5 1.5t-0.5 1.5v4q0 15 7.5 25t19 16t24 9t22.5 3q22 0 33 -9t20 -23l5 -5
q8 -10 16 -25q9 1 17 8q11 9 23 16.5t26 7.5q24 0 34 -23l10 -9q9 -9 12 -24t3 -31v-29q-1 -3 -6.5 -8.5t-9.5 -7.5h-13q-3 0 -11 5l1 -1q-8 5 -18.5 10.5t-11.5 5.5h-3q-2 0 -3.5 0.5t-3.5 0.5h-7t-4 -2q0 -17 3 -35.5t7 -38.5t7.5 -40t3.5 -42q0 -51 -14 -97t-38 -88.5
t-55.5 -81t-66.5 -73.5q-2 -2 -7.5 -7t-12.5 -10t-13.5 -9.5t-9.5 -5.5l-1 1q-5 -2 -12 -3.5t-9 -1.5l-18 18q-2 -1 -5 -1v16q-2 0 -4 -0.5t-4 -0.5t-3.5 0.5t-3.5 0.5h-8l-17 17h-5q-40 74 -62.5 140.5t-42.5 137.5v7zM42 280q21 -72 43 -138t57 -132q1 0 4.5 -0.5
t5.5 -0.5q12 0 22.5 9.5t19 23t13.5 28t5 25.5v5q-45 64 -75.5 121t-48 115.5t-23.5 122t-3 141.5q-2 2 -9.5 6t-10.5 4q-11 0 -15.5 -15t-5.5 -34.5t-0.5 -38.5t0.5 -26q0 -26 5 -53.5t10 -55.5t7.5 -55t-1.5 -52zM192 -23q1 0 5 1t5 2q3 1 9 5t12 9t11.5 9.5t7.5 6.5
q34 34 65.5 72t54.5 79.5t37 87t14 95.5q0 40 -10.5 79t-10.5 77q0 8 7.5 9.5t12.5 1.5q2 0 5.5 -0.5t4.5 -0.5t6.5 -3t12.5 -6.5l13 -6.5l8 -4h5h5q2 1 5.5 4.5t4.5 5.5v4v22q0 20 -5.5 37.5t-24.5 17.5q-11 0 -19 -5t-16 -11t-16.5 -11t-18.5 -5q-2 0 -5.5 0.5t-4.5 0.5
q-7 13 -12 24t-11 19.5t-14.5 13t-22.5 4.5q-9 0 -19.5 -2t-19.5 -7t-15.5 -13t-6.5 -19q0 -2 0.5 -5.5t0.5 -4.5q1 -1 5 -7t9.5 -13t10 -13t5.5 -7l0.5 -2t0.5 -4q0 -1 -0.5 -2.5l-0.5 -1.5l-40 -20l-0.5 -1.5t-0.5 -2.5q0 -11 8.5 -14.5t19.5 -3.5t21 1.5t12 0.5
q15 -8 23 -30t12 -48t5 -50.5t1 -36.5q0 -47 -13 -87.5t-34.5 -77.5t-48.5 -71.5t-55 -68.5v-23z" />
    <glyph glyph-name="FL0058h" unicode="W" horiz-adv-x="628" 
d="M120 554q0 1 -1 1zM410 -36q-11 5 -18 14t-13 20h1l-2 4q-6 8 -15.5 20.5t-19 26t-19 26.5t-15.5 23q-1 -1 -1 -2v0q-10 -15 -22.5 -34t-25 -38.5t-24 -38.5t-20.5 -34h-26l-17 17h-3q-2 0 -11.5 11.5t-21 28t-22.5 33.5t-16 28q-45 87 -68 171t-23 181q0 11 3 39t11 57
t21 51t33 22q1 0 1.5 -0.5t1.5 -0.5h5q9 -3 21 -15t22 -26q13 -14 23 -30.5t10 -24.5q0 -2 -0.5 -3.5t-0.5 -3.5v-6q-4 -13 -7 -27q-6 -21 -10.5 -38t-7.5 -34.5t-4.5 -36.5t-1.5 -43q0 -28 1.5 -59t7 -62.5t16 -61.5t27.5 -55q29 23 46 53.5t30 60.5q-10 21 -22.5 47
t-23 55t-17.5 58t-7 56h65v-6l17 -17q0 -1 0.5 -6t0.5 -7q2 -12 6 -38t13 -49q6 21 7.5 42t1.5 41v9q-2 10 -2.5 23.5t-0.5 23.5l-22 11l-15 14l-7 4q-3 6 -3.5 7.5t-0.5 4.5v6t2 6l28 27v-1q2 2 3 4q3 4 7 9t9 10q5 6 14.5 16t15.5 16h6q1 1 3 1q11 0 19 -6.5t13 -17.5
l9 -8q8 -8 13 -21.5t7.5 -27t3 -26t0.5 -18.5q0 -34 -6.5 -65t-14.5 -62q-8 -30 -14.5 -59t-6.5 -58q0 -7 4.5 -20t12 -29t17 -32.5t19.5 -30.5q8 -6 11 -6q19 27 31.5 60t20 68.5t11 71.5t3.5 68q0 99 -30 183q-5 12 -12 22.5t-15 21.5q-1 2 -2 2t-2 2l1 -1q-16 20 -29 41
t-13 43q0 23 16 39t42 16q17 0 31.5 -11t27.5 -29l4 -3q23 -23 40 -65t28.5 -87t17 -85.5t5.5 -61.5q0 -54 -10.5 -104.5t-27.5 -99t-38.5 -96t-44.5 -94.5l1 -1q-2 -5 -7.5 -9.5t-8.5 -5.5h-8q-12 0 -20 3.5t-14 9.5zM299 130l10 -10q4 -6 15 -22t23.5 -34t24 -34t16.5 -22
q8 -13 16.5 -25t28.5 -12h5q2 1 5.5 4t4.5 5q23 47 44.5 94.5t38.5 96t27 98.5t10 103q0 16 -3.5 45t-10 63.5t-17 70.5t-24.5 65t-31.5 47.5t-38.5 18.5q-20 0 -33 -13t-13 -30t9 -33t20.5 -32t23.5 -31.5t18 -30.5q31 -86 31 -187q0 -33 -3.5 -70.5t-12 -74.5t-22 -71.5
t-33.5 -62.5q-1 0 -2.5 -0.5t-2.5 -0.5q-11 0 -27 19.5t-31 45t-26 50t-11 35.5q0 30 6.5 60t14.5 60.5t14.5 61t6.5 62.5q0 7 -1 22.5t-4.5 31t-11 27.5t-19.5 12q-1 0 -2.5 -0.5t-2.5 -0.5q-3 -3 -10 -11t-15 -17t-15 -17t-10 -11l-20 -19l-0.5 -2t-0.5 -4q0 -1 0.5 -2
l0.5 -1l40 -19l1.5 -7.5t3 -17.5t3 -21.5t2.5 -18.5v-10q0 -27 -3 -56.5t-17 -55.5q-13 8 -22 28t-15 42.5t-9 42t-4 27.5h-41q0 -23 7.5 -50t18.5 -55t23 -54t22 -46q-15 -35 -35 -71.5t-54 -58.5q-26 25 -42 58.5t-24.5 71t-11.5 75t-3 70.5q0 28 2 50t6 42t10 41.5
t13 48.5q0 1 0.5 4.5t0.5 5.5q0 5 -5.5 15t-13 20.5t-16 18.5t-15.5 10q-18 4 -30 -16t-19 -47.5t-9.5 -55t-2.5 -37.5q0 -95 23 -178t67 -169q5 -10 14.5 -26t19 -31t17 -26t9.5 -11h20q9 15 20 33t23 36.5l24 37t22 33.5q1 2 4.5 5.5t5.5 4.5h5h5z" />
    <glyph glyph-name="FL0059h" unicode="X" horiz-adv-x="542" 
d="M290 410q0 10 9.5 26t21.5 33.5t23.5 33.5t16.5 27q7 15 9 25.5t4 16.5t7 8.5t19 2.5q21 0 41.5 -14.5t20.5 -37.5q0 -11 -10 -21t-22.5 -18t-24 -13.5t-14.5 -8.5q-5 -4 -18 -15.5t-27.5 -24t-27 -24t-17.5 -16.5q-8 3 -9.5 8.5t-1.5 11.5zM20 75q0 10 11.5 33t30.5 52
t42 59.5t46 55.5t43 41.5t33 16.5q0 -13 -11.5 -33.5t-26 -41.5t-28.5 -39.5t-19 -28.5q-4 -7 -12.5 -25t-18 -39t-18 -40t-11.5 -26q-2 -3 -9.5 -10.5t-10.5 -9.5l-2 -0.5t-3 -0.5t-3 0.5l-2 0.5q-4 3 -15.5 14.5t-14.5 15.5l-0.5 1.5t-0.5 3.5zM51 580q2 3 9.5 10.5
t10.5 9.5h5q11 0 19.5 -6t15.5 -14q14 -16 38 -43.5t48 -54.5t42.5 -48t21.5 -24q12 -15 33.5 -41.5t46 -58t49.5 -66.5t45.5 -67t33.5 -59t13 -43q0 -1 -0.5 -3l-0.5 -2q-1 -2 -8.5 -9.5t-11.5 -10.5q-3 -3 -11.5 -10t-18.5 -15t-18.5 -15t-11.5 -10q-1 0 -2.5 -0.5
t-2.5 -0.5t-6.5 15.5t-14.5 39t-19.5 52t-21 55.5t-19.5 48.5t-14 30.5q-54 96 -111.5 180.5t-138.5 159.5zM8 75q0 -4 0.5 -5t2.5 -6q4 -5 17 -18t18 -17q1 -1 3 -1l7.5 -7.5t6.5 -5.5l4 -3q6 -2 7 -2h2q3 0 7 1q4 3 13 12t12 13q3 7 11 25t18 39t19 39.5t13 26.5
q4 7 11 17t15 22q16 21 32.5 46t23.5 48l39 -66q11 -19 26.5 -58.5t30.5 -79.5l8 -22t8 -21q10 -28 17.5 -46.5t15.5 -18.5h1l15 -15q2 -2 4 -2h3l2 -2l13 11t23 19l-1 1q10 7 18 13.5t12 10.5h1q4 3 12.5 11.5t10.5 12.5q1 4 1 8q0 22 -21.5 61.5t-52.5 84.5t-65.5 89
t-59.5 75q2 -2 5 -2.5t6 -2.5q5 5 17.5 16.5t26.5 24t27 23.5t18 15q6 6 9.5 7.5t8.5 4.5q9 4 19.5 10.5t19.5 14t15.5 16.5t6.5 19q0 11 -4.5 20.5t-12.5 17.5l-6 5q-9 19 -29 30t-39 11q-13 0 -20 -1.5t-11 -5t-6 -9t-3 -13.5q0 -1 -0.5 -2t-0.5 -3q-2 -6 -3.5 -12.5
t-5.5 -13.5q-3 -8 -8 -15t-10 -15l-9 -12q-16 -23 -30.5 -46t-14.5 -37v-3q-2 2 -3 4q-2 2 -2.5 3t-2.5 3q-3 3 -21.5 24t-42.5 48.5l-48 55t-38 43.5q-8 11 -19 17.5t-25 6.5h-8q-2 -2 -6 -5.5t-8.5 -7.5t-8 -8t-4.5 -5l1 -14q56 -52 100 -109t83 -121q-16 -7 -38.5 -26.5
t-46.5 -46t-47.5 -56.5t-42.5 -57.5t-30.5 -49t-11.5 -31.5zM72 547q-1 0 -1.5 0.5l-0.5 0.5l0.5 -0.5t1.5 -0.5z" />
    <glyph glyph-name="FL005Ah" unicode="Y" horiz-adv-x="506" 
d="M25 462q-1 2 -1.5 10t-0.5 10q0 18 10.5 34.5t30.5 16.5q14 0 30.5 -19.5t33.5 -50t33 -67.5t28 -71.5t19.5 -62.5t7.5 -40q0 -7 -1.5 -12t-9.5 -8q-19 12 -31.5 31.5t-23 42t-21 45.5t-24.5 41zM-355 -133q0 7 5 12t12.5 8t15 4.5t13.5 1.5q22 0 45 -6.5t48.5 -14.5
t54 -14.5t60.5 -6.5q17 0 52 4t78 11.5t88.5 18.5t83 25.5t61.5 32.5t24 39q0 2 -0.5 5.5t-0.5 4.5q-12 3 -29 7.5t-33 12t-27 19.5t-11 31q0 20 12 34.5t28.5 26.5t33 23.5t26.5 25.5q36 48 63.5 103.5t27.5 118.5q0 20 -9.5 39.5t-21.5 38t-21.5 35t-9.5 30.5q0 1 0.5 3
l0.5 2q2 3 9.5 10.5t10.5 9.5q4 1 17.5 1.5t17.5 0.5q27 0 47 -11.5t28 -40.5v-14q0 -9 0.5 -20.5t0.5 -21.5v-14q0 -119 -56.5 -206.5t-154.5 -153.5q-3 -2 -7 -9.5t-3 -10.5q4 -18 20.5 -24t34.5 -11t32 -14t14 -32q0 -22 -14.5 -40.5t-37.5 -33.5t-51 -27t-56 -21.5
t-52.5 -16t-39.5 -10.5l-22 -5.5t-28.5 -6.5t-26 -5.5t-13.5 -2.5h-14q-12 0 -28.5 -0.5t-33.5 -0.5h-27h-30q-19 0 -38 0.5t-33 0.5h-16q-11 0 -31.5 2t-40 8t-34 16.5t-14.5 28.5zM-367 -133q0 -15 8.5 -26t21.5 -19l6 -6q10 -11 26 -17t33 -10t32.5 -5t24.5 -1h47
q10 0 20 -0.5t20 -0.5h57q10 0 19 0.5t17 0.5h40q3 0 15 2.5t26.5 5.5t28.5 6.5l22 5.5q15 4 40.5 10.5t54 16.5t57.5 23t52.5 29t38.5 35.5t15 43.5q0 22 -13 35l-9 8q-7 17 -23 24t-33 12q-6 2 -11.5 3.5t-10.5 3.5q1 4 5 8q100 67 157.5 156t57.5 211v14q0 5 -0.5 10.5
t-0.5 11.5v36q-7 23 -21 37l-3 2l-1 1q-12 23 -32.5 32.5t-46.5 9.5q-4 0 -19 -0.5t-19 -1.5q-4 -3 -15 -14t-14 -15q-1 -4 -1 -8q0 -17 8.5 -33t19.5 -33q12 -19 23 -39t11 -38q0 -61 -26.5 -114.5t-61.5 -100.5q-5 -8 -13.5 -14.5t-18.5 -13.5q-2 -2 -4.5 -3.5t-4.5 -3.5
q-23 -17 -42.5 -35t-19.5 -47q0 -21 10 -35t25 -23l5 -4q11 -11 26.5 -18t31.5 -11q-7 -17 -33.5 -32t-62.5 -27t-78 -21t-81 -15.5t-70.5 -9.5t-46.5 -3q-30 0 -58 7t-54 15q-2 1 -4 1t-4 1l-2 1q-1 0 -3 1q-21 6 -41.5 11t-41.5 5q-7 0 -17 -2t-19 -6.5t-15.5 -12
t-6.5 -17.5zM16 454l85 -106q8 -11 14.5 -25.5t13.5 -28.5q1 -2 1 -3l1 -2q13 -29 29 -56.5t42 -44.5h1l1 -1q10 -10 19 -15q17 6 19.5 13.5t2.5 16.5q0 11 -6 33.5t-16 51.5t-23 61t-28 62.5t-30.5 55.5t-29.5 40l-1 1q-13 17 -24.5 27.5t-22.5 10.5q-26 0 -39.5 -20.5
t-13.5 -42.5q0 -3 0.5 -12t1.5 -11zM302 -37l-1 1h1v-1z" />
    <glyph glyph-name="FL005Bh" unicode="Z" horiz-adv-x="590" 
d="M184 472q-1 -1 2.5 0.5t7.5 3.5q-5 -2 -9 -2q-3 0 -2 1v-3h1zM8 35q0 16 9 34.5t22.5 37t28.5 35t27 28.5q2 2 2 3q6 7 22 25t36 39.5t40.5 43t35.5 36.5q-15 5 -31.5 9t-28.5 6l-16 16q-5 0 -7 1v38q4 0 15 -0.5t24 -1.5t23.5 -1.5t13.5 -1.5v-1l10 -3q5 -2 10 -3.5
t10 -3.5q8 -4 16 -6.5t10 -2.5t11.5 7.5t15.5 13.5q33 27 68 63t70 73q-45 -4 -90.5 -14.5t-87.5 -24.5q2 0 -7.5 -3.5t-19.5 -8.5q-14 -7 -26 -12t-10 -4h-6q-2 0 -3.5 -0.5t-3.5 -0.5q-14 0 -26 12l-8 7q-12 5 -20 17t-8 24q0 20 11 43t26 39q16 1 56.5 3t86 3.5t86 2.5
t56.5 1h29q22 0 31 -3.5t12 -14.5l12 -12q5 -5 6 -14.5t1 -26.5q0 -10 -2 -20v-5l-163 -191q5 -2 8.5 -3t8.5 -2l9 -3q14 -5 27.5 -12t21.5 -23l8 -8q3 -3 5 -6t4 -7q1 -4 1 -7q0 -1 -0.5 -1.5t-0.5 -1.5v-8l-41 -20.5t-38 -24.5l-6 4t-5 4l-9 9l-1 -1q-11 7 -18 16.5
t-13 20.5q-2 2 -3 3.5t-2 3.5l-9 12q-5 -6 -14 -18l-18 -24q-11 -14 -21 -26.5l-14 -17.5q-3 -5 -13 -20t-22.5 -35.5t-26.5 -42t-25 -39.5q22 7 50.5 13t57.5 13q15 4 30 7t29 6q21 5 37.5 8.5t21.5 5.5q4 1 16 6.5t27 12t29.5 14t25.5 12.5q10 5 13 6h5q1 1 3 1q4 0 8 -1
q5 -2 12 -11t7 -11l6 -6q4 -4 7.5 -8.5t3.5 -5.5v-103l-16 -16q-11 0 -22.5 0.5t-21.5 0.5q-43 0 -81 -2t-75 -4q-39 -2 -80 -3.5t-89 -1.5h-7q-3 1 -9 7l-10 10h-2q-2 1 -4.5 3t-5.5 4l-13 -14h-26q-12 0 -31 4.5t-30 15.5l-7 7q-17 7 -21 19v8zM20 30q6 -11 25 -15.5
t32 -4.5h13h6h4q2 2 10 9.5t10 10.5q4 6 20 31.5t35 54t35 53.5t20 31q4 5 14 18t21 27t21 27t14 18q1 0 2.5 0.5t2.5 0.5q10 0 18.5 -9t17 -21t15.5 -23.5t14 -17.5q16 12 34 22t36 18q0 1 0.5 2.5t0.5 2.5t-0.5 3l-0.5 2q-7 13 -20.5 19t-29 11t-29.5 11t-21 19l171 201
q0 1 1 8.5t1 12.5q0 25 -4.5 32t-28.5 7h-29q-16 0 -55.5 -1t-84.5 -2.5t-84.5 -3.5t-55.5 -3q-12 -13 -21 -33t-9 -37q0 -11 9.5 -21t20.5 -10q2 0 5.5 0.5t4.5 0.5q3 1 13 5.5t22 9.5t22 9.5t13 5.5q51 18 108.5 29t111.5 11h20q-42 -45 -87.5 -93.5t-93.5 -87.5
q-5 -5 -16.5 -12.5t-13.5 -7.5t-11 3t-19 7t-19 7t-11 3q-3 1 -11.5 1.5t-18.5 1.5t-18.5 1.5t-11.5 0.5v-15q10 -1 23 -4t26 -8t24 -12t17 -16q-8 -8 -28.5 -29t-43 -45t-42 -45.5t-26.5 -30.5q-10 -11 -25.5 -27.5t-29.5 -35t-24.5 -37.5t-10.5 -35v-5zM139 15
q0 -1 0.5 -3l0.5 -2q1 -2 4.5 -5.5t5.5 -4.5h4q52 0 96 2t87 4t87 3.5t96 0.5l10 10v100q0 1 -4 5t-6 5l-2 0.5t-3 0.5t-2.5 -0.5t-2.5 -0.5q-6 -3 -21.5 -10.5t-33 -15.5t-33.5 -15t-22 -9q-11 -4 -34.5 -9.5t-52.5 -11.5t-59.5 -12.5t-56 -12.5t-42 -11t-16.5 -8z" />
    <glyph glyph-name="FL005Dh" unicode="[" horiz-adv-x="367" 
d="M172 69q-23 21 -49.5 49.5t-49.5 61t-38 67t-15 67.5q0 22 7 52t19.5 62t29.5 63t37 55t41.5 39t43.5 15q11 0 23.5 2t20.5 2q9 0 24.5 -4.5t26.5 -11t13.5 -14.5t-13.5 -15q-25 -10 -49 -23.5t-44.5 -27.5t-36.5 -27t-25 -22q-5 -4 -11.5 -14.5t-13 -22t-12.5 -22.5
t-10 -16q-9 -16 -10 -29.5t-1 -30.5q0 -39 11.5 -69t30 -55t42 -47.5t46.5 -46t44 -50.5t35 -61q5 -13 1.5 -28t-13 -28t-24 -21.5t-31.5 -8.5q0 12 3.5 21t8 18t8 19t3.5 23zM223 -46q0 -1 -0.5 -1.5t-0.5 -1.5v1q-5 -10 -8.5 -22t-3.5 -33h6l17 -17q18 0 34 7t28 18.5
t19 25.5t7 28q0 11 -4 19q-11 26 -25.5 47t-31.5 40q0 1 -2 3q-8 8 -15.5 16.5t-15.5 16.5q20 -22 38 -46.5t32 -56.5q4 -8 4 -19q0 -23 -19 -45.5t-48 -30.5q3 15 11 28q3 8 6.5 16t4.5 19l2 -2l-2 6l-20 20v-2l-51 55l-20 20q-2 1 -2.5 1.5t-2.5 1.5l3 -2q3 -3 5.5 -6
t5.5 -5l62 -67q-1 -11 -4.5 -19t-6.5 -16q-5 -10 -8.5 -21t-3.5 -30l3 -3q18 1 34 9t28 19.5t19 25.5t7 28q0 12 -4 20q-8 19 -18.5 35.5t-21.5 30.5q0 1 -2 3q-14 18 -29 34t-30 31l-6 6q-14 13 -27 26t-24 27q-15 23 -24 50t-9 62v5q0 14 1 25.5t9 24.5h-1q3 5 8 12.5
t10 16.5q8 14 15.5 26.5t12.5 17.5q9 9 24.5 22t36 27t44 27t47.5 23q20 9 20 22q0 7 -7 14l-4 3v-1h1l-8 9q-3 8 -12 15t-20.5 12t-23.5 8t-20 3q-5 0 -10 -0.5t-10 -1.5q-6 -1 -12.5 -1.5t-11.5 -0.5q-23 0 -46 -15.5t-44.5 -41t-39.5 -57.5t-31.5 -65t-21 -64.5
t-7.5 -54.5q0 -35 15.5 -71t38.5 -69.5t50 -63t51 -50.5h1l69 -74q-1 -10 -4 -17.5t-6 -14.5zM143 84l1 -2l-13 13q8 -8 12 -11zM173 154l6 -7l-12 12q2 -2 3 -2.5t3 -2.5z" />
    <glyph glyph-name="FL005Ch" unicode="\" horiz-adv-x="440" 
d="M376 -85q-7 0 -22.5 20t-31.5 47.5t-29.5 55.5t-16.5 44l-200 405h1q-10 13 -22 43t-22 64t-17 64.5t-7 45.5v1q-1 4 -1 9t1 9q3 3 5 3q5 0 13 -8t17 -21l3 -2q15 -15 29 -43l25 -50q73 -109 123 -191t82.5 -143t50.5 -104.5t26.5 -76.5t10 -59t1.5 -51q8 -23 11 -38
t3 -24q0 -10 -4 -13.5t-9 -3.5q-3 0 -10 7zM287 88q0 -10 9.5 -33.5t23 -49t28 -47t23 -28.5t9 6t-13.5 58q0 26 -1.5 51.5t-9.5 58t-25 75.5t-49 103t-81.5 140.5t-121.5 188.5q-2 -1 -10.5 16.5t-18.5 38t-18.5 37.5t-9.5 16l-0.5 -2t-0.5 -3t0.5 -3l0.5 -2q-1 -8 2 -27
t8.5 -42.5t13 -49t15 -47t15 -36t13.5 -16.5z" />
    <glyph glyph-name="FL0061h" unicode="]" horiz-adv-x="367" 
d="M185 450l-2 2zM36 540l-9 9q-19 7 -19 23q0 8 8.5 16t21 14t25.5 10t22 4q5 0 10 -0.5t10 -1.5q6 -1 12.5 -1.5t11.5 -0.5q25 0 49.5 -17.5t47.5 -46.5q23 -24 43 -57.5t35 -68.5t23.5 -69t8.5 -59q0 -35 -15.5 -70.5t-39 -68.5t-50.5 -62.5t-50 -50.5l-70 -76
q1 -19 11 -35q5 -10 8.5 -21t3.5 -30q-19 0 -35.5 7.5t-28.5 19.5l-7 7q-18 13 -29 30.5t-11 34.5q0 12 4 20q18 43 45.5 74.5t55.5 59.5l6 6q19 19 37 38t32.5 41t23 48t8.5 58v5q0 13 -1.5 24.5t-11.5 28.5h1q-3 5 -7 11t-8 13q-8 15 -15.5 27.5t-11.5 16.5q-3 2 -9 8
q-23 19 -55 39t-66 34q-11 4 -15 9q-1 0 -3 2zM155 69q23 21 49.5 49.5t49.5 61t38 67t15 67.5q0 22 -7 52t-19.5 62t-29.5 63t-37 55t-41.5 39t-43.5 15q-11 0 -23.5 2t-20.5 2q-10 0 -25 -4.5t-26 -11.5t-13.5 -14.5t13.5 -14.5q25 -10 49 -23.5t44.5 -27.5t36.5 -27
t25 -22q5 -4 11.5 -14.5t13 -22t12.5 -22.5t10 -16q9 -16 10 -29.5t1 -30.5q0 -39 -11.5 -69t-30 -55t-42 -47.5t-46.5 -46t-44 -50.5t-35 -61q-5 -13 -1.5 -28t13 -28t24 -21.5t31.5 -8.5q0 12 -3.5 21t-8 18t-8 19t-3.5 23z" />
    <glyph glyph-name="FL005Eh" unicode="^" horiz-adv-x="477" 
d="M30 312q20 70 42.5 137t62.5 141h13q1 0 2 0.5t2 0.5q14 0 27 -11t24 -27l2 -2q16 -16 26 -39t10 -39v-7q-41 -59 -70 -111.5t-47 -105t-26 -108.5t-8 -122v-26t1 -28q-4 -4 -14.5 -10t-14.5 -6q-8 0 -14 6l-12 12q-8 3 -13.5 11.5t-8.5 21t-4.5 26.5t-1.5 28q0 4 0.5 8
t0.5 8v22q0 25 3.5 48.5t8.5 46.5t8 46t3 43v14t-2 15v7zM180 623q2 0 11 -1.5t14 -3.5l1 1q3 -2 10 -6.5t13.5 -9.5t12.5 -10t8 -7q23 -26 47 -52t46 -53q42 -49 72.5 -102.5t30.5 -115.5q0 -11 -1 -21t-3 -20q-11 -56 -16 -96t-8 -69q-4 -35 -7.5 -56t-11.5 -33t-23.5 -16
t-43.5 -4q-13 0 -30 5t-28 16l-7 7q-12 6 -20 16.5t-8 25.5v3q0 1 0.5 2t0.5 2v7q29 28 47 60.5t27.5 66t13 65.5t3.5 59q0 45 -13 84.5t-34.5 76t-48.5 71t-55 68.5v40zM42 308q4 -26 1.5 -53t-7.5 -54.5l-10 -55t-5 -53.5q0 -8 -0.5 -26.5t0.5 -38t5.5 -34.5t15.5 -15
q3 0 10.5 4t9.5 6q-3 78 3 142t24 121.5t48 114.5t75 122v5q0 10 -5 25t-13.5 28.5t-19 23t-22.5 9.5q-2 0 -5.5 -0.5t-4.5 -0.5q-35 -66 -57 -132t-43 -138zM192 588q28 -34 55 -68.5t48.5 -71.5t34.5 -78t13 -87q0 -27 -3.5 -60t-13 -67t-27.5 -67t-47 -61q0 -1 -0.5 -4.5
t-0.5 -5.5q0 -11 6.5 -19t15.5 -13t19.5 -7t19.5 -2q24 0 38 3.5t21.5 14t10.5 29t6.5 48t8.5 72t16 100.5q9 50 -4 95t-38.5 86t-60 79t-68.5 74q-2 2 -7.5 6.5t-11.5 9.5t-12 9t-9 5q-1 1 -5 2t-5 1v-23z" />
    <glyph glyph-name="FL005Fh" unicode="_" horiz-adv-x="447" 
d="M50 -66l-21 -8l-5 1h-5q-2 2 -5 5.5t-4 5.5q27 19 58 30.5t69 18.5t85.5 9.5t106.5 3.5q1 0 10.5 -0.5t20 -2.5t19 -6.5t7.5 -11.5q0 -1 -0.5 -3l-0.5 -2q-3 -3 -9 -8.5t-12.5 -11t-13 -10.5t-9.5 -6h-4zM36 -102h6l7 -1l21 8l287 4h7q3 1 10.5 6.5t15 12.5t14.5 13.5
t10 9.5q1 4 1 8v2q0 8 -5 13l-13 13q-3 9 -13.5 14.5t-22.5 7.5t-21.5 2.5t-10.5 0.5q-60 -1 -108 -4t-88 -10.5t-73.5 -21t-64.5 -34.5q2 -8 8.5 -15t11.5 -12h4z" />
    <glyph glyph-name="FL0060h" unicode="`" horiz-adv-x="180" 
d="M118 693q0 -9 1 -16.5t0.5 -13.5t-4.5 -9.5t-14 -3.5q-12 0 -25.5 8t-25.5 19.5t-20 24.5t-8 24q-3 22 1 30t11.5 7.5t16.5 -7t17 -13.5q6 -6 9.5 -13.5t8 -14.5t11.5 -13t21 -9zM121 705q-9 1 -14 4q-2 5 -6 10.5t-12 13.5q-3 7 -19 24q-8 7 -17.5 12.5t-19.5 5.5
q-11 0 -17.5 -7t-6.5 -26v-8q0 -4 1 -9q0 -17 16 -37.5t36 -34.5l1 -1q14 -14 29 -22.5t29 -8.5q17 0 22.5 6.5t5.5 18.5q0 10 -1 14q0 3 -0.5 6t-0.5 7l-7 9l-10 10v2z" />
    <glyph glyph-name="a" unicode="a" horiz-adv-x="615" 
d="M452 283l-1 1v-1h1zM318 436q-12 -39 -24 -77.5t-26 -76.5q6 1 12 1.5t12 0.5q2 0 5 -0.5t5 -0.5h10q2 0 4.5 -0.5t4.5 -0.5h9q10 0 16.5 3t6.5 13q0 1 -0.5 1.5t-0.5 1.5v3zM411 19q0 17 8.5 20t19.5 5q1 0 2.5 -0.5l1.5 -0.5l-59 155q-13 -2 -23 -10t-20 -17
q-13 -12 -27 -22.5t-35 -10.5q-20 0 -28 8l-11 11q-11 3 -15 10q-19 -45 -39 -88t-44 -86q-7 -10 -22.5 -18t-31.5 -8l-17 17h-6q0 20 -7 30t-15 19l-1 1q0 1 -1 2q-14 14 -23.5 29t-9.5 43q22 0 41 9t34.5 23t28 30.5t21.5 32.5q5 9 18 35.5t27 56.5t27 57.5t18 39.5l7 18
q-20 -22 -46 -22q-16 0 -23 7l-12 11q-14 4 -16 14.5t-2 27.5q0 28 22 45t50 31q12 6 23.5 12.5t20.5 15t14.5 20t5.5 27.5q17 0 28 2.5t22 6.5l2 1q1 0 3 1q1 0 1.5 0.5t1.5 0.5h-1q11 4 21.5 6.5t23.5 2.5h11q0 -3 1 -3l3 -3l-1 -2l2 2q3 -4 6.5 -7t4.5 -7l12 -12
q5 -5 5 -10q0 -14 -2.5 -21.5t-7.5 -12.5q13 -5 24.5 -10.5t19.5 -10.5q0 -1 -0.5 -1.5t-0.5 -2.5l18 -17q-2 -17 -8.5 -37.5t-17.5 -36.5q-14 2 -26 10.5t-23 18.5q-5 3 -8.5 5.5t-7.5 6.5q3 -18 9.5 -40t16 -44t20 -43.5t20.5 -39.5q5 -3 9 -5.5t7 -3.5l1.5 -3t0.5 -3
l15 -15q2 -4 2 -9q0 -4 -1 -8l-11 -11v-1q0 -2 1 -3l83 -167q4 -4 5 -7l10 -9q15 -14 19 -37.5t4 -41.5q0 -23 -5.5 -31.5t-28.5 -8.5q-9 0 -23 2t-29 6.5t-29 11t-23 15.5l-6 6q-13 8 -21 17.5t-8 22.5zM423 19q0 -14 12.5 -24t29.5 -16t35.5 -9t29.5 -3q17 0 21 7t4 24
q0 10 -1 22t-4.5 23t-9.5 20.5t-16 14.5l-90 180l-0.5 2t-0.5 3t0.5 3l0.5 2l10 10l0.5 2t0.5 3q0 2 -0.5 3.5l-0.5 1.5q-2 2 -10 6t-10 4q-12 19 -26 46.5t-26.5 57t-20.5 57.5t-8 49q0 2 0.5 5.5t0.5 4.5q3 -3 10.5 -12t17.5 -19t21 -18.5t21 -10.5q8 12 13 29t7 31
q-7 5 -18.5 10t-23.5 9.5t-22.5 7.5t-15.5 3q-2 0 -10 -5t-10 -5t-6 4t-4 6q5 13 15 15t20 2.5t17.5 6t7.5 26.5q0 2 -4 5t-6 5h-5q-21 0 -44 -10.5t-46 -10.5q0 -18 -10 -31t-25 -23t-33 -18.5t-33 -18t-25 -21t-10 -27.5q0 -14 3 -22.5t18 -8.5q24 0 42 23t33.5 50.5
t30.5 50.5t32 23q0 -2 1.5 -3t0.5 -3l-20 -40l-50 -130q-5 -12 -18 -40t-27 -58.5t-27 -56.5t-18 -35q-9 -17 -22 -35t-28.5 -33t-34 -24.5t-39.5 -9.5q0 -16 9 -28t19.5 -23t19.5 -22.5t9 -26.5q10 0 21 7t16 15q65 117 108.5 239.5t81.5 250.5h10l50 -200q0 -1 0.5 -4.5
t0.5 -5.5q0 -18 -10 -23t-25 -5q-14 0 -31 1.5t-31.5 -2.5t-24.5 -17.5t-10 -43.5q0 -20 2 -30.5t24 -10.5q18 0 31 9.5t25.5 21.5t26 21.5t32.5 9.5q11 0 13 -3.5t7 -17.5l60 -160q2 -2 2 -5q0 -7 -5 -8.5t-11.5 -2.5t-11.5 -3t-5 -10z" />
    <glyph glyph-name="b" unicode="b" horiz-adv-x="481" 
d="M70 80q4 0 9 17.5t9.5 39.5t8 41t3.5 22q1 7 3 18t3.5 22t2.5 19.5t1 10.5v24q0 17 -0.5 39.5t-1 46.5t-1 47t-0.5 40v25q-1 0 -3 1.5t-3 0.5l-40 -20q-6 1 -8 5.5t-3 10.5t-0.5 11.5t0.5 7.5q0 3 0.5 12.5t0.5 12.5q42 27 87 34.5t93 7.5h14q14 0 32.5 -1t23.5 -1
q20 -14 30.5 -37.5t10.5 -47.5q0 -21 -9 -45.5t-23.5 -46.5t-32.5 -40t-37 -27q33 3 65 2.5t58 -10.5t42 -31.5t16 -60.5q0 -31 -12.5 -71t-34.5 -75.5t-52 -60t-66 -24.5q-20 0 -35 10.5t-25 27.5t-15 37t-5 40q14 0 23.5 -8.5t18 -19t18.5 -19t25 -8.5q20 0 35 23.5
t24.5 53.5t14.5 58t5 36q0 5 -1.5 15t-5.5 20t-9.5 17.5t-13.5 7.5h-140v10q13 15 31.5 41.5t35 57t27 61t7.5 54.5q-2 15 -13 18t-21 3q-23 0 -44.5 -10t-41.5 -21v-16q0 -11 -0.5 -24t-0.5 -25v-15q0 -35 1.5 -72t4 -74.5t4 -74.5t1.5 -70q0 -9 2 -31t0 -45t-10 -40.5
t-28 -17.5q-17 0 -32 8.5t-28.5 21t-24.5 26.5t-20 25h50zM-8 92q12 -12 17 -17.5t8 -9.5q1 -1 1.5 -2t1.5 -2l-1 1q1 -2 2 -2t2 -2q11 -14 24 -28.5t28 -25.5q14 -14 31.5 -24t38.5 -10q22 0 32 17t13 39q13 -19 30 -29l6 -6q21 -21 50 -21q37 0 69 25.5t55.5 62.5
t36.5 78.5t13 73.5q0 52 -27 79l-6 6q-15 25 -42 36t-59 13q23 28 39 61.5t16 63.5q0 22 -8.5 43.5t-25.5 38.5l-1 1q-13 21 -32 34h-7q-3 0 -6 0.5t-6 0.5q-9 1 -21 1h-19h-14q-50 0 -97 -8t-95 -39v-8q0 -3 -0.5 -6.5t-0.5 -5.5v-18q0 -2 -0.5 -3t-0.5 -3q0 -10 3.5 -20
t14.5 -14l13 -12q4 -4 14 -6l13 6q0 -16 0.5 -34t1.5 -37q1 -24 1 -47v-39v-24q0 -2 -1 -10t-2.5 -19t-3.5 -22t-3 -18q0 -3 -2 -20t-5 -37t-6 -36t-5 -16h-78zM234 85l-3 2q-2 2 -2.5 4t-2.5 4q-7 8 -15 15.5t-21 11.5q0 32 -1.5 66t-3.5 69q0 1 -0.5 1.5t-0.5 2.5h139
q2 -9 3.5 -18t1.5 -13q0 -8 -4 -34t-12.5 -53.5t-21 -49.5t-29.5 -22q-12 0 -22 8q-2 2 -2.5 3t-2.5 3zM179 404v15q0 6 0.5 12t0.5 13v34q18 11 37.5 19.5t39.5 8.5h2q0 -1 0.5 -1.5l0.5 -0.5q0 -18 -7.5 -40.5t-19.5 -45.5t-26 -44.5t-27 -39.5q-1 18 -1 35v35z" />
    <glyph glyph-name="c" unicode="c" horiz-adv-x="425" 
d="M321 -16q0 13 -15.5 30.5t-37 33.5t-43 27t-33.5 11l-20 20q-23 21 -49.5 42t-49.5 45t-38 51t-15 60q0 22 11 52.5t29.5 63.5t42.5 64.5t50 56.5t51.5 40.5t47.5 15.5q11 0 23.5 2t20.5 2q9 0 18 -0.5t16.5 -4.5t12 -13t4.5 -27q0 -14 -21 -28.5t-48 -27.5t-52 -24
t-34 -20q-5 -4 -20 -15.5t-31.5 -24.5t-31 -25t-18.5 -17q-9 -16 -10 -29.5t-1 -30.5q0 -40 21 -69.5t53 -53.5t68.5 -45.5t68.5 -44.5t53 -50t21 -62q0 -14 -4 -29t-12.5 -28t-21 -21t-29.5 -8q0 12 3.5 21t8 18t8 19t3.5 23zM309 -16q0 -11 -3 -19.5t-7 -16.5
q0 -1 -0.5 -1.5t-0.5 -1.5v1q-5 -10 -8.5 -22t-3.5 -33h6l17 -17q21 0 37 9t26.5 23t16 31t5.5 32q0 26 -10 46.5t-27 38.5q-20 29 -53 52.5t-69 46.5q-31 19 -60.5 39t-49.5 43q-16 26 -16 59v5q0 14 1 25.5t9 24.5q4 5 14.5 14t23 19t25.5 20t22 17q5 3 8 5.5t5 4.5
q5 5 20.5 13t35.5 17q18 8 36 17t33 18.5t24.5 20t9.5 21.5q0 17 -3.5 27t-9.5 16l-3 2l0.5 -0.5t1.5 -0.5l-8 8q-8 18 -22.5 21.5t-29.5 3.5h-6q-5 0 -10 -0.5t-10 -1.5q-6 -1 -12.5 -1.5t-11.5 -0.5q-23 0 -50 -16t-54 -42t-52.5 -59t-45 -67t-31 -66t-11.5 -55
q0 -29 10 -52.5t26 -44.5t36.5 -39.5t41.5 -35.5q3 -3 5 -4q1 -2 2 -2.5t2 -1.5q4 -3 7.5 -5.5t6.5 -5.5l2 -2q2 -2 4 -3t4 -3q6 -6 14 -12l19 -19q1 0 2 -0.5t2 -0.5l17 -16q12 0 34.5 -11.5t43.5 -27.5q10 -9 16 -17.5t6 -16.5zM92 160v-1q1 0 1 -1q-2 2 -5 4.5t-5 5.5
l-4 4l-4 4z" />
    <glyph glyph-name="d" unicode="d" horiz-adv-x="471" 
d="M80 90q-8 0 -8 -10t8 -10t8 10t-8 10zM89 65q0 -11 9 -13.5t17 -2.5q10 0 17 1t13.5 3.5t14.5 6.5l20 10q61 28 94 55.5t47.5 62.5t16.5 81t2 111q0 25 -3 50.5t-12.5 45.5t-27.5 32.5t-48 12.5q-14 0 -32.5 -1.5t-36 -6t-31.5 -12.5t-19 -21v-16q0 -11 -0.5 -24
t-0.5 -25v-15q0 -62 10.5 -123t10.5 -123q0 -18 -9.5 -33t-21 -26t-21 -18.5t-9.5 -11.5zM30 30q0 18 3.5 23.5t9.5 8t13 7t14 21.5q1 2 -4 10t-6 10v5v5q17 88 22.5 173t5.5 176q-15 0 -29.5 -9.5t-28.5 -9.5q-1 0 -4.5 4t-5.5 6v5q0 40 17.5 58t52.5 27q0 3 1 11.5
t2.5 18.5t3.5 18.5t3 11.5q1 2 4.5 5.5t5.5 4.5q2 0 6 -4t4 -6q0 -3 -0.5 -9.5t-1.5 -14.5t-1.5 -15t-0.5 -10q29 0 57 5t57 5q58 0 93.5 -23t55 -60.5t26 -84t6.5 -93.5t-3.5 -86t-16.5 -71t-39.5 -57.5t-71.5 -45.5q-11 -5 -30.5 -13.5t-38.5 -16.5t-34 -14t-17 -6
q-1 0 -13 -0.5t-18 -0.5q-5 0 -21 1t-33.5 4t-31 9t-13.5 17zM18 30q0 -9 6 -15.5t15 -11.5l9 -8q8 -8 23 -13t31 -7.5t29 -3.5t18 -1t13.5 0.5t13.5 0.5h4q2 0 14 4.5t28.5 11.5t34.5 14.5t32 13.5q5 2 8.5 3.5t6.5 3.5q47 21 74.5 47.5t41 59.5t17 73t3.5 88
q0 61 -11.5 120t-47.5 99q-22 33 -58 53.5t-93 20.5q-24 0 -45 -3q-4 -1 -7 -1t-7 -1h1l-12 -2l-12 -2q1 5 1 9v7q0 5 -6 10l-11 11q-2 5 -11.5 13t-14.5 8q-3 -1 -10.5 -9t-9.5 -13h1q-2 -8 -4 -23t-4 -28q-36 -11 -53.5 -31.5t-17.5 -62.5v-9l8 -8q4 -5 5.5 -6t7.5 -4h1
l10 -10q3 -3 6.5 -5l3.5 -2q12 0 26 6q-2 -78 -8 -153t-20 -151v-14q2 -5 3 -6t4 -6q1 -5 3 -6q-7 -13 -13 -16q-13 -4 -20 -11.5t-7 -33.5zM179 134q0 32 -3.5 62.5t-7.5 61.5t-7 61t-3 61v15q0 6 0.5 12t0.5 13v40q5 10 18 16.5t29.5 10t33 4.5t29.5 1q20 0 36 -8
q14 -19 18.5 -47t4.5 -57v-23q0 -56 -3 -96.5t-17.5 -72t-45 -56.5t-85.5 -50l-18 -9q-5 -2 -8.5 -3.5t-6.5 -3.5q13 13 24 29.5t11 38.5z" />
    <glyph glyph-name="e" unicode="e" horiz-adv-x="574" 
d="M141 132q3 27 4.5 42t3 26.5l3 23t3.5 30.5q2 20 3 32q0 5 -0.5 18.5t-1.5 29.5v6q0 2 -0.5 3t-0.5 3q-1 -1 -3 -1q-14 -5 -27.5 -10.5t-21.5 -7.5h1l-22 -11h-15q-2 1 -3.5 2t-3.5 3l-12 12h-2q-5 2 -11.5 10.5t-8.5 13.5q20 33 42.5 42t42.5 12q17 2 31.5 11t19.5 44
q-9 -2 -18.5 -4.5t-17.5 -4.5q-18 -5 -37.5 -9.5t-47.5 -4.5l-17 17h-6v29q1 1 9 5.5t18.5 10.5t21.5 12t18 9q76 34 158.5 54.5t172.5 20.5v-6l8 -9q6 2 11 2q12 0 18 -5t8 -13l11 -11q6 -6 7 -15t1 -17v-2q0 -16 -3.5 -24.5t-11 -12.5t-20 -5t-30.5 -1l-17 17h-6
q0 2 -0.5 5.5t0.5 8.5q-23 -10 -52.5 -12.5t-55.5 -2.5h-24q-10 0 -18 -2q-3 -3 -3 -4v-7q0 -4 0.5 -15t2.5 -23q11 0 22 1.5t23 3.5l32 4t33 2h7q2 0 4.5 0.5t5.5 0.5q16 0 32.5 -5t20.5 -19l12 -11q6 -6 6 -14q0 -3 -1 -7q-2 -3 -8.5 -10t-14 -14.5t-14.5 -14t-10 -8.5h-6
q-17 0 -33 1t-33 2q-33 3 -68 3q0 -27 2.5 -54.5t6.5 -54.5q3 -29 6 -58.5t3 -60.5q0 -8 -1 -14.5t-3 -13.5q72 17 142 25.5t118 8.5v-6l17 -17q0 -14 -5.5 -29.5t-14.5 -30t-20 -26t-21 -15.5q-1 0 -2.5 -0.5t-2.5 -0.5q-11 0 -22 11h-38q-7 0 -13 0.5t-12 0.5h-17
q-38 0 -68.5 -3t-59.5 -9t-59.5 -15.5t-67.5 -23.5q3 0 -3 -2q-6 -3 -14.5 -7t-17 -8.5t-15.5 -8t-8 -4.5q-4 -1 -7 -1q-4 0 -8 1q-3 1 -9 7l-9 9q-1 0 -1.5 0.5t-1.5 0.5q-4 2 -10 8t-8 11l2 10q20 26 61.5 47.5t93.5 38.5l-7 8l-3 2q-17 9 -30 28zM435 576q-11 0 -17.5 -8
t-9.5 -19t-3.5 -21.5t-0.5 -16.5q26 0 36.5 4.5t10.5 29.5q0 9 -1.5 20t-14.5 11zM140 115q8 -11 20 -16t25 -5q27 0 41.5 17t14.5 43q0 60 -9 118.5t-9 118.5q43 0 75 -3t68 -3h4q3 2 8.5 7.5l12 12l12 12t7.5 8.5l0.5 2t0.5 3q0 8 -8.5 11.5t-19.5 4.5t-20.5 0.5
t-10.5 -0.5q-32 0 -63.5 -5.5t-63.5 -5.5h-5q-1 3 -3 13t-3.5 21.5t-2.5 22t-1 13.5v6v4q1 2 4.5 5.5t5.5 4.5q16 3 47 2.5t61.5 3.5t53 16.5t22.5 41.5q-81 0 -160 -20.5t-154 -53.5q-7 -3 -17 -8t-19.5 -9.5t-16.5 -8.5l-7 -4v-13q19 0 37 4.5t36 9.5t36 9.5t38 4.5
q0 -38 -6.5 -57.5t-17.5 -29t-25 -11.5t-29.5 -5.5t-30.5 -12t-28 -29.5q1 -2 4.5 -5.5t5.5 -4.5h5h5l20 10q6 2 17.5 6.5t24.5 9.5t24 9t14 5q1 0 3 -1t3 -1q0 -6 0.5 -19.5t1.5 -29.5t1.5 -29.5t0.5 -19.5q-2 -17 -4.5 -43.5t-5.5 -52t-6 -44.5t-4 -20zM20 -15
q1 -2 4.5 -5.5t5.5 -4.5l2 -0.5t3 -0.5t3 0.5l2 0.5l11 5.5t19.5 10t19 9.5t10.5 5q37 14 67.5 23.5t59.5 15.5t59.5 9t68.5 3h17q12 0 25.5 -0.5t25.5 -0.5h17q1 -4 8.5 -8t11.5 -2q9 4 19 13.5t17.5 21.5t12.5 24.5t5 23.5q-33 0 -77 -4t-92.5 -12.5t-98.5 -20.5
t-94 -27.5t-79 -35.5t-53 -43z" />
    <glyph glyph-name="f" unicode="f" horiz-adv-x="536" 
d="M436 620q5 0 16 -1t13 -1l10 -10l-3 -6t-8 -14t-10 -16.5t-9 -13.5q-1 -2 -4.5 -5.5t-5.5 -4.5q-35 10 -68 10.5t-68 0.5q-36 0 -65.5 -3t-58 -9t-58 -15.5t-65.5 -22.5l-20 -10q-1 0 -6 -1t-6 -1q0 17 27 32.5t68.5 29.5t91.5 25t96 19t82.5 12.5t50.5 4.5zM102 39
q11 -11 19 -16t21 -5q2 0 5.5 0.5t4.5 0.5q1 10 2.5 31t3.5 47.5t4 56t4 56t3.5 48t2.5 31.5v20q0 10 -0.5 22t-1 23.5t-1 20.5t-0.5 14h-49q0 10 7.5 16.5t17 11t19 7.5t13.5 5v100q0 3 6 5.5t13.5 3.5t14.5 1.5t9 0.5v-100q51 0 100.5 5t100.5 5q0 -9 -4.5 -20t-12 -20.5
t-16 -15.5t-17.5 -6q-37 0 -72 3.5t-72 3.5q0 -88 4.5 -174.5t4.5 -174.5v-25q0 -20 -1 -48.5t-4.5 -54t-11 -43.5t-19.5 -18q-14 0 -28 21t-27.5 49.5t-27 57.5t-25.5 44zM436 632q-14 0 -51.5 -5.5t-85 -15t-99 -23t-94.5 -29.5t-70.5 -35t-27.5 -39h6l17 -17h13q3 0 5 1
q2 0 3 0.5t2 0.5l22 11h-1q26 9 48 16.5t42 12.5v-72q-9 -3 -19 -7.5t-18.5 -11.5t-14 -17.5t-5.5 -24.5h6l17 -17h27q1 -13 1.5 -26.5t0.5 -24.5v-19q-2 -15 -4.5 -52.5t-5.5 -80.5q0 -4 -0.5 -8t-0.5 -8q-2 -32 -4.5 -61.5t-4.5 -49.5q-9 0 -17 5.5t-21 19.5l-26 -26
q14 -17 23 -33.5t17 -35.5q1 -2 2 -4.5t2 -4.5q8 -17 16.5 -33.5t17 -30.5t17.5 -24.5t18 -14.5l8 -8q12 -12 23 -12q15 0 24 19t13.5 46t6 57t1.5 51v25q0 44 -1.5 87t-3.5 87q-2 42 -3 83t-1 83q15 -1 30.5 -2t31.5 -2q36 -3 73 -3q10 0 20.5 8t19 20t14 26t5.5 26l-17 17
v6q-23 0 -51 -1t-51 -3q-3 0 -6 -0.5t-6 -0.5q-17 -2 -34.5 -3.5t-35.5 -1.5v74q16 2 33 3t37 1h17q29 0 57.5 -1.5t62.5 -10.5q5 2 11 8t7 9h-1q4 7 8.5 17t8 19.5t5 16.5t0.5 8l6 -2l-19 18l2 3l-15 15h-4q-2 0 -4 0.5t-4 0.5q-5 1 -12 1h-9zM451 550l2 2z" />
    <glyph glyph-name="g" unicode="g" horiz-adv-x="557" 
d="M338 55l4 -5v1zM9 194q0 2 -0.5 4t-0.5 4v8q0 53 17.5 108t34.5 100q6 8 20.5 29.5t31.5 46t33 47.5t24 35h-2q7 11 11.5 17.5t9 9.5t10.5 3.5t17 0.5q8 0 20.5 -3t25.5 -8t24 -13.5t16 -18.5l10 -9q10 -10 10 -22t-20 -28.5t-43 -34.5q-17 -13 -31 -23.5t-19 -18.5
q-90 -117 -90 -259v-9q0 -6 0.5 -13.5t0.5 -15.5t0.5 -15.5t0.5 -12.5v-7q1 -2 2 -4.5t2 -4.5q18 -19 41.5 -25.5t57.5 -6.5q25 0 45.5 16t35.5 40.5t25 54.5t15 57q-28 -7 -54.5 -25.5t-46.5 -32.5h-24l-17 17h-6q0 22 9.5 38t25 27t34.5 19t38 15q3 1 5.5 2t5.5 2
q12 5 22.5 9t16.5 8q3 5 3.5 6t3.5 6q2 4 4.5 7t4.5 6q2 5 9.5 11.5t12.5 8.5q19 -10 22 -20l1 -1h95q0 -2 -0.5 -3t-0.5 -3l18 -17q0 -12 -6 -25.5t-14.5 -25t-19 -19.5t-19.5 -8h-6q-3 0 -10.5 1.5t-14.5 3.5h-1q-5 2 -9 2.5t-6 1.5v-4q0 -5 -0.5 -12.5t-0.5 -11.5
q0 -79 31 -150q0 -2 2.5 -5t5.5 -7q5 -7 8.5 -12.5t3.5 -7.5v-3q0 -2 0.5 -4t0.5 -4q0 -6 -8.5 -14.5t-19.5 -16t-22 -13t-15 -5.5q-9 0 -17 8l-10 10q-13 4 -20 17t-12 29q-11 -10 -24.5 -21t-28 -20.5t-29.5 -15.5t-29 -6q-42 0 -76 14t-60 38q-42 29 -65.5 75t-25.5 102z
M21 194q2 -41 16.5 -77.5t39.5 -63.5t60 -43t79 -16q16 0 34 9.5t35 22t31.5 26t24.5 22.5h10q1 -5 3 -18.5t6 -27.5t10.5 -24.5t15.5 -10.5q4 0 13 4.5t18.5 10.5t17 13t7.5 12q0 2 -0.5 6t-0.5 5t-3 5.5t-7 9.5t-7 9.5t-3 5.5q-16 36 -23.5 74.5t-7.5 77.5q0 5 0.5 16
t0.5 12q0 2 4 6t6 4q1 0 7 -1.5t12.5 -3.5t12.5 -3.5t8 -1.5h6q7 0 16 6t16.5 15t12.5 19.5t5 19.5h-98q0 4 1 6.5t1 4.5q0 5 -10 9q-2 -1 -5.5 -4.5t-4.5 -5.5q-1 -1 -4 -5.5t-6 -9.5t-6 -9.5t-4 -5.5q-14 -10 -39.5 -19t-51 -19.5t-44 -25t-18.5 -36.5h13q12 9 26.5 19.5
t31 20t33.5 15.5t34 6q2 0 7.5 -0.5t7.5 -0.5q-2 -27 -11 -63.5t-25.5 -69.5t-42 -55.5t-59.5 -22.5q-48 0 -78.5 14.5t-53.5 56.5q0 4 -0.5 14.5t-0.5 22.5t-0.5 23t-0.5 15q0 146 92 265q7 9 25.5 23t37.5 29t33.5 28t14.5 19q0 10 -9 18t-21.5 13t-25.5 8t-21 3
q-14 0 -19 -3t-15 -18q-6 -9 -21.5 -32t-33.5 -48.5t-33.5 -48t-21.5 -31.5q-9 -24 -18.5 -51.5t-17 -56t-12 -57t-2.5 -55.5z" />
    <glyph glyph-name="h" unicode="h" 
d="M406 597q0 1 -1 1zM291 -62q11 14 29.5 22t39.5 14q23 7 41.5 14t18.5 23v3q-8 1 -15 6q-14 5 -28 11t-25 17l-5 4q-16 10 -27 25.5t-11 43.5v198q-19 -1 -43.5 -3t-46 -6t-36 -10.5t-14.5 -16.5q0 -26 5 -53t11 -53t11 -53t5 -56q0 -17 -7.5 -35t-20.5 -33t-30.5 -25
t-38.5 -10l-17 17h-6q0 67 -1.5 129.5t-7.5 129.5l-21 -10q-3 1 -7 4t-7 6l-8 7q-5 3 -11.5 9t-8.5 10q-1 4 -1 9q0 16 7.5 22.5t18.5 12.5h1t2 1q12 6 24.5 17t17.5 46q1 4 1.5 8t1.5 9q3 23 8 60.5t11.5 73t14 61.5t15.5 26q14 0 23 -8t14 -19l8 -7q8 -8 11.5 -18t3.5 -20
q0 -21 -3.5 -38.5t-7.5 -34.5q-5 -18 -8 -36t-3 -36v-23l147 49l3 3v40q0 20 2 42t8 43.5t18.5 40.5t33.5 34q5 -4 16.5 -15.5t15.5 -16.5q0 -2 0.5 -2.5l0.5 -0.5l2 -2q5 -5 8.5 -9t5.5 -6q1 -4 1 -7t-1 -7q-2 -5 -3 -6t-4 -3q-4 -3 -8.5 -7l-4.5 -4q-1 -2 -2.5 -11t-3 -20
l-3 -22t-1.5 -15v-14q0 -11 -0.5 -16.5t-0.5 -12.5h47v-6l17 -17q-1 -23 -3 -36q-6 -31 -17 -38.5t-24 -7.5h-18q0 -2 -1 -4v-32q0 -6 -0.5 -11.5t-0.5 -10.5v-14q0 -44 4 -80t16 -74q19 -6 33.5 -15t22.5 -25l6 -5q9 -9 14.5 -22t5.5 -33q0 -30 -18 -50t-44 -32t-54 -17.5
t-49 -5.5h-8q-3 1 -9 7l-10 10h-2q-4 2 -10 8t-8 11zM301 -69q1 -2 4.5 -5.5t5.5 -4.5h5q19 0 46 5t51.5 16t41.5 29.5t17 45.5q0 36 -20.5 51t-50.5 23q-19 47 -25 88t-6 92v14q0 10 0.5 21.5t0.5 20.5v14q3 11 11 11h17q10 0 18.5 6.5t13.5 32.5q1 6 1.5 15.5l0.5 9.5h-59
q0 2 -1 14.5t-2 31t0 29.5q0 5 1.5 16t3 22.5t3 20.5t2.5 11q0 1 3 4l6.5 6.5t6.5 6t4 3.5l0.5 2t0.5 3t-0.5 3l-0.5 2q-2 3 -9.5 10.5t-10.5 9.5q-22 -15 -32.5 -39.5t-14.5 -51.5t-3.5 -53.5t0.5 -45.5l-10 -10l-180 -60v13q0 9 -0.5 19.5t-0.5 19.5v13q0 19 3.5 37.5
t7.5 36t7.5 35t3.5 36.5q0 13 -7.5 26.5t-23.5 13.5q-3 0 -7 -15t-8 -38t-8 -51t-7.5 -53.5t-6 -45.5t-3.5 -27q-5 -32 -16.5 -45.5t-23.5 -20t-21.5 -11.5t-9.5 -18q0 -1 0.5 -3l0.5 -2q1 -2 4.5 -5.5t5.5 -4.5l40 20h5h5q8 -75 10 -143.5t2 -143.5q17 0 31.5 9t25 23
t16.5 30.5t6 31.5q0 27 -5 54t-11 53.5t-11 53t-5 54.5q0 17 25 26t57 13.5t61 5t38 0.5v-227q0 -21 8 -34t20.5 -21.5t27 -13t27 -10t20.5 -12.5t8 -19q0 -20 -16.5 -29.5t-38 -16t-43.5 -13.5t-33 -21z" />
    <glyph glyph-name="FL0069h" unicode="i" horiz-adv-x="218" 
d="M20 62q14 0 23.5 -6.5t23.5 -6.5q15 0 21.5 18t8.5 41.5t1 45.5t-1 31v16q0 10 -0.5 20.5t-0.5 18.5v10q-1 18 -2 44.5t-2.5 56t-2.5 59t-2.5 53t-2 38.5l-0.5 15l-20 20q1 2 4.5 5.5t5.5 4.5q3 2 11.5 6t18.5 9t18.5 9t11.5 6l2 0.5t3 0.5q11 0 13.5 -9t2.5 -17
q0 -12 -5.5 -18t-13 -10t-14 -9.5t-8.5 -17.5q3 -11 9.5 -43t13 -69t12 -69.5t7.5 -44.5q0 -3 1 -25.5t1 -45.5v-24v-19q0 -9 -0.5 -20.5t-0.5 -22.5t-0.5 -20t-0.5 -13q-8 -28 -22.5 -51.5t-47.5 -28.5q-11 -2 -22.5 3.5t-21.5 15t-16 21t-6 22.5zM8 63q0 -17 13 -36
t30 -30l4 -3q10 -10 22.5 -16.5t23.5 -6.5h6q37 6 53 31t25 55v11q0 5 0.5 11t0.5 14q0 6 0.5 12t0.5 12v62q0 17 -0.5 35t-1.5 28v9q-2 11 -7 43.5t-12 69t-13.5 69t-9.5 44.5q4 11 16 18q9 5 17 12t8 24q0 8 -1.5 16t-6.5 13l-12 11q-2 8 -8 13t-17 5q-3 0 -7 -1
q-2 -2 -12 -6.5t-21 -9.5q-6 -3 -12 -6.5t-11 -5.5q-3 -2 -6 -3.5l-3 -1.5l1 -1q-6 -5 -11 -10.5t-7 -9.5l22 -23q1 -10 1 -16t1 -23q1 -23 2.5 -53.5t3 -62t2.5 -59.5t2 -47v-39q0 -3 0.5 -5.5t0.5 -4.5v-43q0 -5 0.5 -9.5t0.5 -9.5q0 -13 -0.5 -27t-3 -25t-6 -18.5
t-9.5 -7.5q-9 0 -19 5q-2 1 -3 1t-3 1l-10 4t-13 2z" />
    <glyph glyph-name="j" unicode="j" horiz-adv-x="441" 
d="M102 192l17 -17v-31q10 24 24.5 43.5t31.5 19.5q10 0 20 -5.5t19 -13.5t17 -16.5t13 -14.5q0 -1 -1 -1v0q4 -4 10 -12q7 4 11.5 6.5t8.5 4.5q9 3 12 8.5t3 11.5v50q0 4 -0.5 13t-1.5 23q-1 11 -1.5 25t-1.5 28q-2 30 -3.5 56.5t-1.5 34.5q0 10 0.5 24t2 29t3 29.5
t3.5 26.5q-24 -15 -44.5 -36t-36.5 -40l-5 -2.5t-3 -0.5q-3 -1 -8 -1q-10 0 -19 7l-12 11q-13 5 -17.5 17.5t-4.5 25.5q0 33 19 53t46 31.5t58 15t55 3.5h4q2 0 5.5 -0.5t7.5 -0.5h25q3 -8 6 -9t6 -3q1 -1 2 -1q7 -4 12.5 -8t7.5 -12l9 -8h-1l4 -3q7 -7 7 -21q0 -2 -0.5 -6
t-0.5 -7v-6q-2 -8 -6 -34t-9 -56q-5 -29 -9.5 -54.5t-5.5 -33.5q0 -3 -0.5 -7t-0.5 -9q0 -17 1.5 -42t3.5 -49v-11t1 -10h8v-6l17 -17v-32l-66 -66h-11q-11 -8 -33.5 -23.5t-47.5 -32.5t-46.5 -32t-29.5 -21q-3 -2 -12 -6.5l-19 -9.5l-19 -9.5t-12 -5.5h-6q-2 0 -3.5 -0.5
t-3.5 -0.5q-17 0 -23 7l-13 12q-13 5 -15 17t-2 26v4q0 24 7 36t20 18l-1 1q-9 5 -14 13q-7 7 -11 12t-9 12t-12 17.5t-19 29.5v25q1 0 2.5 0.5t3.5 0.5q2 1 5 1.5t5 1.5q11 5 28 10.5t25 7.5h15q2 0 5.5 0.5t4.5 0.5v-6zM175 195q-12 0 -22.5 -12t-19 -28t-13 -33t-4.5 -27
h24l9.5 5.5t23 13.5t26.5 16.5t21 14.5q2 1 5.5 4.5t4.5 5.5q-8 10 -23.5 25t-31.5 15zM90 186q-2 0 -5 -0.5t-5 -0.5q-7 -2 -17 -5t-19.5 -6.5t-16.5 -6l-7 -2.5v-10q1 -2 9.5 -14t20.5 -29.5t20 -26.5q5 -6 8.5 -9t11.5 -3v113zM59 11q0 -14 2 -25.5t19 -11.5q2 0 5.5 0.5
t4.5 0.5q3 1 12 5t18.5 9t18 9.5t11.5 6.5q9 6 31.5 21.5t48 33.5t48.5 33.5t32 21.5h10l60 60v20h-23q0 9 -1.5 31.5t-3 48t-2.5 48.5t0 32q1 7 5.5 33.5t9.5 56.5t9.5 56.5t5.5 33.5q0 1 0.5 7.5t0.5 9.5q0 8 -3.5 12t-8 6.5t-10 5.5t-9.5 9q-4 0 -17.5 0.5t-17.5 0.5
q-23 0 -51.5 -3.5t-54 -13t-43 -27.5t-17.5 -47q0 -11 4 -21.5t17 -10.5q2 0 5.5 1t4.5 1q14 16 31 33.5t36.5 32.5t41.5 24.5t46 9.5h5l-40 -30q-1 -1 -3 -16t-3.5 -35t-2.5 -42t-1 -37q0 -7 1.5 -33.5t3.5 -56.5t3.5 -56.5t1.5 -33.5v-35q0 -13 -0.5 -26t-19.5 -19
l-28 -14t-42.5 -21.5t-42.5 -21t-27 -13.5q-16 -7 -30.5 -10.5t-26 -9t-18 -15.5t-6.5 -29z" />
    <glyph glyph-name="k" unicode="k" horiz-adv-x="450" 
d="M275 153l4 -4l4 -4l-4 4zM48 46q1 12 1.5 23.5t0.5 23.5q0 57 -6.5 113.5t-14.5 113.5q-1 5 -1 9t-1 9q-7 51 -13 102t-6 103q0 14 9 28.5t22.5 26.5t28.5 19.5t27 7.5q11 0 20 -7t13 -18l8 -7q13 -13 13 -30q0 -8 -1.5 -19t-3 -22.5t-3 -20t-2.5 -11.5q0 -3 0.5 -6.5
t0.5 -8.5q1 -8 1 -17v-20q19 27 42.5 54t47 51t46 45t40.5 37v-3q8 4 13 4q13 0 21.5 -7.5t14.5 -18.5l7 -7q5 -5 8 -11l32 16q-2 -3 -4 -9l18 -18q-12 -28 -26 -48t-30 -34t-32.5 -24.5t-33.5 -19.5q-20 -11 -39.5 -23t-34.5 -27.5t-24 -36.5t-9 -50q0 -31 9.5 -56
t25.5 -48q9 -11 18 -21t19 -20q14 -14 26.5 -28.5t24.5 -30.5q29 -33 49 -71.5t20 -91.5q0 -15 -2 -31t-9.5 -29t-21.5 -21.5t-38 -8.5l-17 17h-6q0 21 2 31.5t4 18.5v-1q0 2 0.5 3t0.5 3q2 8 4 15t2 14q0 26 -9.5 50.5t-25.5 48t-35.5 46t-40.5 45.5q-15 16 -30 33t-29 34
v-47q0 -7 -1.5 -24t-3 -36.5t-3.5 -37.5t-3 -26q-1 -2 -4 -6.5t-6.5 -10t-7 -10t-6.5 -7.5q-4 -2 -9 -2q-4 0 -8 1q-3 1 -9 7l-9 9q-2 0 -3 1q-5 2 -10.5 7.5t-7.5 10.5v8zM60 42q1 -2 4.5 -5.5t5.5 -4.5l2 -0.5t3 -0.5q2 0 3.5 0.5l1.5 0.5q3 3 10.5 14.5t9.5 15.5
q1 7 3 24t3.5 36t2.5 36t1 24v16q0 11 -0.5 25t-0.5 29v28q18 -42 53.5 -81t70.5 -78t61.5 -80.5t26.5 -88.5q0 -22 -6.5 -37t-6.5 -35q18 0 28.5 7.5t16 19.5t7 26t1.5 28q0 42 -14 75.5t-35.5 61.5t-46.5 53t-46.5 51.5t-35.5 57t-14 68.5q0 37 13 61.5t33.5 42t46 31
t50 28t45.5 33.5t33 48l-20 -10q-3 6 -6.5 15t-8 17.5t-10.5 14t-15 5.5q-2 0 -5.5 -0.5t-4.5 -1.5q-24 -21 -54.5 -50t-60.5 -62t-56 -68.5t-40 -69.5l2 53q2 33 0.5 59t-1.5 38q1 3 2.5 11.5t3 19.5l3 22t1.5 18q0 11 -7 20.5t-18 9.5t-24 -6.5t-24 -16.5t-19 -22.5
t-8 -24.5q0 -62 8 -124t16.5 -124.5t14 -125.5t1.5 -127z" />
    <glyph glyph-name="l" unicode="l" horiz-adv-x="501" 
d="M220 590q8 0 8 -10t-8 -10t-8 10t8 10zM210 550q8 0 8 -10t-8 -10t-8 10t8 10zM200 530q8 0 8 -10t-8 -10t-8 10t8 10zM39 19q0 11 5.5 14t5.5 12q0 25 -4.5 48.5t-10.5 47.5t-10.5 48.5t-4.5 50.5q0 4 1.5 18.5t3.5 31.5t3.5 31.5t1.5 18.5v10q1 6 5 23t9 36t9.5 36.5
t6.5 24.5q3 12 11 40t18.5 57t21.5 51.5t19 22.5q13 0 27.5 -7.5t26 -19t19 -26t7.5 -28.5q-17 -22 -39.5 -55.5t-42.5 -71t-34 -75.5t-14 -68v-210l10 -20q64 48 144 79.5t161 31.5q4 0 17.5 -0.5t17.5 -0.5q8 -3 9.5 -8.5t1.5 -11.5q0 -12 -3.5 -27t-10.5 -29t-16 -26
t-21 -18l-30 30l-5.5 0.5t-12.5 0.5t-14.5 0.5t-11.5 0.5q-28 0 -50.5 -2.5t-44 -7.5t-43.5 -13t-48 -19q-6 -2 -20 -10t-20 -10q-1 -1 -5.5 -4t-9.5 -6.5t-9.5 -6.5t-5.5 -3q-14 -3 -17.5 4t-3.5 15zM220 602q-6 0 -10 -2q-1 0 -1 1l-7 7q-14 20 -33.5 32.5t-38.5 12.5
q-11 0 -24 -23.5t-25 -54.5t-21 -60.5t-12 -41.5q-2 -7 -6.5 -24.5t-9.5 -36.5t-9 -36t-5 -23v-12l-5 -50q-2 -17 -3.5 -32t-1.5 -19q0 -29 4.5 -54t10.5 -49q1 -2 1 -5t1 -5q5 -21 9 -41.5t4 -40.5q0 -2 -0.5 -2.5l-0.5 -0.5q-5 -5 -7.5 -9.5t-2.5 -13.5q0 -11 2.5 -20
t14.5 -11l12 -12q4 -6 17 -6q7 0 10 1l-1 1q5 2 15.5 9.5t15.5 10.5q3 2 9.5 5t11.5 5l20 10h-1q26 10 47.5 18t42.5 13t43.5 7.5t49.5 2.5h9q4 0 8.5 -0.5t8.5 -0.5h9l18 -17h1q0 1 1 1l18 -17q14 7 25 20.5t19 29t12.5 32t4.5 29.5q0 5 -0.5 10.5t-5.5 10.5l-3 2h1l-10 10
q-2 5 -6 10t-15 9h-19q-4 0 -7.5 0.5t-5.5 0.5h-4q-74 0 -148 -27t-138 -70v184q0 23 8.5 50.5t22.5 57t30.5 58t33.5 53.5l4 -4q4 -4 12 -4q17 0 17 19v2q10 3 10 18q0 10 -5 15l-3 3v3h1q17 0 17 19q0 10 -5 15l-13 12q-3 15 -19 15z" />
    <glyph glyph-name="m" unicode="m" horiz-adv-x="703" 
d="M269 55q0 2 0.5 3.5l0.5 1.5q1 1 5.5 2.5t9.5 2.5t9.5 2.5t5.5 2.5q6 9 11 34.5t8.5 58.5t5.5 70.5t3.5 71.5t2 61t0.5 39v14q0 11 -0.5 23t-0.5 23v15q-2 10 -13 10.5t-17 0.5q-33 0 -66 -9.5t-64 -21.5q19 -33 30 -59.5t11 -63.5q0 -17 -1 -44.5t-5 -59.5t-11 -65
t-19 -59t-29.5 -43t-41.5 -17q-5 0 -16 0.5t-22 2.5t-19 7.5t-8 15.5q0 6 8 9.5t18.5 7t20.5 8t14 10.5q15 27 23.5 61t13.5 69.5t7.5 69t5.5 60.5v5q0 33 -5.5 50t-15.5 24.5t-23 9.5t-27 5t-29.5 10.5t-29.5 25.5q0 2 4 6t6 4q1 0 5.5 -1.5t9.5 -3.5t9.5 -3.5t5.5 -1.5h10
h10l52.5 10t65 13t66 14t56.5 13q-2 1 -10.5 3t-17.5 5t-16 7t-7 10q0 9 11 12.5t21 3.5h10q12 0 21.5 -5t18.5 -10.5t18 -10.5t20 -5q25 0 50.5 4.5t51 10.5t50.5 10.5t50 4.5q11 0 17 -7t9 -17.5t3.5 -21.5t0.5 -20q0 -11 -3.5 -17.5t-16.5 -6.5q-20 0 -40.5 5t-40.5 5
h-10l25 -40v-250l3 -8.5t6.5 -20t8 -23t7.5 -18.5q9 -20 22.5 -27t33.5 -7h27q0 -12 -5.5 -27t-15 -28.5t-21.5 -22.5t-25 -9q-30 0 -50 18.5t-32.5 45.5t-18 56.5t-5.5 50.5q0 6 0.5 26t2 47t2.5 57t2.5 57t2 47t0.5 26v6v4q-1 5 -4.5 20t-5.5 20h-9q-6 0 -13.5 0.5
t-13.5 0.5h-9h-38q-20 0 -37 -11l30 -60v-400q0 -6 -4 -13t-10 -13t-13 -10t-13 -4t-18 6t-24 14.5t-20.5 18t-8.5 16.5zM257 55q0 -9 11.5 -21.5t25.5 -23.5h1q7 -7 16.5 -14t18.5 -12.5t17 -9t13 -3.5q7 0 16 5t16 12t12 15.5t5 16.5v402l-27 54q12 6 25 6h47q2 0 5 -0.5
t6 -0.5q2 -4 2 -7q0 -2 1 -4v-10q0 -5 -0.5 -18t-1.5 -31q-1 -17 -1.5 -38t-1.5 -43t-2 -43.5t-1.5 -39t-1 -30.5t-0.5 -17q0 -18 4 -42.5t12.5 -48.5t22 -45.5t33.5 -33.5l4 -4q26 -26 62 -26q15 0 28.5 11t24 27t17 34t6.5 33l-17 17v6h-39q-19 0 -30 7q-4 8 -8 23t-8 29
q-1 2 -1.5 4t-4.5 10v252l-17 28q7 -1 15 -2.5t16 -2.5q22 -5 43 -5q19 0 24 8.5t5 24.5q0 14 -2.5 34.5t-13.5 31.5l-9 9q-5 10 -12.5 16.5t-21.5 6.5q-24 0 -45.5 -3.5t-44.5 -8.5q-3 -1 -6.5 -1.5t-6.5 -1.5q-26 -6 -51 -10.5t-48 -4.5q-9 0 -16 3.5t-14 8.5
q-11 7 -22.5 13t-25.5 6h-10q-14 0 -29 -6t-15 -22q0 -8 5 -13.5t13 -9.5q-25 -6 -52.5 -11.5t-54.5 -11t-51 -10t-41 -7.5h-16q-4 0 -13 4h-8q-3 1 -6 1.5l-3 0.5v4q-5 0 -13.5 -10t-8.5 -15q9 -12 18 -20t17 -13h1q18 -18 34.5 -23.5t31.5 -7.5q8 -1 19 -5q4 -8 6.5 -20.5
t2.5 -32.5v-4q-2 -11 -2.5 -22t-1.5 -23q-2 -26 -5 -53.5t-7.5 -54.5t-12 -52.5t-18.5 -46.5q-11 -11 -28 -16q-2 -1 -3 -1l-2 -1q-12 -4 -21.5 -9t-9.5 -17t6 -19t16 -12l9 -8q6 -6 14.5 -9t17.5 -4.5t17.5 -2t13.5 -0.5h3q26 0 45 17.5t32 44.5t20.5 61t11.5 67t5.5 61.5
t1.5 45.5q0 36 -10 62t-27 57q27 11 56 18t59 8v-20q0 -3 0.5 -6t0.5 -6v-25q0 -11 -0.5 -35t-2 -54.5t-4 -65.5t-6 -67.5t-8.5 -60.5t-11 -44h-1q-1 -1 -4 -1q-6 -2 -11.5 -4t-11.5 -8q-2 -3 -2 -4v-6zM47 516q1 0 0.5 0.5l-0.5 0.5v-1z" />
    <glyph glyph-name="FL006Eh" unicode="n" horiz-adv-x="516" 
d="M322 585q0 1 0.5 2.5t0.5 2.5q4 3 15.5 9t24.5 12t24.5 11t15.5 7l2 0.5t3 0.5q10 0 16.5 -11.5t8.5 -18.5q1 -5 4 -17.5t6 -26t6 -26t4 -17.5v-30q0 -21 0.5 -45t0.5 -46v-30q0 -43 1 -90t-1 -94t-8.5 -93t-22.5 -86q-1 0 -4.5 -0.5t-5.5 -0.5q-5 0 -12.5 1.5t-7.5 9.5
v358q0 20 -2 45t-7 50.5t-12.5 49t-18.5 39.5l-30 30l-0.5 1.5t-0.5 2.5zM20 76q5 0 16 1.5t20.5 5.5t15.5 11.5t1 20.5v24q0 17 0.5 34.5t0.5 34.5v24v60v36t-1 34.5t-3.5 37.5t-6.5 45q-2 10 -8.5 22t-14 24t-13 22.5t-5.5 18.5q0 11 8.5 18t20 11.5t23.5 6.5t19 3
q5 1 15.5 -7t14.5 -13q1 -4 2.5 -16.5t3 -26.5t3 -26.5t1.5 -17.5v-19q15 -4 17.5 5t2.5 20q0 12 2.5 23t18.5 11q19 0 41 -25.5t44 -64t42.5 -85t36.5 -88t25.5 -72.5t9.5 -40v-4q-1 -2 -4.5 -5.5t-5.5 -4.5l-10 10q-23 51 -43.5 88t-43.5 69t-50 63t-63 71q-2 2 -5.5 9.5
t-4.5 9.5l-10 -10q0 -11 0.5 -36.5t0.5 -55.5q0 -29 -0.5 -55t-0.5 -37q0 -5 -1 -20.5t-2.5 -34t-3.5 -35.5t-3 -26q-1 -8 -4 -29t-8.5 -43t-14.5 -39t-23 -17q-8 0 -17 10t-17 23.5t-13.5 26.5t-5.5 19zM310 585q0 -4 1 -8l25 -26q12 -19 20.5 -43t14 -49.5t8 -49.5
t2.5 -42v-185q-12 34 -29.5 76.5t-38 83.5t-42 76.5t-41.5 55.5q-15 19 -29 30.5t-27 11.5q-12 0 -19 -5q-1 8 -2 14.5t-1 9.5q-1 1 -1.5 2t-1.5 2l-14 12v4q-6 8 -20 17.5t-21 9.5h-2q-8 -1 -22 -3.5t-27.5 -8t-23 -14.5t-9.5 -24q0 -11 7.5 -26t17.5 -30q6 -10 10.5 -18.5
t5.5 -13.5q4 -25 6.5 -45t3.5 -37.5t1 -34.5v-35v-84q0 -4 -0.5 -8t-0.5 -9v-79l2 -7q-1 -6 -6.5 -9.5t-12.5 -5.5t-14 -2.5t-11 -0.5l-11 -10q0 -7 5.5 -20t14.5 -27.5t19 -26.5t19 -16l8 -7q11 -11 19 -11q16 0 26.5 15.5t17 36.5t9.5 43t5 34q0 2 0.5 3.5t0.5 3.5
q1 9 3 26t3.5 35.5t2.5 34.5t1 21v26q0 14 0.5 31t0.5 35q0 19 -0.5 36t-0.5 31v7q30 -34 54 -62.5t45 -58.5t40.5 -65t40.5 -82l19 -19q2 0 3 1l17 -17v-76q0 -10 4.5 -14.5t10.5 -6.5l13 -12q5 -5 12 -5.5t12 -0.5q2 0 3.5 0.5t3.5 0.5h9q23 57 29.5 120.5t6.5 126.5
q0 17 -0.5 33.5t-0.5 32.5q0 15 -0.5 30t-0.5 29v30q0 11 -0.5 22t-0.5 23v77q-1 5 -4 18t-6.5 27.5t-6.5 27t-4 17.5q-2 5 -5.5 12.5t-9.5 13.5l-7 5q-5 9 -12.5 17.5t-18.5 8.5q-4 0 -8 -1q-4 -2 -15.5 -7.5t-25.5 -12t-27.5 -14t-20.5 -12.5q0 -1 -0.5 -2.5t-0.5 -2.5v-5
zM146 541l-2 2z" />
    <glyph glyph-name="o" unicode="o" 
d="M110 250q0 13 5 21t16 19q13 -14 29 -19.5t34 -5.5q0 -11 -3.5 -22.5t-10 -21.5t-15.5 -16t-21 -6q-20 0 -27 17t-7 34zM280 20q0 2 0.5 5.5t0.5 4.5q36 4 59 21.5t36.5 44t19 58.5t5.5 65v44q0 38 -5 78.5t-25 68.5q-4 6 -11.5 15.5t-8.5 9.5h-80q-2 0 -9.5 10t-10.5 15
v5q0 25 18.5 35.5t38.5 10.5q85 0 124.5 -46.5t39.5 -128.5q0 -23 -2.5 -56.5t-8.5 -71t-17.5 -75t-29.5 -67.5t-43.5 -48.5t-59.5 -18.5q-14 0 -22.5 3t-8.5 18zM20 275q0 3 0.5 8.5t0.5 6.5q1 5 3.5 18t5.5 27.5t6 27t5 17.5q18 14 39.5 39.5t43 54t42 55t35.5 41.5
q-5 32 20 32q12 0 20 -7t13 -17t7 -22t2 -21q0 -3 -0.5 -12.5t-1.5 -12.5q-28 -27 -60 -55t-59 -59t-45 -66.5t-18 -77.5q0 -33 11 -64.5t29 -61t39.5 -56t42.5 -50.5q0 -1 0.5 -2.5t0.5 -2.5t-0.5 -3l-0.5 -2q-1 -2 -4.5 -5.5t-5.5 -4.5h-5h-5q-35 12 -64.5 44t-51 72.5
t-33.5 83t-12 75.5zM268 20q0 -15 4.5 -22t13.5 -9l12 -12q5 -5 13.5 -6t19.5 -1q36 0 63 19t46 50t31 69.5t18.5 76.5t9 73t2.5 58q0 90 -45 138q-21 33 -57.5 51t-90.5 18q-6 0 -16 -2q-2 14 -6.5 30.5t-15.5 27.5l-7 6q-6 12 -16.5 20.5t-25.5 8.5q-33 0 -33 -34v-7
q-14 -14 -28.5 -33t-29.5 -40q-23 -32 -48.5 -62.5t-50.5 -49.5q-5 -12 -10 -37t-9 -44q-1 -5 -3 -13v-7q0 -2 -0.5 -3.5t-0.5 -3.5v-5q0 -30 9.5 -68t26.5 -75.5t41.5 -70.5t53.5 -54q27 -24 59 -36h16q4 2 9.5 7.5t6.5 8.5t1 5v6l-1 1v5q-5 5 -9 9.5t-8 9.5v2
q-8 9 -17 18.5t-17 20.5q-25 32 -43.5 67t-25.5 72q8 -10 18 -14l9 -8q11 -11 27 -11q14 0 25 8t18.5 20t11.5 27t4 29l-17 17v6q-20 0 -39 6.5t-35 23.5l-11 -11q17 43 52.5 79.5t72.5 69.5q6 -8 13.5 -15t11.5 -7h1l10 -10q7 -7 9 -7h68q20 -29 25 -67.5t5 -75.5v-44
q0 -31 -5.5 -61t-19 -54.5t-36.5 -41.5t-59 -21v-14q0 -1 -0.5 -2t-0.5 -2v-3z" />
    <glyph glyph-name="p" unicode="p" horiz-adv-x="601" 
d="M199 400q0 -14 14 -18.5t27 -4.5h16q0 6 -1.5 15t-5 18t-9.5 15t-15 6q-12 0 -19 -10t-7 -21zM251 290q0 5 -0.5 20t-0.5 20q-10 2 -24.5 6t-28.5 11t-24.5 17.5t-12.5 25.5q-3 21 4.5 36.5t21.5 25.5t31.5 14.5t34.5 4.5t27.5 -9.5t16.5 -23t9 -29.5t5 -29h15
q25 0 54 7.5t54 22.5t41.5 37.5t16.5 51.5q0 21 -8 33t-21.5 18t-30.5 8t-36 2h-5q-60 -8 -114.5 -21t-115.5 -29q-6 -2 -17.5 -7t-25 -10.5t-26.5 -9.5t-22 -4q-8 0 -16.5 5.5t-16 14t-12 18.5t-4.5 18q0 7 4.5 11t11 5t13 0.5t11.5 -1.5q10 4 37 11.5t57 15.5t57.5 14.5
t38.5 8.5q2 0 15 0.5t29.5 1t33.5 1t27 0.5q6 0 21 -0.5t31.5 -1t31.5 -1t21 -0.5q21 -9 36 -16t25 -16t15 -22.5t5 -35.5q0 -44 -23 -74.5t-58 -51.5t-75.5 -34t-74.5 -20l-10 -20v-8q0 -7 -0.5 -16t-0.5 -19v-14q0 -48 6 -91.5t6 -91.5q0 -4 -0.5 -15.5t-0.5 -14.5
q-23 -16 -54 -29.5t-59 -13.5q0 35 8.5 70.5t18.5 72t18.5 74t8.5 76.5zM239 290q0 -38 -8.5 -76t-19.5 -76q-10 -35 -18 -71.5t-8 -81.5h6l17 -17q33 0 69 15t62 33v18q0 5 0.5 9.5t0.5 6.5q0 25 -2 47t-4 45t-4 45.5t-2 45.5v14q0 5 0.5 10.5t0.5 10.5v20l7 14
q36 7 77 20.5t76 35.5t58 54t23 78q0 23 -4.5 37t-15.5 25l-7 6q-9 19 -28 29.5t-48 22.5v-1l-3 3h-23t-34 1t-31.5 1.5t-20.5 0.5q-14 0 -39 -0.5t-44 -1.5q-7 0 -12 -0.5t-8 -0.5h-3q-11 -2 -37 -8t-55.5 -14t-56.5 -15.5t-40 -12.5q-3 1 -7 1h-9q-14 0 -25 -5.5
t-11 -22.5q0 -16 13 -35t29 -28l5 -4q8 -8 17 -13t17 -5q14 0 34.5 8t37.5 15q6 2 10.5 4t10.5 4q62 16 116 29t113 21h4q16 0 31 -1t27 -6q6 -11 6 -25q0 -25 -14 -44.5t-35.5 -33t-47.5 -21t-49 -8.5q-3 14 -8.5 28t-15.5 25l-5 5q-8 14 -20.5 23.5t-31.5 9.5
q-18 0 -36.5 -5t-33.5 -15t-25 -25.5t-10 -36.5v-8t1 -7q2 -14 11 -25t21 -19l7 -6q10 -11 23.5 -17t27.5 -11q0 -4 0.5 -7t0.5 -5v-6zM239 401l3 -12h-2h-11q3 9 10 12z" />
    <glyph glyph-name="q" unicode="q" horiz-adv-x="613" 
d="M228 90q0 22 13.5 29t33.5 7h18q11 0 17 -6t10 -15l9 -8q6 -6 9.5 -15t5.5 -18q2 -5 2.5 -9.5t2.5 -6.5q2 -5 4.5 -8.5t4.5 -7.5q4 12 11 21.5t16 20.5l6 6q17 19 32.5 40.5t15.5 45.5v38q0 26 -1.5 59t-6 65t-13 61t-23.5 47q-7 2 -23 3.5t-33 3.5q-22 2 -40.5 6
t-24.5 10l-11 10l-35 -35q-33 -34 -65 -70t-52 -77q4 4 11 12t15 15.5t15 14t10 9.5q11 -9 26 -24t26 -32q14 -16 25.5 -34t11.5 -35q0 -3 -5.5 -17.5t-13 -30.5t-15 -29t-10.5 -13q-13 0 -21 8l-11 10q-17 5 -21 21.5t-5 36.5q-1 11 -2.5 21.5t-8.5 19.5l-29 29q-1 4 -1 9
v4q-5 -10 -8 -19q11 -46 27 -93t39 -91q1 -1 2 -1.5t2 -1.5v1q19 -8 38.5 -19.5t34.5 -31.5v-2l6 -6q6 -8 10 -12l1 -1q-2 -14 -12 -18.5t-19 -4.5q-2 0 -4.5 0.5t-4.5 0.5h-4q-26 0 -48.5 10.5t-41.5 28.5q-29 19 -51 52t-37 69.5t-22.5 73.5t-7.5 66v32q0 2 0.5 4t0.5 4
v13q4 5 16 24t26 41.5t26.5 42.5l17.5 28v-2q0 -1 1 0t2 3q5 7 16.5 23.5t22.5 29.5q3 4 6.5 8t6.5 8q7 9 13 17l6 8q2 2 6 10t8 17q1 2 2.5 4.5t11.5 16.5q5 1 6 1h7q14 0 27 -11t22 -25l4 -3q15 -15 23 -36q10 10 21 14h8q3 0 7 0.5t9 0.5h14q52 0 86.5 -19t55.5 -51
q20 -21 32.5 -48t19.5 -57.5t9.5 -63.5t2.5 -64q0 -38 -5.5 -82.5t-22 -83t-48.5 -65.5t-84 -30q34 -35 74 -61t91 -52q4 -3 7 -12l10 -10q6 -6 7.5 -15.5t1.5 -23.5q-25 0 -57 10t-66 26.5t-67 39t-61 47.5q-45 35 -74 74.5t-29 74.5zM120 278q0 -1 0.5 -3l0.5 -2l30 -30
q7 -9 8.5 -24.5t3 -30t6 -25.5t18.5 -11q3 0 8.5 11.5t11.5 26t10.5 27.5t4.5 16q0 12 -6.5 25t-15.5 25t-19.5 22.5t-19.5 17.5q-3 -2 -8.5 -7.5l-12 -12l-12 -12t-7.5 -8.5l-0.5 -2t-0.5 -3zM451 166q0 -24 -13 -45t-29 -39t-29 -33.5t-13 -28.5q51 0 81.5 25.5t47 63.5
t21.5 82t5 82q0 46 -6 94.5t-25 87.5t-54 64t-92 25q-7 0 -20 -0.5t-14 -0.5q-6 -2 -14.5 -9t-16.5 -15t-13.5 -15.5t-5.5 -10.5v-10q0 -3 16.5 -5.5t37.5 -4.5t40.5 -4.5t25.5 -5.5q24 -13 38 -43.5t21 -68t9 -77t2 -70.5v-38zM20 283q0 -35 11 -81.5t33.5 -88.5t55 -71.5
t76.5 -29.5q3 0 8.5 -0.5t11 0.5t10 3t5.5 8q-13 19 -36.5 30t-43.5 20q-29 48 -48.5 103t-31.5 107q12 34 34.5 66t49.5 61.5t55 57.5t51 55q0 2 0.5 7.5t0.5 7.5q0 9 -4.5 20.5t-11.5 21.5t-16.5 17t-19.5 7q-2 0 -5.5 -0.5l-3.5 -0.5q-1 -1 -4 -7t-6 -12.5l-6 -13
t-4 -7.5q-2 -3 -12.5 -16.5t-22.5 -28.5t-22.5 -28.5t-12.5 -16.5l-17.5 -28t-27 -42.5t-27.5 -42.5t-18 -27v-10q0 -7 -0.5 -15t-0.5 -15v-10zM240 90q0 -25 16 -53t42 -55t59.5 -51.5t68.5 -43t68 -29.5t59 -11q0 8 -2 14.5t-10 11.5q-36 18 -66.5 36.5t-57 40.5
t-50.5 49.5t-46 63.5q-3 6 -5 14.5t-5 16.5t-7 14t-11 6h-18q-14 0 -24.5 -4.5t-10.5 -19.5z" />
    <glyph glyph-name="r" unicode="r" horiz-adv-x="542" 
d="M209 447q0 -35 1 -70t4 -70q8 13 20 24t26 23q15 13 30.5 27.5t28.5 30.5t21.5 34.5t8.5 38.5v4q0 1 -0.5 1.5t-0.5 1.5h-7q-10 0 -32 -1.5t-44 -6t-39 -13.5t-17 -24zM263 244q0 5 10.5 13.5t16.5 8.5q3 -5 8 -11t9 -11l2 -1q2 -4 6 -8.5t8 -9.5l4 -4q2 -4 3 -5
q17 -18 34 -31.5t34 -13.5q9 0 19 2l20 4q2 1 3 1q2 0 4 1q8 2 17.5 3.5t32.5 1.5v-6l17 -17q0 -24 -10.5 -43t-22.5 -38q-6 -9 -12 -19t-11 -20h-10q-11 0 -27 9.5t-33 26.5q-20 15 -41.5 38.5t-39.5 48t-29.5 46.5t-11.5 34zM58 144h12q8 0 11 -2h2l38 -19q11 42 15 84.5
t4 85.5q0 25 -0.5 49t-1.5 47q-1 12 -1.5 25.5t-0.5 27.5l-63 -21q-2 -1 -3 -1h-6h-4t-6 2l-15 15q-1 0 -7 2l-13 26q-2 6 -3 10q-2 7 -5 16l-3 9q0 4 6.5 15.5t11.5 16.5q5 1 18 4t27.5 6t27.5 6t18 4h2v1q3 1 6 1.5t8 2.5q6 2 7 2q2 6 3 10q0 1 0.5 2t0.5 2q1 3 2 6.5
t9 11.5q3 2 4 2h6q3 0 7 -1q4 -3 10.5 -9t11.5 -11h186q17 0 25 -7t13 -18l9 -8q8 -8 10.5 -20t2.5 -23v-17q0 -36 -18 -75t-47.5 -72t-67.5 -54t-78 -21l-10 9q2 -11 2.5 -22t2.5 -22q5 -45 9 -91.5t6 -92.5q-1 -3 -1.5 -7t-1.5 -8q-3 -18 -10.5 -36t-30.5 -18
q-13 0 -20 2.5t-13 8.5l-10 10q-8 3 -14 9.5t-14 19.5q-2 1 -5 6q-5 7 -12 17t-14.5 20.5t-14.5 20.5t-11 17q-2 4 -2.5 6.5t-2.5 4.5q-2 1 -4 5v28zM275 244q0 -10 8 -26.5t21 -36t29.5 -39t33.5 -36t32 -26.5t26 -10h5q5 11 13.5 24t17 26.5t15 26.5t6.5 25
q-23 0 -42 -6.5t-42 -6.5q-17 0 -33 10t-30 25t-27 31.5t-23 28.5q-2 0 -6 -4t-4 -6zM70 120l7 -11t16.5 -25.5t19.5 -29.5t17 -24q13 -18 20 -25t25 -7q11 0 17 6.5t9 16t5 20.5t4 19q-2 51 -7 102t-10 101.5t-9 101.5t-4 102q0 18 18 29t41.5 16.5t47 7t34.5 1.5t20.5 -1
t18.5 -10q0 -3 0.5 -12.5t0.5 -12.5q0 -38 -22.5 -67.5t-49 -53.5t-49 -43t-22.5 -35q36 0 71 20.5t62 51.5t43.5 68.5t16.5 72.5v17q0 14 -5.5 29t-25.5 15h-190q-2 3 -9.5 10.5t-10.5 9.5l-2 0.5t-3 0.5q-2 0 -3.5 -0.5l-1.5 -0.5q-2 -2 -4 -10.5t-4 -14.5q-1 -4 -2 -5
t-13 -5q-5 -2 -9.5 -3t-7.5 -2q-5 -1 -17.5 -4t-27 -6t-27.5 -6t-18 -4q-2 -2 -6 -9.5t-4 -10.5q0 -2 4 -13t6 -17q2 -4 5.5 -11.5t4.5 -8.5l1.5 -0.5t2.5 -0.5q2 0 4 0.5l2 0.5l90 30q1 0 3.5 -0.5t4.5 -0.5q0 -45 2 -91.5t2 -94.5t-4.5 -94t-17.5 -89h-5h-5l-40 20l-10 2
v-12z" />
    <glyph glyph-name="s" unicode="s" horiz-adv-x="430" 
d="M20 115q0 8 2 19.5t6.5 22t12 17.5t19.5 7q16 0 30.5 -17.5t31.5 -38t38 -38t50 -17.5q3 0 10 1t15 2.5t15 3.5t10 3q2 -1 5.5 -4.5t4.5 -5.5l0.5 -2t0.5 -3t-0.5 -2.5t-0.5 -2.5q-22 -12 -50 -26.5t-55 -14.5q-18 0 -42.5 6.5t-47.5 19t-39 30t-16 40.5zM311 110
q0 35 -16.5 68t-41 65.5t-53.5 65.5t-53.5 69t-41 75t-16.5 83q0 9 1 22t15 13q1 0 3 -0.5l2 -0.5q2 -2 8 -9.5t7 -10.5v30h215q2 0 10 -4t10 -6l0.5 -1.5t0.5 -3.5q0 -1 -0.5 -3l-0.5 -2l-10.5 -3t-26.5 -7t-34.5 -9t-35 -9t-28.5 -7.5t-15 -4.5l-50 -20l-2 -0.5t-3 -0.5
q-2 0 -3.5 0.5l-1.5 0.5q-4 3 -15.5 14.5t-14.5 15.5q0 -1 -0.5 -4.5t-0.5 -5.5q0 -28 18.5 -55t46.5 -56t60.5 -60.5t60.5 -68.5t46.5 -80t18.5 -95q0 -23 -13 -43t-32.5 -35t-43 -24t-43.5 -9q0 16 11.5 26t25 21t25 26.5t11.5 42.5zM8 115q0 -23 13 -40.5t33 -31.5h1
q13 -13 30 -23t35 -16.5t35 -10t30 -3.5q11 0 21 2.5t21 5.5q-1 -5 -1 -16h6l17 -17q23 0 49 9.5t48.5 26t37.5 38.5t15 46q0 33 -7.5 62.5t-20.5 56t-30.5 50t-36.5 45.5q-19 23 -39.5 44.5t-40.5 41.5q-13 13 -25.5 25t-23.5 24q-10 13 -17 25.5t-9 26.5q9 -9 15 -13
q5 -2 6 -2.5t5 -0.5h3l54 21h1q2 1 11 3.5t21.5 5.5t27 7t29.5 8l20 5t14.5 4t13.5 4t18 5q2 6 2 7v5q0 5 -2 9l-15 15q0 2 -0.5 3l-1.5 3q-5 3 -16.5 10t-14.5 7h-227v-10q-3 1 -8 1q-20 0 -24 -13t-4 -26v-8q0 -37 11 -70t28.5 -63.5t39.5 -58.5t45 -55q19 -23 37 -45
t31.5 -44t21.5 -44.5t8 -45.5q0 -14 -4 -24t-10 -18l-2 2l-0.5 0.5t-0.5 2.5q-2 4 -9 11t-12 9q-3 -1 -10.5 -3t-15.5 -3.5t-15 -3t-10 -1.5q-23 0 -40.5 13t-31.5 30h-1q-3 4 -5.5 7t-5.5 7q-4 6 -7 9q-14 19 -28 32t-31 13q-15 0 -25 -8.5t-16 -20.5t-8.5 -25.5
t-2.5 -23.5zM222 383l20 -20l-9 8q-8 8 -11 12zM222 383q-1 0 -2 1q1 -1 2 -1z" />
    <glyph glyph-name="t" unicode="t" horiz-adv-x="632" 
d="M168 124q14 0 22.5 -9t15.5 -21l4 -3q2 -2 3 -3.5t3 -3.5q10 50 13 100.5t3 101.5q0 30 -0.5 60t-1.5 60q-1 20 -1.5 41.5t-0.5 43.5q-18 -6 -36.5 -15.5t-37.5 -19.5q-27 -15 -52.5 -26.5t-45.5 -11.5q-11 0 -17 6l-12 12q-11 3 -15 12t-4 20q0 13 5 28.5t12 31t15 30
t15 26.5l27 -13l146 27q0 34 33 34q8 0 17 -4.5t13 -15.5l3 -2h267q5 0 8.5 -3.5l7.5 -7.5l-2 -2l2 1l3 -3q0 -1 3 -1q0 -2 0.5 -3t0.5 -2l7 -7q2 -1 4 -5l-1 1q0 -1 1 -2t2 -3l3 -2q1 -4 1 -8t-1 -8q-1 -3 -6.5 -8.5t-9.5 -7.5h-18q-8 0 -18.5 0.5t-21.5 0.5t-21.5 -0.5
t-18.5 -0.5h-15q-3 0 -15 -1t-26 -2.5t-27.5 -3.5t-20.5 -3q-3 0 -14.5 -1t-24 -3.5t-23 -6t-10.5 -8.5v-12q0 -6 -1 -14q-1 -11 -1.5 -24.5t-0.5 -27.5q0 -16 1 -30.5t5 -26.5h1q0 -1 -0.5 -1.5t-0.5 -1.5q1 -2 1.5 -2.5t1.5 -2.5l15 -14q-2 -18 -2 -27v-14q0 -29 2 -56
t4 -56t4 -59t2 -60v-18q0 -7 0.5 -15.5t0.5 -16.5q0 -22 -2.5 -45.5t-11 -43t-24.5 -32t-43 -12.5q-2 0 -3.5 0.5t-3.5 0.5h-10l-17 17h-6q-7 29 -15 48t-16 37q-13 27 -23 54t-10 58zM169 112q0 -24 8 -47t18.5 -45.5t20.5 -45t15 -46.5q1 0 4.5 -0.5t5.5 -0.5
q32 0 47 20.5t20.5 49t4.5 57.5t-1 47q0 69 -7.5 135t-3.5 132q-13 6 -17.5 27.5t-5 47t1 50.5t1.5 37q0 7 11.5 12.5t25.5 9t27 5t16 1.5q7 1 20.5 3t28 3.5t26.5 2.5t15 1q6 0 22 0.5t33 0.5t33 -0.5t22 -0.5q2 1 5.5 4.5t4.5 5.5l0.5 2t0.5 3t-0.5 3l-0.5 2q-2 2 -5 6
t-5 4h-280q1 13 -5.5 17.5t-14.5 4.5q-25 0 -20 -32l-160 -30l-20 10q-6 -10 -13 -22.5t-13.5 -26t-10.5 -26.5t-4 -25q0 -8 3.5 -14.5t12.5 -6.5q20 0 45.5 12.5t53 27t54.5 27t51 12.5q0 -60 2 -120t2 -120t-4.5 -120t-18.5 -118q-7 5 -12.5 15.5t-11.5 21.5t-12.5 19
t-15.5 8z" />
    <glyph glyph-name="u" unicode="u" horiz-adv-x="508" 
d="M363 264q0 59 -13 107.5t-45 99.5q-5 8 -11 12t-12.5 7.5t-12.5 7t-11 10.5l15 17.5t20 19.5t23.5 15t26.5 5q12 -2 22.5 -18t19 -40t15 -51.5t11 -53t6.5 -44.5t2 -26t-1.5 -25.5t-4.5 -42t-8 -49t-12.5 -46.5t-18 -35t-23.5 -14q0 36 6 71t6 73zM21 11q0 17 4 32.5
t9 30.5t9.5 30.5t6.5 32.5v29q0 20 0.5 43t0.5 43v29q0 16 0.5 43t0.5 57t-2.5 59t-8.5 50q0 1 -3 7t-6.5 12t-6.5 11.5t-3 6.5t-0.5 4.5t-0.5 5.5q0 18 15 18q16 0 26 -15t15.5 -34.5t7.5 -37.5t3 -24q14 -94 20 -186t8 -186q-8 -10 -18.5 -16.5t-21 -12t-20 -12
t-15.5 -15.5h4h5q43 12 86 25t86 24.5t87 18.5t90 7h8q5 0 11 -0.5t11 -0.5h8q2 -1 5.5 -4t4.5 -5l1 -4q0 -11 -10 -22.5t-23.5 -21t-26 -16.5t-17.5 -10h-4q-31 0 -60.5 5t-62.5 5q-32 0 -64.5 -1t-63.5 -9q-3 -1 -11 -3.5t-17 -5.5t-17 -5.5t-12 -3.5l-18 -10h-5
q-7 0 -10.5 3.5t-4.5 8.5t-0.5 10.5t0.5 9.5zM381 544q-1 0 -3 2l3 -2l-7 6q-15 24 -30 27h-5q-14 0 -27.5 -6.5t-25 -16t-21.5 -20t-17 -19.5h1l-6 -6q9 -13 16 -19t14 -9q1 -3 5 -5q5 -5 9 -7.5t7 -4.5q31 -50 44 -96.5t13 -103.5q0 -19 -2 -37l-4 -36q-2 -17 -4 -36
t-2 -47h5l7 -7q-55 -5 -105.5 -17t-100.5 -26q-2 92 -8 183.5t-20 183.5q0 7 -1 11q-1 9 -3.5 22t-6 26.5t-9.5 26t-14 21.5l-6 6q-7 12 -17 20.5t-24 8.5q-15 0 -21 -8t-6 -22v-4q0 -1 0.5 -1.5t0.5 -1.5v-4q4 -11 5 -13.5t4 -7.5q4 -6 7 -11.5t3 -7.5q7 -23 9 -55.5
t2 -63.5q0 -8 -0.5 -16t-0.5 -16v-104q0 -5 -0.5 -10.5t-0.5 -11.5v-72q-2 -12 -5.5 -26t-8.5 -27q-1 -2 -1 -3t-1 -3q-5 -15 -9 -31t-4 -36v-12q0 -11 3 -20t15 -11l12 -12q6 -6 17 -6h7l18 10l10.5 3.5t16 5.5t17 5.5t12.5 4.5l1 -1q29 8 58 9t58 1h10q16 0 32 -1.5
t31 -3.5t29 -3.5t31 -1.5h6q2 1 3.5 2t5.5 3q8 5 21 13t25 17.5t20.5 21.5t8.5 24l-1 4q-2 4 -6 9l-11 10v2q-2 5 -8.5 11t-9.5 7h-23q-2 0 -3 0.5t-3 0.5h-13h-11q17 16 28.5 47t18.5 63.5t10 60.5t3 38q0 9 -4.5 40.5t-13 68.5t-21 72t-28.5 51zM308 455l-1 1q1 0 1 -1z
" />
    <glyph glyph-name="v" unicode="v" horiz-adv-x="542" 
d="M30 283q2 8 2 14v14q0 20 -3 43t-8 47q-5 23 -8.5 47t-3.5 48v22q0 4 -0.5 8t-0.5 8q0 15 1.5 30.5t5.5 28t10.5 21t16.5 8.5q4 0 15.5 -6.5t16.5 -11.5q0 -1 -0.5 -2t-0.5 -2l18 -17q-1 -14 -1 -28v-27q0 -66 8 -121.5t26 -108t46.5 -105t70.5 -111.5v-1q38 51 64 105
t26 119q0 9 -0.5 26t-2.5 36.5t-6 39t-10 33.5q-5 -1 -11 -1h-12q-9 0 -17.5 1.5t-13.5 6.5l-12 11q-8 3 -12.5 9t-4.5 19v6t2 6l39 19q-3 4 -6.5 9t-7.5 10q-5 6 -9 11.5t-7 8.5v7q0 1 -0.5 1.5t-0.5 1.5v4q0 15 7.5 25t19 16t24 9t22.5 3q22 0 33 -9t20 -23l5 -5
q8 -10 16 -25q9 1 17 8q11 9 23 16.5t26 7.5q24 0 34 -23l10 -9q9 -9 12 -24t3 -31v-29q-1 -3 -6.5 -8.5t-9.5 -7.5h-13q-3 0 -11 5l1 -1q-8 5 -18.5 10.5t-11.5 5.5h-3q-2 0 -3.5 0.5t-3.5 0.5h-7t-4 -2q0 -17 3 -35.5t7 -38.5t7.5 -40t3.5 -42q0 -51 -14 -97t-38 -88.5
t-55.5 -81t-66.5 -73.5q-2 -2 -7.5 -7t-12.5 -10t-13.5 -9.5t-9.5 -5.5l-1 1q-5 -2 -12 -3.5t-9 -1.5l-18 18q-2 -1 -5 -1v16q-2 0 -4 -0.5t-4 -0.5t-3.5 0.5t-3.5 0.5h-8l-17 17h-5q-40 74 -62.5 140.5t-42.5 137.5v7zM42 280q21 -72 43 -138t57 -132q1 0 4.5 -0.5
t5.5 -0.5q12 0 22.5 9.5t19 23t13.5 28t5 25.5v5q-45 64 -75.5 121t-48 115.5t-23.5 122t-3 141.5q-2 2 -9.5 6t-10.5 4q-11 0 -15.5 -15t-5.5 -34.5t-0.5 -38.5t0.5 -26q0 -26 5 -53.5t10 -55.5t7.5 -55t-1.5 -52zM192 -23q1 0 5 1t5 2q3 1 9 5t12 9t11.5 9.5t7.5 6.5
q34 34 65.5 72t54.5 79.5t37 87t14 95.5q0 40 -10.5 79t-10.5 77q0 8 7.5 9.5t12.5 1.5q2 0 5.5 -0.5t4.5 -0.5t6.5 -3t12.5 -6.5l13 -6.5l8 -4h5h5q2 1 5.5 4.5t4.5 5.5v4v22q0 20 -5.5 37.5t-24.5 17.5q-11 0 -19 -5t-16 -11t-16.5 -11t-18.5 -5q-2 0 -5.5 0.5t-4.5 0.5
q-7 13 -12 24t-11 19.5t-14.5 13t-22.5 4.5q-9 0 -19.5 -2t-19.5 -7t-15.5 -13t-6.5 -19q0 -2 0.5 -5.5t0.5 -4.5q1 -1 5 -7t9.5 -13t10 -13t5.5 -7l0.5 -2t0.5 -4q0 -1 -0.5 -2.5l-0.5 -1.5l-40 -20l-0.5 -1.5t-0.5 -2.5q0 -11 8.5 -14.5t19.5 -3.5t21 1.5t12 0.5
q15 -8 23 -30t12 -48t5 -50.5t1 -36.5q0 -47 -13 -87.5t-34.5 -77.5t-48.5 -71.5t-55 -68.5v-23z" />
    <glyph glyph-name="FL0057h" unicode="w" horiz-adv-x="628" 
d="M120 554q0 1 -1 1zM410 -36q-11 5 -18 14t-13 20h1l-2 4q-6 8 -15.5 20.5t-19 26t-19 26.5t-15.5 23q-1 -1 -1 -2v0q-10 -15 -22.5 -34t-25 -38.5t-24 -38.5t-20.5 -34h-26l-17 17h-3q-2 0 -11.5 11.5t-21 28t-22.5 33.5t-16 28q-45 87 -68 171t-23 181q0 11 3 39t11 57
t21 51t33 22q1 0 1.5 -0.5t1.5 -0.5h5q9 -3 21 -15t22 -26q13 -14 23 -30.5t10 -24.5q0 -2 -0.5 -3.5t-0.5 -3.5v-6q-4 -13 -7 -27q-6 -21 -10.5 -38t-7.5 -34.5t-4.5 -36.5t-1.5 -43q0 -28 1.5 -59t7 -62.5t16 -61.5t27.5 -55q29 23 46 53.5t30 60.5q-10 21 -22.5 47
t-23 55t-17.5 58t-7 56h65v-6l17 -17q0 -1 0.5 -6t0.5 -7q2 -12 6 -38t13 -49q6 21 7.5 42t1.5 41v9q-2 10 -2.5 23.5t-0.5 23.5l-22 11l-15 14l-7 4q-3 6 -3.5 7.5t-0.5 4.5v6t2 6l28 27v-1q2 2 3 4q3 4 7 9t9 10q5 6 14.5 16t15.5 16h6q1 1 3 1q11 0 19 -6.5t13 -17.5
l9 -8q8 -8 13 -21.5t7.5 -27t3 -26t0.5 -18.5q0 -34 -6.5 -65t-14.5 -62q-8 -30 -14.5 -59t-6.5 -58q0 -7 4.5 -20t12 -29t17 -32.5t19.5 -30.5q8 -6 11 -6q19 27 31.5 60t20 68.5t11 71.5t3.5 68q0 99 -30 183q-5 12 -12 22.5t-15 21.5q-1 2 -2 2t-2 2l1 -1q-16 20 -29 41
t-13 43q0 23 16 39t42 16q17 0 31.5 -11t27.5 -29l4 -3q23 -23 40 -65t28.5 -87t17 -85.5t5.5 -61.5q0 -54 -10.5 -104.5t-27.5 -99t-38.5 -96t-44.5 -94.5l1 -1q-2 -5 -7.5 -9.5t-8.5 -5.5h-8q-12 0 -20 3.5t-14 9.5zM299 130l10 -10q4 -6 15 -22t23.5 -34t24 -34t16.5 -22
q8 -13 16.5 -25t28.5 -12h5q2 1 5.5 4t4.5 5q23 47 44.5 94.5t38.5 96t27 98.5t10 103q0 16 -3.5 45t-10 63.5t-17 70.5t-24.5 65t-31.5 47.5t-38.5 18.5q-20 0 -33 -13t-13 -30t9 -33t20.5 -32t23.5 -31.5t18 -30.5q31 -86 31 -187q0 -33 -3.5 -70.5t-12 -74.5t-22 -71.5
t-33.5 -62.5q-1 0 -2.5 -0.5t-2.5 -0.5q-11 0 -27 19.5t-31 45t-26 50t-11 35.5q0 30 6.5 60t14.5 60.5t14.5 61t6.5 62.5q0 7 -1 22.5t-4.5 31t-11 27.5t-19.5 12q-1 0 -2.5 -0.5t-2.5 -0.5q-3 -3 -10 -11t-15 -17t-15 -17t-10 -11l-20 -19l-0.5 -2t-0.5 -4q0 -1 0.5 -2
l0.5 -1l40 -19l1.5 -7.5t3 -17.5t3 -21.5t2.5 -18.5v-10q0 -27 -3 -56.5t-17 -55.5q-13 8 -22 28t-15 42.5t-9 42t-4 27.5h-41q0 -23 7.5 -50t18.5 -55t23 -54t22 -46q-15 -35 -35 -71.5t-54 -58.5q-26 25 -42 58.5t-24.5 71t-11.5 75t-3 70.5q0 28 2 50t6 42t10 41.5
t13 48.5q0 1 0.5 4.5t0.5 5.5q0 5 -5.5 15t-13 20.5t-16 18.5t-15.5 10q-18 4 -30 -16t-19 -47.5t-9.5 -55t-2.5 -37.5q0 -95 23 -178t67 -169q5 -10 14.5 -26t19 -31t17 -26t9.5 -11h20q9 15 20 33t23 36.5l24 37t22 33.5q1 2 4.5 5.5t5.5 4.5h5h5z" />
    <glyph glyph-name="x" unicode="x" horiz-adv-x="542" 
d="M290 410q0 10 9.5 26t21.5 33.5t23.5 33.5t16.5 27q7 15 9 25.5t4 16.5t7 8.5t19 2.5q21 0 41.5 -14.5t20.5 -37.5q0 -11 -10 -21t-22.5 -18t-24 -13.5t-14.5 -8.5q-5 -4 -18 -15.5t-27.5 -24t-27 -24t-17.5 -16.5q-8 3 -9.5 8.5t-1.5 11.5zM20 75q0 10 11.5 33t30.5 52
t42 59.5t46 55.5t43 41.5t33 16.5q0 -13 -11.5 -33.5t-26 -41.5t-28.5 -39.5t-19 -28.5q-4 -7 -12.5 -25t-18 -39t-18 -40t-11.5 -26q-2 -3 -9.5 -10.5t-10.5 -9.5l-2 -0.5t-3 -0.5t-3 0.5l-2 0.5q-4 3 -15.5 14.5t-14.5 15.5l-0.5 1.5t-0.5 3.5zM51 580q2 3 9.5 10.5
t10.5 9.5h5q11 0 19.5 -6t15.5 -14q14 -16 38 -43.5t48 -54.5t42.5 -48t21.5 -24q12 -15 33.5 -41.5t46 -58t49.5 -66.5t45.5 -67t33.5 -59t13 -43q0 -1 -0.5 -3l-0.5 -2q-1 -2 -8.5 -9.5t-11.5 -10.5q-3 -3 -11.5 -10t-18.5 -15t-18.5 -15t-11.5 -10q-1 0 -2.5 -0.5
t-2.5 -0.5t-6.5 15.5t-14.5 39t-19.5 52t-21 55.5t-19.5 48.5t-14 30.5q-54 96 -111.5 180.5t-138.5 159.5zM8 75q0 -4 0.5 -5t2.5 -6q4 -5 17 -18t18 -17q1 -1 3 -1l7.5 -7.5t6.5 -5.5l4 -3q6 -2 7 -2h2q3 0 7 1q4 3 13 12t12 13q3 7 11 25t18 39t19 39.5t13 26.5
q4 7 11 17t15 22q16 21 32.5 46t23.5 48l39 -66q11 -19 26.5 -58.5t30.5 -79.5l8 -22t8 -21q10 -28 17.5 -46.5t15.5 -18.5h1l15 -15q2 -2 4 -2h3l2 -2l13 11t23 19l-1 1q10 7 18 13.5t12 10.5h1q4 3 12.5 11.5t10.5 12.5q1 4 1 8q0 22 -21.5 61.5t-52.5 84.5t-65.5 89
t-59.5 75q2 -2 5 -2.5t6 -2.5q5 5 17.5 16.5t26.5 24t27 23.5t18 15q6 6 9.5 7.5t8.5 4.5q9 4 19.5 10.5t19.5 14t15.5 16.5t6.5 19q0 11 -4.5 20.5t-12.5 17.5l-6 5q-9 19 -29 30t-39 11q-13 0 -20 -1.5t-11 -5t-6 -9t-3 -13.5q0 -1 -0.5 -2t-0.5 -3q-2 -6 -3.5 -12.5
t-5.5 -13.5q-3 -8 -8 -15t-10 -15l-9 -12q-16 -23 -30.5 -46t-14.5 -37v-3q-2 2 -3 4q-2 2 -2.5 3t-2.5 3q-3 3 -21.5 24t-42.5 48.5l-48 55t-38 43.5q-8 11 -19 17.5t-25 6.5h-8q-2 -2 -6 -5.5t-8.5 -7.5t-8 -8t-4.5 -5l1 -14q56 -52 100 -109t83 -121q-16 -7 -38.5 -26.5
t-46.5 -46t-47.5 -56.5t-42.5 -57.5t-30.5 -49t-11.5 -31.5zM72 547q-1 0 -1.5 0.5l-0.5 0.5l0.5 -0.5t1.5 -0.5z" />
    <glyph glyph-name="y" unicode="y" horiz-adv-x="512" 
d="M31 462q-1 2 -1.5 10t-0.5 10q0 18 10.5 34.5t30.5 16.5q14 0 30.5 -19.5t33.5 -50t33 -67.5t28 -71.5t19.5 -62.5t7.5 -40q0 -7 -1.5 -12t-9.5 -8q-19 12 -31.5 31.5t-23 42t-21 45.5t-24.5 41zM-349 -133q0 7 5 12t12.5 8t15 4.5t13.5 1.5q22 0 45 -6.5t48.5 -14.5
t54 -14.5t60.5 -6.5q17 0 52 4t78 11.5t88.5 18.5t83 25.5t61.5 32.5t24 39q0 2 -0.5 5.5t-0.5 4.5q-12 3 -29 7.5t-33 12t-27 19.5t-11 31q0 20 12 34.5t28.5 26.5t33 23.5t26.5 25.5q36 48 63.5 103.5t27.5 118.5q0 20 -9.5 39.5t-21.5 38t-21.5 35t-9.5 30.5q0 1 0.5 3
l0.5 2q2 3 9.5 10.5t10.5 9.5q4 1 17.5 1.5t17.5 0.5q27 0 47 -11.5t28 -40.5v-14q0 -9 0.5 -20.5t0.5 -21.5v-14q0 -119 -56.5 -206.5t-154.5 -153.5q-3 -2 -7 -9.5t-3 -10.5q4 -18 20.5 -24t34.5 -11t32 -14t14 -32q0 -22 -14.5 -40.5t-37.5 -33.5t-51 -27t-56 -21.5
t-52.5 -16t-39.5 -10.5l-22 -5.5t-28.5 -6.5t-26 -5.5t-13.5 -2.5h-14q-12 0 -28.5 -0.5t-33.5 -0.5h-27h-30q-19 0 -38 0.5t-33 0.5h-16q-11 0 -31.5 2t-40 8t-34 16.5t-14.5 28.5zM-361 -133q0 -15 8.5 -26t21.5 -19l6 -6q10 -11 26 -17t33 -10t32.5 -5t24.5 -1h47
q10 0 20 -0.5t20 -0.5h57q10 0 19 0.5t17 0.5h40q3 0 15 2.5t26.5 5.5t28.5 6.5l22 5.5q15 4 40.5 10.5t54 16.5t57.5 23t52.5 29t38.5 35.5t15 43.5q0 22 -13 35l-9 8q-7 17 -23 24t-33 12q-6 2 -11.5 3.5t-10.5 3.5q1 4 5 8q100 67 157.5 156t57.5 211v14q0 5 -0.5 10.5
t-0.5 11.5v36q-7 23 -21 37l-3 2l-1 1q-12 23 -32.5 32.5t-46.5 9.5q-4 0 -19 -0.5t-19 -1.5q-4 -3 -15 -14t-14 -15q-1 -4 -1 -8q0 -17 8.5 -33t19.5 -33q12 -19 23 -39t11 -38q0 -61 -26.5 -114.5t-61.5 -100.5q-5 -8 -13.5 -14.5t-18.5 -13.5q-2 -2 -4.5 -3.5t-4.5 -3.5
q-23 -17 -42.5 -35t-19.5 -47q0 -21 10 -35t25 -23l5 -4q11 -11 26.5 -18t31.5 -11q-7 -17 -33.5 -32t-62.5 -27t-78 -21t-81 -15.5t-70.5 -9.5t-46.5 -3q-30 0 -58 7t-54 15q-2 1 -4 1t-4 1l-2 1q-1 0 -3 1q-21 6 -41.5 11t-41.5 5q-7 0 -17 -2t-19 -6.5t-15.5 -12
t-6.5 -17.5zM22 454l85 -106q8 -11 14.5 -25.5t13.5 -28.5q1 -2 1 -3l1 -2q13 -29 29 -56.5t42 -44.5h1l1 -1q10 -10 19 -15q17 6 19.5 13.5t2.5 16.5q0 11 -6 33.5t-16 51.5t-23 61t-28 62.5t-30.5 55.5t-29.5 40l-1 1q-13 17 -24.5 27.5t-22.5 10.5q-26 0 -39.5 -20.5
t-13.5 -42.5q0 -3 0.5 -12t1.5 -11zM308 -37l-1 1h1v-1z" />
    <glyph glyph-name="z" unicode="z" horiz-adv-x="590" 
d="M184 472q-1 -1 2.5 0.5t7.5 3.5q-5 -2 -9 -2q-3 0 -2 1v-3h1zM8 35q0 16 9 34.5t22.5 37t28.5 35t27 28.5q2 2 2 3q6 7 22 25t36 39.5t40.5 43t35.5 36.5q-15 5 -31.5 9t-28.5 6l-16 16q-5 0 -7 1v38q4 0 15 -0.5t24 -1.5t23.5 -1.5t13.5 -1.5v-1l10 -3q5 -2 10 -3.5
t10 -3.5q8 -4 16 -6.5t10 -2.5t11.5 7.5t15.5 13.5q33 27 68 63t70 73q-45 -4 -90.5 -14.5t-87.5 -24.5q2 0 -7.5 -3.5t-19.5 -8.5q-14 -7 -26 -12t-10 -4h-6q-2 0 -3.5 -0.5t-3.5 -0.5q-14 0 -26 12l-8 7q-12 5 -20 17t-8 24q0 20 11 43t26 39q16 1 56.5 3t86 3.5t86 2.5
t56.5 1h29q22 0 31 -3.5t12 -14.5l12 -12q5 -5 6 -14.5t1 -26.5q0 -10 -2 -20v-5l-163 -191q5 -2 8.5 -3t8.5 -2l9 -3q14 -5 27.5 -12t21.5 -23l8 -8q3 -3 5 -6t4 -7q1 -4 1 -7q0 -1 -0.5 -1.5t-0.5 -1.5v-8l-41 -20.5t-38 -24.5l-6 4t-5 4l-9 9l-1 -1q-11 7 -18 16.5
t-13 20.5q-2 2 -3 3.5t-2 3.5l-9 12q-5 -6 -14 -18l-18 -24q-11 -14 -21 -26.5l-14 -17.5q-3 -5 -13 -20t-22.5 -35.5t-26.5 -42t-25 -39.5q22 7 50.5 13t57.5 13q15 4 30 7t29 6q21 5 37.5 8.5t21.5 5.5q4 1 16 6.5t27 12t29.5 14t25.5 12.5q10 5 13 6h5q1 1 3 1q4 0 8 -1
q5 -2 12 -11t7 -11l6 -6q4 -4 7.5 -8.5t3.5 -5.5v-103l-16 -16q-11 0 -22.5 0.5t-21.5 0.5q-43 0 -81 -2t-75 -4q-39 -2 -80 -3.5t-89 -1.5h-7q-3 1 -9 7l-10 10h-2q-2 1 -4.5 3t-5.5 4l-13 -14h-26q-12 0 -31 4.5t-30 15.5l-7 7q-17 7 -21 19v8zM20 30q6 -11 25 -15.5
t32 -4.5h13h6h4q2 2 10 9.5t10 10.5q4 6 20 31.5t35 54t35 53.5t20 31q4 5 14 18t21 27t21 27t14 18q1 0 2.5 0.5t2.5 0.5q10 0 18.5 -9t17 -21t15.5 -23.5t14 -17.5q16 12 34 22t36 18q0 1 0.5 2.5t0.5 2.5t-0.5 3l-0.5 2q-7 13 -20.5 19t-29 11t-29.5 11t-21 19l171 201
q0 1 1 8.5t1 12.5q0 25 -4.5 32t-28.5 7h-29q-16 0 -55.5 -1t-84.5 -2.5t-84.5 -3.5t-55.5 -3q-12 -13 -21 -33t-9 -37q0 -11 9.5 -21t20.5 -10q2 0 5.5 0.5t4.5 0.5q3 1 13 5.5t22 9.5t22 9.5t13 5.5q51 18 108.5 29t111.5 11h20q-42 -45 -87.5 -93.5t-93.5 -87.5
q-5 -5 -16.5 -12.5t-13.5 -7.5t-11 3t-19 7t-19 7t-11 3q-3 1 -11.5 1.5t-18.5 1.5t-18.5 1.5t-11.5 0.5v-15q10 -1 23 -4t26 -8t24 -12t17 -16q-8 -8 -28.5 -29t-43 -45t-42 -45.5t-26.5 -30.5q-10 -11 -25.5 -27.5t-29.5 -35t-24.5 -37.5t-10.5 -35v-5zM139 15
q0 -1 0.5 -3l0.5 -2q1 -2 4.5 -5.5t5.5 -4.5h4q52 0 96 2t87 4t87 3.5t96 0.5l10 10v100q0 1 -4 5t-6 5l-2 0.5t-3 0.5t-2.5 -0.5t-2.5 -0.5q-6 -3 -21.5 -10.5t-33 -15.5t-33.5 -15t-22 -9q-11 -4 -34.5 -9.5t-52.5 -11.5t-59.5 -12.5t-56 -12.5t-42 -11t-16.5 -8z" />
    <glyph glyph-name="FL007Bh" unicode="{" horiz-adv-x="381" 
d="M303 537q-2 1 -4 3q2 -2 3 -2.5zM11 230q22 20 36 31t23 16t14 6t9 1l4 7t19 33q3 5 6 10.5t7 12.5q9 16 23.5 52.5t29.5 76.5l10 28t10 26q10 28 18 46.5t19 18.5l1 -1h4q4 -5 13.5 -12.5t19.5 -15.5q2 -2 3.5 -3t3.5 -3q-5 4 -2.5 0.5t7.5 -9.5q5 -3 8.5 -6t5.5 -5v5
q3 -2 7.5 -6t9 -9t8 -9t4.5 -6v-2q1 0 1 -1l3 -3q5 -5 8.5 -9t4.5 -6q1 -4 1 -7q0 -22 -20 -59.5t-49 -80t-61.5 -85t-58.5 -74.5q9 -8 20 -17.5t21 -18.5t18 -16t12 -10q5 -5 7.5 -6.5t5.5 -3.5q-1 1 1 0l4 -2q14 -8 32.5 -19.5t26.5 -28.5l7 -6q14 -14 14 -29
q0 -14 -6.5 -25t-17 -19t-23 -12.5t-24.5 -4.5q-23 0 -29 6l-13 13q-11 2 -13.5 8.5t-4.5 18.5q0 1 -0.5 1.5t-0.5 2.5q-2 5 -3.5 12t-5.5 15v-1q-4 6 -7 12.5t-8 13.5q-4 4 -6 7.5t-4 5.5h1q-11 15 -21.5 31t-18.5 30q0 -1 -0.5 -1.5l-0.5 -0.5q-9 -2 -12 -2h-5q-9 0 -14 5
q-1 1 -2 1.5t-2 1.5l-9 9q-6 1 -13 10q-1 1 -1.5 2t-1.5 2q-5 5 -12.5 10l-16.5 11l-11 10l-6 4l-6 4zM129 172q0 -9 9.5 -25t21.5 -34t23.5 -34.5t16.5 -26.5q7 -15 9 -25.5t4 -16.5t7 -8.5t19 -2.5q21 0 41.5 14.5t20.5 37.5q0 11 -10 21t-22.5 18t-24 13.5t-14.5 8.5
q-5 4 -18 15t-27 24t-27 24.5t-18 16.5q-8 -3 -9.5 -8.5t-1.5 -11.5zM20 222q30 -19 41 -29.5t15.5 -15.5t7.5 -5.5t16 0.5q12 15 33.5 41.5t46 58t49.5 66.5t45.5 67t33.5 59t13 43q0 1 -0.5 3l-0.5 2q-1 2 -8.5 9.5t-11.5 10.5q-3 3 -11.5 10t-18.5 15t-18.5 15t-11.5 10
q-1 0 -2.5 0.5t-2.5 0.5t-6.5 -15.5t-14.5 -39t-19.5 -52t-21 -55.5t-19.5 -48.5t-14 -30.5q-13 -23 -21 -37t-12.5 -21.5t-7.5 -9.5t-6 -2t-7 -1t-12 -5.5t-21 -15t-33 -28.5z" />
    <glyph glyph-name="FL007Ch" unicode="|" horiz-adv-x="171" 
d="M3 -93q11 0 18 15.5t11 40t5.5 55t1.5 59.5t-0.5 53t-1.5 39v32q0 2 -0.5 4.5t-0.5 5.5v38q-1 17 -2 51t-2 76t-1.5 87t-0.5 84q0 21 -0.5 33.5t-0.5 22.5t-0.5 19.5t-0.5 24.5l-22 22q2 4 7 9.5t11 10.5l-1 1l3 1.5t6 3.5q5 2 11 5.5t12 6.5q11 5 21 9.5t12 6.5q4 1 7 1
q11 0 17 -5t8 -13l12 -11q5 -5 6.5 -13t1.5 -16q0 -17 -8 -24t-17 -12q-12 -7 -16 -18q2 -9 5.5 -38.5t7.5 -68.5t8 -82.5t8 -80.5q3 -35 5.5 -59t3.5 -32v-9q1 -10 1.5 -28t0.5 -35v-141q0 -17 0.5 -33t0.5 -30v-36q0 -8 -0.5 -14t-0.5 -11v-11q-5 -15 -10.5 -29t-15 -26
t-23.5 -20.5t-35 -11.5l-18 18q-2 -1 -4 -1zM40 -154q33 5 47.5 28.5t22.5 51.5q0 4 0.5 13t0.5 20v36q0 29 -0.5 63.5t-0.5 63.5v34v19v24q0 23 -1 45.5t-1 25.5q-1 8 -3.5 35.5t-6 65.5t-8 80.5t-8 80t-7 65t-5.5 34.5q2 12 8.5 17.5t14 9.5t13 10t5.5 18q0 8 -2.5 17
t-13.5 9q-1 0 -3 -0.5l-2 -0.5q-3 -2 -11.5 -6t-18.5 -9t-18.5 -9t-11.5 -6q-2 -1 -5.5 -4.5t-4.5 -5.5l20 -20l0.5 -25t1 -63.5t1.5 -85.5t1.5 -91.5t1.5 -81t2 -54.5v-10q0 -8 0.5 -18.5t0.5 -20.5v-16q0 -6 0.5 -29.5t1 -56t-0.5 -68.5t-4 -66t-9 -50t-16 -20z" />
    <glyph glyph-name="FL007Dh" unicode="}" horiz-adv-x="381" 
d="M212 172q0 -9 -9.5 -25t-21.5 -34t-23.5 -34.5t-16.5 -26.5q-7 -15 -9 -25.5t-4 -16.5t-7.5 -8.5t-18.5 -2.5q-21 0 -41.5 14.5t-20.5 37.5q0 11 10 21t22.5 18t24 13.5t14.5 8.5q5 4 18 15t27 24t27 24.5t18 16.5q8 -3 9.5 -8.5t1.5 -11.5zM321 222q-30 -19 -41 -29.5
t-15.5 -15.5t-7.5 -5.5t-16 0.5q-12 15 -33.5 41.5t-46 58t-49.5 66.5t-45.5 67t-33.5 59t-13 43q0 1 0.5 3l0.5 2q1 2 8.5 9.5t11.5 10.5q3 3 11.5 10t18.5 15t18.5 15t11.5 10q1 0 2.5 0.5t2.5 0.5l6 -15.5t15 -39t19.5 -52t21 -55.5t19.5 -48.5t14 -30.5q13 -23 21 -37
t13 -21.5t7.5 -9.5t4.5 -2q3 0 7.5 -1t12.5 -5.5t21 -14.5t33 -29zM68 -7q23 -23 54 -23q24 0 29 6t8 21q2 6 4 14t6 17q5 9 11.5 18.5t13.5 20.5q17 23 32 47.5t15 37.5q0 5 -1 8l17 -16q9 -2 12 -2h5q7 0 10 2t8 7l15 15t39 28l1 15l-17 17v4q-37 34 -54 43.5t-24 10.5
q-4 7 -9.5 17t-13.5 25q-6 10 -15 31.5t-18.5 47.5t-20 53.5t-19.5 50.5q-8 23 -14.5 39.5t-11.5 21.5l-11 10q-7 15 -13 15q-2 0 -3 -1h-6q-5 -5 -11 -9.5t-15 -12.5q-2 -2 -8 -6q-4 -3 -7.5 -6.5t-7.5 -6.5q-3 -2 -5.5 -4t-4.5 -4q-3 -2 -7.5 -6t-9 -9t-8 -9t-4.5 -6
q-1 -4 -1 -8q0 -22 20 -59.5t49.5 -80.5t62.5 -86t59 -75q-5 -5 -18 -16.5t-27 -24.5t-27 -24t-18 -15q-7 -7 -13 -10q1 1 -1 0l-4 -2q-9 -5 -20 -11t-20.5 -14t-16 -17.5t-6.5 -20.5q0 -18 10.5 -32t25.5 -22z" />
    <glyph glyph-name="FL007Eh" unicode="~" horiz-adv-x="456" 
d="M165 368q5 -1 12.5 -5t15.5 -9l1 -1q1 0 2 -1q0 -1 2 -1q15 -5 29.5 -13t29.5 -17q23 15 52.5 26.5t55.5 11.5q22 0 31 -5t11 -14l13 -12q5 -5 5 -14q0 -7 -2 -13h-1q-1 -4 -1 -18q-24 -3 -35 -6.5t-18 -8.5h-1v-1h-1h1q-8 -9 -19 -18t-21 -14q-3 -12 -25 -17
q-14 -8 -25 -8q-5 0 -8 1q-14 0 -26 12l-4 3v0q0 1 -1 1q-18 5 -33.5 13.5t-27.5 16.5q-22 -15 -51 -26.5t-55 -11.5q-27 0 -35 8l-12 12q-16 5 -16 22q0 9 2 15q1 3 1.5 7t0.5 12q17 2 28 5t17.5 6t10.5 6.5t7 6.5q5 5 10.5 10t12.5 8q1 0 2 1l1 1q1 0 2 1v-1l1 1h1
q3 16 25 19q16 9 31 9h4zM164 356q-10 1 -28 -9q-19 0 -19 -12q-4 -3 -7.5 -5t-6.5 -4q-10 -5 -15.5 -11t-12.5 -12t-18.5 -11t-32.5 -8q0 -7 -2 -13.5t-1 -11.5t7 -8t23 -3q27 0 57 12.5t50 27.5q11 -9 27.5 -18t35.5 -14q9 -6 15.5 -11t14.5 -5q10 -4 27 7q21 3 21 14
q9 4 21 13.5t20 18.5q8 5 18.5 10.5t33.5 7.5q0 7 2 14t1 11.5t-7.5 7.5t-22.5 3q-27 0 -57.5 -12.5t-49.5 -27.5q-27 20 -64 33q-8 5 -15.5 10t-14.5 6z" />
    <glyph glyph-name="FL007Fh" horiz-adv-x="202" 
 />
    <glyph glyph-name="FL00A1h" unicode="&#xa1;" horiz-adv-x="218" 
d="M51 525q0 21 9.5 42t36.5 21q14 0 25 -8t19 -21l6 -5l3 -3q13 -13 19.5 -32.5t6.5 -37.5q-16 0 -22 -2t-13 -6q-5 -3 -13 -7t-26 -11l-17 17q-1 -1 -3 -1q-17 17 -24 27.5t-7 26.5zM19 74q8 0 13 -2l10 -4q2 -1 3 -1t3 -1q10 -5 19 -5q6 0 9.5 7.5t6 18.5t3 25t0.5 27
q0 5 -0.5 9.5t-0.5 9.5v43q0 2 -0.5 4.5t-0.5 5.5v38q-1 8 -1.5 17t-1.5 20q0 4 -0.5 7.5t-0.5 8.5q-2 17 -3 35t-1 34q0 30 6.5 50t23.5 20q20 0 50 -42q5 -5 10.5 -12.5t12.5 -17.5l-2 1q1 -1 3 -27t3.5 -59t2.5 -63.5t1 -41.5v-62q0 -6 -0.5 -12t-0.5 -12q0 -8 -0.5 -14
t-0.5 -11v-11q-9 -30 -25 -55t-53 -31h-6q-11 0 -23.5 6.5t-22.5 16.5l-4 3q-17 11 -30 30t-13 36zM63 525q0 -13 5 -21t16 -19q14 5 22 9.5t14 8t12 5.5t15 2q0 11 -3.5 22.5t-10 21.5t-15.5 16t-21 6q-20 0 -27 -17t-7 -34zM20 62q0 -11 6 -22.5t16 -21t21.5 -15
t22.5 -3.5q33 5 47.5 28.5t22.5 51.5q0 4 0.5 13t0.5 20t0.5 22.5t0.5 20.5v19v24q0 7 -0.5 23.5t-1 37t-1.5 42t-1.5 40t-1 30t-1.5 12.5q-22 33 -35 41t-19.5 -1t-7.5 -30.5t0 -47t3.5 -52t3.5 -44.5v-10q0 -8 0.5 -18.5t0.5 -20.5v-16q0 -9 1 -31t-1 -45.5t-8.5 -41.5
t-21.5 -18q-14 0 -23.5 6.5t-23.5 6.5z" />
    <glyph glyph-name="FL00A2h" unicode="&#xa2;" horiz-adv-x="425" 
d="M177 444q-10 -8 -23.5 -18.5t-26.5 -20.5t-23 -18.5t-13 -12.5q-9 -16 -10 -29.5t-1 -30.5q0 -48 30.5 -82t72.5 -62v11v16q0 10 -0.5 20.5t-0.5 18.5v10q-1 12 -1.5 33t-1 47.5t-1 56.5t-1.5 61zM155 -109q10 0 16 19.5t9 49.5t3.5 65.5t0.5 67.5l-12 13
q-23 21 -49.5 42t-49.5 45t-38 51t-15 60q0 25 13.5 59.5t35 70.5t49.5 69.5t57 57.5q-1 10 -1 18v16v27v25l-20 20q1 2 4.5 5.5t5.5 4.5q3 2 11.5 6t18.5 9t18.5 9t11.5 6l2 0.5t3 0.5q11 0 13.5 -9t2.5 -17q0 -12 -5.5 -18t-13 -10t-14 -9.5t-8.5 -17.5q1 -5 2.5 -16
t3.5 -26q11 5 21.5 8.5t20.5 3.5q11 0 23.5 2t20.5 2q9 0 18 -0.5t16.5 -4.5t12 -13t4.5 -27q0 -12 -13 -23t-32 -21.5t-41 -20t-39 -17.5q3 -34 6 -68.5t6 -63.5t5 -49.5t3 -26.5q0 -3 1 -25.5t1 -45.5v-43v-20q24 -15 45.5 -30t38.5 -32t27 -37t10 -44q0 -14 -4 -29
t-12.5 -28t-21 -21t-29.5 -8q0 12 3.5 21t8 18t8 19t3.5 23q0 8 -7 18.5t-18 21.5t-25 21.5t-27 18.5q0 -18 0.5 -36.5t0.5 -33.5v-25v-14q0 -11 -0.5 -20t-0.5 -13q-8 -28 -22.5 -51.5t-47.5 -28.5zM144 -112l23 -59q1 0 1.5 0.5t2.5 0.5l18 -18q21 3 35 11.5t23.5 20.5
t15 26t10.5 29v11q0 5 0.5 11t0.5 14v71v10t-1 10q1 -1 5 -3q14 -11 22.5 -21t8.5 -18q0 -11 -3 -19.5t-7 -16.5q0 -1 -0.5 -1.5t-0.5 -1.5v1q-5 -10 -8.5 -22t-3.5 -33h6l17 -17q21 0 37 9t26.5 23t16 31t5.5 32q0 26 -10.5 47t-27.5 39q-14 20 -35.5 38t-47.5 35v47
q0 17 -0.5 35t-1.5 28v10q-1 6 -3 25.5t-5 47.5t-6 61l-6 66q5 2 10.5 5t10.5 5q18 8 36.5 16.5t33.5 18.5t24.5 20.5t9.5 22.5q0 17 -3.5 27t-9.5 16l-3 2l0.5 -0.5t1.5 -0.5l-8 8q-8 18 -22.5 21.5t-29.5 3.5h-6q-5 0 -10 -0.5t-10 -1.5q-6 -1 -12.5 -1.5t-11.5 -0.5
q-10 0 -19 -3q2 8 6.5 12.5t9.5 7.5q9 5 17 12t8 24q0 8 -1.5 16t-6.5 13l-12 11q-2 8 -8 13t-17 5q-3 0 -7 -1q-2 -2 -12 -6.5t-21 -9.5q-6 -3 -12 -6.5t-11 -5.5q-3 -2 -6 -3.5l-3 -1.5l1 -1q-6 -5 -11 -10.5t-7 -9.5l22 -22v-77q-29 -25 -56.5 -59.5t-49.5 -70.5t-35 -71
t-13 -61q0 -29 10 -52.5t26 -44.5t36.5 -39.5t41.5 -35.5q3 -3 5 -4q1 -2 2 -2.5t2 -1.5q4 -3 7.5 -5.5t6.5 -5.5q2 -2 3 -2q2 -2 4.5 -4t4.5 -4q4 -4 7 -6l8 -9q0 -30 -0.5 -62.5t-2.5 -59.5t-5.5 -45t-9.5 -18zM167 335q0 -8 0.5 -15.5t0.5 -15.5q0 -19 0.5 -34.5
t1.5 -24.5v-38q0 -3 0.5 -5.5t0.5 -4.5v-4q-13 9 -24.5 19t-21.5 21q-16 29 -16 61v5q0 14 1 25.5t9 24.5h-1q4 4 17.5 15.5t30.5 24.5q0 -14 0.5 -28t0.5 -26zM92 160v-1q1 0 1 -1q-2 2 -5 4.5t-5 5.5l-4 4l-4 4z" />
    <glyph glyph-name="FL00A3h" unicode="&#xa3;" horiz-adv-x="574" 
d="M150 125q1 1 4 20t6 44.5t5.5 52t4.5 43.5q0 6 -0.5 19.5t-1.5 29.5t-1.5 29.5t-0.5 19.5q-1 0 -3 1t-3 1q-3 -1 -14 -5t-24 -9t-24.5 -9.5t-17.5 -6.5l-20 -10h-5h-5q-2 1 -5.5 4.5t-4.5 5.5q13 21 28 29.5t30.5 12t29.5 5.5t25 11.5t17.5 29t6.5 57.5q-20 0 -38 -4.5
t-36 -9.5t-36 -9.5t-37 -4.5v13l7 4t16.5 8.5t19.5 9.5t17 8q37 16 55 26.5t32.5 16.5t33.5 8.5t60 2.5q0 -29 -2 -38.5t-7 -9.5t-15.5 3.5t-26.5 0.5q-2 -1 -5.5 -4.5t-4.5 -5.5v-4v-6q0 -3 1 -13.5t2.5 -22t3.5 -21.5t3 -13h5q32 0 63.5 5.5t63.5 5.5q1 0 10.5 0.5
t20.5 -0.5t19.5 -4.5t8.5 -11.5q0 -1 -0.5 -3l-0.5 -2q-2 -3 -7.5 -8.5l-12 -12l-12 -12t-8.5 -7.5h-4q-36 0 -68 3t-75 3q0 -60 9 -118.5t9 -118.5q0 -26 -14.5 -43t-41.5 -17q-13 0 -25 5t-20 16zM20 -15q18 23 53 43t79 35.5t94 27.5t98.5 20.5t92.5 12.5t77 4
q0 -11 -5 -23.5t-12.5 -24.5t-17.5 -21.5t-19 -13.5q-4 -2 -11.5 2t-8.5 8h-17q-12 0 -25.5 0.5t-25.5 0.5h-17q-38 0 -68.5 -3t-59.5 -9t-59.5 -15.5t-67.5 -23.5q-2 -1 -10.5 -5t-19 -9.5t-19.5 -10l-11 -5.5l-2 -0.5t-3 -0.5t-3 0.5l-2 0.5q-2 1 -5.5 4.5t-4.5 5.5z
M125 116q13 -19 30 -28l3 -2l7 -8q-52 -17 -93.5 -38.5t-61.5 -47.5l-2 -10q2 -5 8 -11t10 -8q1 0 1.5 -0.5t1.5 -0.5l9 -9q6 -6 9 -7q4 -1 8 -1q3 0 7 1q1 1 8 4.5t15.5 8t17 8.5t14.5 7q6 2 3 2q37 14 67.5 23.5t59.5 15.5t59.5 9t68.5 3h17q6 0 12 -0.5t13 -0.5h38
q11 -11 22 -11q1 0 2.5 0.5t2.5 0.5q10 4 21 15.5t20 26t14.5 30t5.5 29.5l-17 17v6q-48 0 -118 -8.5t-142 -25.5q2 7 3 13.5t1 14.5q0 31 -3 60.5t-6 58.5q-4 27 -6.5 54.5t-2.5 54.5q35 0 68 -3q17 -1 33 -2t33 -1h6q3 2 10 8.5t14.5 14t14 14.5t8.5 10q1 4 1 7q0 8 -6 14
l-12 11q-4 14 -20.5 19t-32.5 5q-3 0 -5.5 -0.5t-4.5 -0.5h-7q-17 0 -33 -2l-32 -4q-12 -2 -23 -3.5t-22 -1.5q-2 12 -2.5 23t-0.5 15v7q0 4 4 4q4 1 10 1q4 0 8.5 -1t8.5 -2h1q6 -2 11 -2q11 0 14.5 12.5t3.5 53.5l-17 17v6q-34 0 -54.5 -1t-34.5 -4t-24 -7.5t-23 -11.5
q-11 -6 -25 -13.5t-37 -17.5q-7 -3 -18 -9t-21.5 -12t-18.5 -10.5t-9 -5.5v-29h6l17 -17q28 0 47.5 4.5t37.5 9.5q8 2 17.5 4.5t18.5 4.5q-5 -35 -19.5 -44t-31.5 -11q-20 -3 -42.5 -12t-42.5 -42q2 -5 8.5 -13.5t11.5 -10.5h2l12 -12q2 -2 3.5 -3t3.5 -2h15l22 11h-1
q8 2 21.5 7.5t27.5 10.5q2 0 3 1q0 -2 0.5 -3t0.5 -3v-6q1 -16 1.5 -30t0.5 -19q-1 -7 -1.5 -15t-1.5 -16q-2 -19 -3.5 -30.5l-3 -23t-3 -26.5t-4.5 -42z" />
    <glyph glyph-name="FL00A4h" unicode="&#xa4;" horiz-adv-x="542" 
d="M51 580q2 3 9.5 10.5t10.5 9.5h5q11 0 19.5 -6t15.5 -14q14 -17 39 -45t49 -56q8 9 15 17.5t13 13.5q-3 19 12 19q14 0 19.5 -14t5.5 -25v-7q0 -6 -1 -7q-8 -8 -17 -15t-18 -15q13 -14 22 -24t11 -12q13 -17 36.5 -46t50.5 -64v6v26q0 23 -3 46t-15 39q-10 -9 -18 -16.5
t-11 -10.5q-8 3 -9.5 8.5t-1.5 11.5q0 9 7 22h-28q-2 0 -6 5.5t-6 8.5v3q0 15 11 21t24 6q16 0 31 -3q11 17 22 31.5t16 25.5q7 15 9 25.5t4 16.5t7 8.5t19 2.5q21 0 41.5 -14.5t20.5 -37.5q0 -11 -10 -21t-22.5 -18t-24 -13.5t-14.5 -8.5q-4 -3 -10.5 -8t-14.5 -13
q25 -25 25 -75q0 -19 -3.5 -49.5t-12.5 -61.5q21 -28 40 -56t34 -53t24 -45.5t9 -33.5q0 -1 -0.5 -3l-0.5 -2q-1 -2 -8.5 -9.5t-11.5 -10.5q-3 -3 -11.5 -10t-18.5 -15t-18.5 -15t-11.5 -10q-1 0 -2.5 -0.5t-2.5 -0.5t-8 19t-17.5 47t-23 61t-23.5 60q-13 -7 -30 -7
q-9 0 -14 1.5t-5 10.5v6q12 1 21.5 5t17.5 10q-5 9 -8 16t-5 12q-26 46 -52 88.5t-55 84.5q-17 -19 -29 -40t-12 -47q0 -11 2 -20.5t5 -19.5q20 21 37.5 34t28.5 13q0 -15 -14 -39t-31 -47q10 -16 22 -29.5t24 -26.5v-6q-2 -5 -6 -6h-6q-32 10 -54 42q-7 -10 -12.5 -18
t-7.5 -13q-4 -6 -12.5 -24.5t-18 -39.5t-18 -40t-11.5 -26q-2 -3 -9.5 -10.5t-10.5 -9.5l-2 -0.5t-3 -0.5t-3 0.5l-2 0.5q-4 3 -15.5 14.5t-14.5 15.5l-0.5 1.5t-0.5 3.5q0 9 10.5 30t27 47t37.5 55t42 54q-20 43 -20 78q0 2 0.5 5t0.5 4q0 3 1.5 10.5t3.5 15.5t4 15.5
t3 10.5q9 7 20 18.5t22 25.5q-27 36 -56.5 70t-64.5 66zM42 572q32 -29 60 -61t55 -67q-11 -13 -20.5 -23t-16.5 -15q-2 -3 -4 -11.5t-4.5 -18t-4 -17.5t-1.5 -11v-2q0 -1 -0.5 -2t-0.5 -2v-3q0 -34 18 -76q-21 -27 -42 -56t-37 -55.5t-26 -47t-10 -29.5q0 -4 0.5 -5t2.5 -6
q4 -5 17 -18t18 -17q1 -1 3 -1q6 -5 11 -9.5t7 -6.5q6 -2 7 -2h2q3 0 7 1q4 3 13 12t12 13q3 7 11 25t18 38.5t19 39t13 26.5q2 3 5 8t7 10l9 -6l1 -1q18 -19 41 -26h12q8 2 12 12v13l-9 9q-5 3 -8 8v4l-10 10t-10 11q-4 4 -7 10q13 17 24 36t16 37q9 -16 18 -32.5t20 -33.5
v2q0 -1 0.5 -1.5t0.5 -1.5q0 -2 2 -4q1 -4 5 -12q-15 -8 -35 -9v-17q0 -13 3.5 -17.5t11.5 -6.5l13 -12q4 -4 9.5 -4.5t13.5 -0.5h10q5 -14 10.5 -27.5t10.5 -24.5q10 -28 18 -47q11 -29 20 -46.5t13 -17.5h3l17 -17h3l2 -2l13 11t23 19l-1 1q10 7 18 13.5t12 10.5h1
q4 3 12.5 11.5t10.5 12.5q1 4 1 8q0 13 -9 33.5t-23.5 45.5t-33.5 53t-40 56q8 30 11.5 60.5t3.5 50.5q0 48 -22 74q3 3 7.5 6.5t7.5 5.5l4 4l4 2.5t9 4.5q9 4 19.5 10.5t19.5 14t15.5 16.5t6.5 19q0 11 -4.5 20.5t-12.5 17.5l-6 5q-9 19 -29 30t-39 11q-13 0 -20 -1.5
t-11 -5t-6 -9t-3 -13.5q0 -1 -0.5 -2t-0.5 -3q-2 -6 -3.5 -12.5t-5.5 -13.5q-4 -8 -9 -15t-10 -15q-3 -5 -7 -9.5t-7 -9.5q-7 1 -13.5 1.5t-11.5 0.5h-2q-3 13 -11 22l-9 9q-5 9 -12.5 15.5t-18.5 6.5q-25 0 -25 -25v-2q-7 -7 -10 -11q-1 -1 -2 -2.5t-3 -3.5q-5 5 -11 13
q-5 6 -10 11.5t-10 11.5q-6 7 -11.5 13t-10.5 12q-8 9 -14.5 16.5t-11.5 13.5q-8 11 -19 17.5t-25 6.5h-8q-2 -2 -6 -5.5t-8.5 -7.5t-8 -8t-4.5 -5zM207 372q5 -7 9 -14t9 -15q-20 -5 -42 -21q6 27 24 50zM323 360l3.5 3.5t7.5 6.5q2 -8 2 -17v-18q-4 5 -7.5 9t-6.5 9
l-3.5 3.5l-3.5 3.5q-1 1 -1.5 2t-1.5 2q3 -2 11 -4zM278 409v-3q-4 4 -8 10zM266 420l3 -3zM289 388l1 -1h-1v1z" />
    <glyph glyph-name="FL00A5h" unicode="&#xa5;" horiz-adv-x="556" 
d="M74 462q-1 2 -1.5 10t-0.5 10q0 18 10.5 34.5t30.5 16.5q14 0 30.5 -19.5t33.5 -50t33 -67.5t28 -71.5t19.5 -62.5t7.5 -40q0 -7 -1.5 -12t-9.5 -8q-19 12 -31.5 31.5t-23 42t-21 45.5t-24.5 41zM375 -22q-1 -21 -16 -39t-38 -33t-51 -27t-55.5 -21t-51.5 -15.5
t-39 -10.5l-22 -5.5t-28.5 -6.5t-26 -5.5t-13.5 -2.5h-14l296 160l-151 -16l-20 -10h-10q-2 1 -5.5 4.5t-4.5 5.5q27 23 59 37.5t74 25.5q-11 8 -17.5 18t-6.5 25q0 21 13.5 36t30.5 28l-115 -12l-20 -10h-10q-2 1 -5.5 4.5t-4.5 5.5q41 34 94 52t133 29q31 45 53 93.5
t22 105.5q0 20 -9.5 39.5t-21.5 38t-21.5 35t-9.5 30.5q0 1 0.5 3l0.5 2q2 3 9.5 10.5t10.5 9.5q4 1 17.5 1.5t17.5 0.5q27 0 47 -11.5t28 -40.5v-14q0 -9 0.5 -20.5t0.5 -21.5v-14q0 -72 -20.5 -130t-58.5 -109q5 0 9.5 0.5t9.5 1.5q1 0 10.5 0.5t20.5 -0.5t19.5 -4.5
t8.5 -11.5q0 -1 -0.5 -3l-0.5 -2q-2 -3 -7.5 -8.5l-12 -12l-12 -12t-8.5 -7.5h-4l-98 -11q-15 -14 -32 -26.5t-35 -24.5q-3 -2 -7 -9.5t-3 -10.5q3 -14 14.5 -20.5t25.5 -11.5q26 5 57 9t66 8q1 0 10.5 0.5t20.5 -0.5t19.5 -4.5t8.5 -11.5q0 -1 -0.5 -3l-0.5 -2
q-2 -3 -7.5 -8.5l-12 -12l-12 -12t-8.5 -7.5h-4zM150 348q8 -11 14.5 -25.5t13.5 -28.5q1 -2 1 -3l1 -2q13 -29 28.5 -56.5t41.5 -44.5q-44 -11 -78 -28t-64 -42q2 -6 9 -15t12 -11h3l12 -12q4 -4 6 -5h15l20 10l43 4q-6 -12 -6 -27q0 -21 13 -37q-37 -11 -66.5 -26.5
t-57.5 -38.5q2 -6 9 -15t11 -11h3l12 -12q4 -4 6 -5h15l20 10l23 3l-202 -110l6 -20h5l17 -17h18q3 0 15 2.5t27 6l30 7t23 5.5q2 1 3 1q2 0 5 1q25 7 64.5 18.5t78 29.5t68 41.5t35.5 54.5l68 7h6q3 2 10 8.5t14.5 14t14 14.5t8.5 10q1 4 1 7q0 8 -6 14l-12 11
q-4 14 -20.5 19t-32.5 5q-3 0 -5.5 -0.5t-4.5 -0.5h-8l-67.5 -7.5t-54.5 -8.5q-6 1 -11 4q4 6 6 8q39 25 66 49l94 11h6q3 2 10 8.5t14.5 14t14 14.5t8.5 10q1 4 1 7q0 8 -6 14l-12 11q-3 11 -13 16t-23 7q27 45 41 95t14 110v14q0 5 -0.5 10.5t-0.5 11.5v36q-7 23 -21 37
l-4 3q-12 23 -32.5 32.5t-46.5 9.5q-4 0 -19 -0.5t-19 -1.5q-4 -3 -15 -14t-14 -15q-1 -4 -1 -8q0 -17 8.5 -33t19.5 -33q12 -19 23 -39t11 -38q0 -54 -20.5 -99.5t-49.5 -88.5q-14 -2 -26 -4t-23 -4v4q0 11 -6 33.5t-16 51.5t-23 61t-28 62.5t-30.5 55.5t-29.5 40l-1 1
q-13 17 -24.5 27.5t-22.5 10.5q-26 0 -39.5 -20.5t-13.5 -42.5q0 -3 0.5 -13t1.5 -12zM259 4h1l4 -4q-2 1 -5 4zM359 -73q2 2 4 5t4 5q-2 -2 -4 -5t-4 -5z" />
    <glyph glyph-name="FL00A6h" unicode="&#xa6;" horiz-adv-x="171" 
d="M3 -93q11 0 18 15.5t11 40t5.5 55t1.5 59.5t-0.5 53t-1.5 39v32q0 2 -0.5 4.5t-0.5 5.5v38q-1 17 -2 51t-2 76t-1.5 87t-0.5 84q0 21 -0.5 33.5t-0.5 22.5t-0.5 19.5t-0.5 24.5l-22 22q2 4 7 9.5t11 10.5l-1 1l3 1.5t6 3.5q5 2 11 5.5t12 6.5q11 5 21 9.5t12 6.5q4 1 7 1
q11 0 17 -5t8 -13l12 -11q5 -5 6.5 -13t1.5 -16q0 -17 -8 -24t-17 -12q-12 -7 -16 -18q2 -9 5.5 -38.5t7.5 -68.5t8 -82.5t8 -80.5q3 -35 5.5 -59t3.5 -32v-9q1 -10 1.5 -28t0.5 -35v-141q0 -17 0.5 -33t0.5 -30v-36q0 -8 -0.5 -14t-0.5 -11v-11q-5 -15 -10.5 -29t-15 -26
t-23.5 -20.5t-35 -11.5l-18 18q-2 -1 -4 -1zM40 -154q33 5 47.5 28.5t22.5 51.5q0 4 0.5 13t0.5 20v36q0 29 -0.5 63.5t-0.5 63.5v34v19v24q0 23 -1 45.5t-1 25.5q-1 8 -3.5 35.5t-6 65.5t-8 80.5t-8 80t-7 65t-5.5 34.5q2 12 8.5 17.5t14 9.5t13 10t5.5 18q0 8 -2.5 17
t-13.5 9q-1 0 -3 -0.5l-2 -0.5q-3 -2 -11.5 -6t-18.5 -9t-18.5 -9t-11.5 -6q-2 -1 -5.5 -4.5t-4.5 -5.5l20 -20l0.5 -25t1 -63.5t1.5 -85.5t1.5 -91.5t1.5 -81t2 -54.5v-10q0 -8 0.5 -18.5t0.5 -20.5v-16q0 -6 0.5 -29.5t1 -56t-0.5 -68.5t-4 -66t-9 -50t-16 -20z" />
    <glyph glyph-name="FL00A7h" unicode="&#xa7;" horiz-adv-x="522" 
d="M214 492l8 -2t17 -5l16.5 -5.5t7.5 -3.5q-8 -8 -17 -15t-18 -15q13 -14 22 -24t11 -12q13 -17 36.5 -46t50.5 -64v6v26q0 23 -3 46t-15 39q-10 -9 -18 -16.5t-11 -10.5q-8 3 -9.5 8.5t-1.5 11.5q0 9 7 22h-28q-2 0 -6 5.5t-6 8.5v3q0 15 11 21t24 6q16 0 31 -3
q11 17 22 31.5t16 25.5q7 15 9 25.5t4 16.5t7 8.5t19 2.5q21 0 41.5 -14.5t20.5 -37.5q0 -11 -10 -21t-22.5 -18t-24 -13.5t-14.5 -8.5q-4 -3 -10.5 -8t-14.5 -13q25 -25 25 -75q0 -19 -3.5 -49.5t-12.5 -61.5q4 -19 -6.5 -33t-27 -23t-34.5 -14.5t-28.5 -8.5t-9 -4t24.5 -1
q-9 0 -14 1.5t-5 10.5v6q12 1 21.5 5t17.5 10q-5 9 -8 16t-5 12q-26 46 -52 88.5t-55 84.5q-17 -19 -29 -40t-12 -47q0 -11 2 -20.5t5 -19.5q20 21 37.5 34t28.5 13q0 -15 -14 -39t-31 -47q10 -16 22 -29.5t24 -26.5v-6q-2 -5 -6 -6h-6q-32 10 -54 42q-7 -10 -12.5 -18
t-7.5 -13q-4 -6 -12.5 -24.5t-18 -39.5t-18 -40t-11.5 -26q-2 -3 -9.5 -10.5t-10.5 -9.5l-2 -0.5t-3 -0.5t-3 0.5l-2 0.5q-4 3 -15.5 14.5t-14.5 15.5l-0.5 1.5t-0.5 3.5q0 9 10.5 30t27 47t37.5 55t42 54q-20 43 -20 78q0 2 0.5 5t0.5 4q0 3 1.5 10.5t3.5 15.5t4 15.5
t3 10.5zM120 407q-2 -3 -4 -11.5t-4.5 -18t-4 -18t-1.5 -11.5v-2q0 -1 -0.5 -2t-0.5 -2v-3q0 -34 18 -76q-21 -27 -42 -56t-37 -55.5t-26 -47t-10 -29.5q0 -4 0.5 -5t2.5 -6q4 -5 17 -18t18 -17q1 -1 3 -1q6 -5 11 -9.5t7 -6.5q6 -2 7 -2h2q3 0 7 1q4 3 13 12t12 13
q3 7 11 25t18 38.5t19 39t13 26.5q2 3 5 8t7 10l9 -6l1 -1q18 -19 41 -26h12q8 2 12 12v13l-9 9q-5 3 -8 8v4l-10 10t-10 11q-4 4 -7 10q13 17 23.5 36t15.5 37q10 -17 19 -33t20 -33v2q0 -1 0.5 -1.5t0.5 -1.5q0 -2 2 -4q1 -4 5 -12q-15 -8 -35 -9v-17q0 -12 3.5 -16.5
t11.5 -6.5l13 -13q4 -4 9.5 -4.5t13.5 -0.5v8q12 3 28 9t30 15.5t23.5 22t9.5 29.5v8q8 31 11.5 61.5t3.5 50.5q0 48 -22 74q5 5 13 11h1v0q0 1 1 1l4 4l4 2.5t9 4.5q9 4 19.5 10.5t19.5 14t15.5 16.5t6.5 19q0 11 -4.5 20.5t-12.5 17.5l-6 5q-9 19 -29 30t-39 11
q-13 0 -20 -1.5t-11 -5t-6 -9t-3 -13.5q0 -1 -0.5 -2t-0.5 -3q-2 -6 -3.5 -12.5t-5.5 -13.5q-4 -8 -9 -15t-10 -15q-3 -5 -7 -9.5t-7 -9.5q-7 1 -13.5 1.5t-11.5 0.5q-19 0 -31 -8q-9 5 -22 11t-21 9t-9 4zM207 372q5 -7 9 -14t9 -15q-20 -5 -42 -21q6 27 24 50zM323 360
l3.5 3.5t7.5 6.5q2 -8 2 -17v-18q-4 5 -7.5 9t-6.5 9l-3.5 3.5l-3.5 3.5q-1 1 -1.5 2t-1.5 2q3 -2 11 -4zM278 409v-3q-4 4 -8 10zM266 420l3 -3zM289 388l1 -1h-1v1z" />
    <glyph glyph-name="FL00A8h" unicode="&#xa8;" horiz-adv-x="314" 
d="M8 708q0 16 7 26.5t24 27.5q17 -6 26 -11t15 -9h-1q7 -4 13.5 -5.5t23.5 -1.5v-6l17 -17q0 -14 -4 -29t-11.5 -27t-18.5 -20t-25 -8q-9 0 -15.5 3t-11.5 8l-9 8q-17 7 -23.5 25t-6.5 36zM158 706q0 16 7 26.5t24 27.5q16 -6 25 -10.5t15 -8.5q7 -4 13.5 -6t23.5 -2v-6
l17 -17q0 -14 -4 -29t-11.5 -27t-18.5 -20t-25 -8q-9 0 -15.5 3t-11.5 8l-9 8q-17 7 -23.5 25t-6.5 36zM170 706q0 -17 7 -34t27 -17q12 0 21 6t15.5 16t10 21.5t3.5 22.5q-9 0 -15 2t-12 5.5t-14 8t-22 9.5q-11 -11 -16 -19t-5 -21zM20 708q0 -17 7 -34t27 -17q12 0 21 6
t15.5 16t10 21.5t3.5 22.5q-9 0 -15 2t-12 5.5t-14 8t-22 9.5q-11 -11 -16 -19t-5 -21z" />
    <glyph glyph-name="FL00A9h" unicode="&#xa9;" horiz-adv-x="306" 
d="M247 624v-1l2 -1zM120 509l12 -6q0 -2 3 -2q13 -7 23.5 -14.5t15.5 -18.5l10 -9q2 -2 3 -4q7 11 9.5 25.5t2.5 28.5v22q0 15 -1.5 30.5t-5.5 26.5h-15l8 -8q4 -4 4 -15q0 -10 -10.5 -14.5t-21.5 -9.5h1q-5 -2 -8.5 -3.5l-3.5 -1.5q-2 -2 -8 -6q-5 -3 -10 -6.5t-7 -5.5h1
q-2 -3 -2 -8v-1zM58 639q-2 -2 -4 -6q2 2 8.5 11.5t11.5 14.5q6 8 12 15l12 14v3q0 22 23 22q10 0 16.5 -6t10.5 -14l11 -10q6 -8 9 -16q58 -2 78 -42l4 -3h-1l2 -1q24 -24 24 -73q0 -18 -3 -48t-13 -59t-27.5 -50t-45.5 -21q-17 0 -21 4l-14 13q-7 2 -10 6.5t-3 16.5v7v3
t1 4h-4q1 14 1 18v4l2 2q-1 0 -1.5 0.5l-0.5 0.5l-17 16l12 -12q-2 2 -5.5 5t-5.5 5q-2 1 -2.5 1.5t-2.5 1.5l-2 2q-4 2 -9 7q-5 2 -7 7q-5 3 -9 6t-9 7q2 -17 11 -34t21 -32q3 -4 6 -7.5t6 -6.5v-2q4 -5 8 -9.5t9 -9.5v-11q-9 -12 -14 -12h-8q-17 5 -33 22l-1 1
q-17 9 -31 26.5t-24 38t-15.5 41t-5.5 37.5v3q0 1 0.5 1.5t0.5 1.5v2q0 7 4 21t6 23q1 2 1 6q8 5 16 15t17 22l1 1l-1 -1l4 7h1zM153 455q0 -6 -3 -10t-3 -9q9 0 13.5 6.5t4.5 13.5q0 12 -11.5 20t-25.5 15.5t-25.5 16t-11.5 22.5q0 4 0.5 6.5t2.5 6.5q2 2 12.5 9.5
t13.5 9.5q2 2 8.5 4.5t13.5 5.5t12.5 6.5t5.5 6.5q0 8 -4 9t-9 1q-2 0 -5.5 -0.5t-6.5 -0.5q-8 0 -18.5 -7.5t-19.5 -18t-15 -22t-6 -19.5q0 -15 13.5 -25t25.5 -20l5 -4q3 0 8.5 -2.5t11 -6t9.5 -7.5t4 -7zM20 537q0 -17 6 -38t17 -41t25.5 -36t32.5 -22h2h3q2 0 5 5v2v3
q-21 24 -41 53t-20 63q0 21 9 38.5t22.5 33t29.5 29.5t30 28q0 2 0.5 6t0.5 6q0 10 -4.5 22t-16.5 12q-13 0 -10 -16q-8 -8 -18 -21t-21 -27.5t-21.5 -27t-19.5 -19.5q-1 -3 -2.5 -9t-3 -13.5t-3 -13.5t-1.5 -9q0 -1 -0.5 -3.5t-0.5 -4.5zM150 410q0 -8 4 -9.5t12 -1.5
q25 0 41 20t24.5 47.5t11.5 56t3 45.5q0 42 -19.5 64.5t-62.5 22.5q-10 0 -19 -5t-9 -18v-2q2 -3 5 -8t5 -5h40l4 -4.5t6 -7.5q10 -14 12.5 -34t2.5 -40v-22q0 -34 -12.5 -62t-47.5 -32q0 -1 -0.5 -2.5t-0.5 -2.5z" />
    <glyph glyph-name="FL00AAh" unicode="&#xaa;" horiz-adv-x="347" 
d="M221 456q0 4 2.5 5t6 1.5t6 1.5t2.5 4q0 1 -0.5 1.5t-0.5 1.5l-30 80q-3 7 -4 8.5t-6 1.5q-9 0 -16 -5t-13.5 -10.5t-13 -10.5t-15.5 -5q-11 0 -12 5t-1 16q0 15 5 21.5t12.5 9t16 1.5t15.5 -1q8 0 12.5 2.5t4.5 11.5v5l-25 100h-5q-20 -66 -41.5 -125.5t-53.5 -119.5
q-8 -11 -19 -11q0 7 -4.5 13t-9.5 11.5t-9.5 11.5t-4.5 14q20 0 36.5 17t25.5 34q2 4 8.5 17.5t13.5 28.5t13.5 29t9.5 20l25 65l10 20q0 1 -1 1v2q-9 0 -16 -11.5t-15 -25.5t-17 -25.5t-21 -11.5q-8 0 -9.5 4t-1.5 12q0 12 10.5 19t23.5 14t23.5 14.5t10.5 21.5
q12 0 23 5.5t22 5.5h3q1 -2 3 -3t2 -2q0 -11 -3.5 -13.5t-8.5 -3l-10 -1t-8 -7.5q0 -5 5 -5q1 0 4.5 2.5t5.5 2.5q5 0 19 -5t21 -10l-4 -16t-6 -14q-5 1 -10.5 5t-10.5 9t-9 9.5t-5 6.5q0 -1 -0.5 -2.5t-0.5 -2.5q0 -11 4 -25t10.5 -28.5t13.5 -28.5t13 -23q1 0 4.5 -2
t5.5 -3v-3v-2l-5 -5l-0.5 -1t-0.5 -2l1 -2l45 -90q10 -5 12.5 -17.5t2.5 -22.5q0 -9 -2 -12.5t-10 -3.5q-6 0 -15 1.5t-17.5 4.5t-15 8t-6.5 12zM209 456q0 -10 6 -16.5t15 -11.5l9 -8q10 -11 27.5 -15t28.5 -4q14 0 17.5 5.5t3.5 19.5q0 10 -3 22.5t-11 20.5l-3 3l-43 86
l5 5v13l-17 17v5l-6 3q-8 14 -14.5 30t-10.5 30q7 -5 14.5 -9.5t13.5 -5.5q7 11 9 17.5t4 13.5q1 2 2 6t2 6l-18 18l2 2l-6 4t-7 4q2 6 2 12l-6 5l-3 6l-8 8v2l-5 5l-2.5 2.5t-3.5 5.5h-9q-15 0 -27 -6q-5 -2 -11.5 -3.5t-18.5 -1.5q0 -17 -8 -24.5t-18 -12.5h1
q-1 0 -2 -0.5t-2 -0.5q-15 -7 -27 -15.5t-12 -27.5q0 -12 1.5 -19t11.5 -9l14 -13q1 -4 11 -4l-8 -16t-8 -17q-2 -3 -2.5 -6t-2.5 -6l-15 -30q-8 -15 -24 -29.5t-39 -14.5q0 -20 4.5 -28.5t10.5 -13.5q1 -1 1.5 -2t1.5 -2q4 -4 7 -10.5t3 -17.5h6l17 -17q24 0 37 18
q11 20 20 39t17 39l8 -7q4 -4 18 -4q11 0 18.5 5t15.5 12q4 4 10 8l21 -53q-6 -2 -10.5 -4t-4.5 -13zM173 623l7 -26v-1q0 -2 -5 -2h-11q2 7 4.5 14.5t4.5 14.5z" />
    <glyph glyph-name="FL00ABh" unicode="&#xab;" horiz-adv-x="351" 
d="M247 414h12v1q3 1 7 1h9q22 0 26 -17l13 -12q6 -6 6 -22q0 -17 -12.5 -36.5t-28.5 -33.5q2 -2 3 -3.5t3 -3.5l4 -4q13 -13 21.5 -28t8.5 -29q0 -17 -6.5 -22.5t-18.5 -5.5q-10 0 -14 1q-5 0 -11.5 0.5t-9.5 0.5l-17 16q-3 1 -6 1q-3 14 -8 23q-8 4 -17 13l-1 1q-2 0 -3 1
q-5 4 -11 8.5t-11 9.5l-2 1q-8 6 -17 14.5t-14 16.5q-3 -4 -6.5 -7.5l-7.5 -7.5q2 -2 3 -3.5t3 -3.5l4 -4q13 -13 21.5 -28t8.5 -29q0 -17 -6.5 -22.5t-18.5 -5.5q-10 0 -14 1q-5 0 -11.5 0.5t-9.5 0.5l-17 16q-3 1 -6 1q-3 14 -8 23q-8 4 -17 13q-1 1 -2 1.5t-2 1.5l1 -1
q-5 4 -11.5 8.5t-11.5 9.5l-2 1q-11 8 -22.5 19.5t-11.5 21.5v2l1 1q0 8 6.5 14.5t15.5 12.5l1 1q1 0 2 1q2 2 4 3.5t4 3.5t3.5 2.5t2.5 1.5q7 7 12 10.5t10 5.5q1 0 1.5 0.5t1.5 0.5h-2q8 5 15 10t9 19l11 9h12v1q3 1 7 1h9q22 0 26 -17l13 -12q6 -6 6 -22q0 -7 -1 -11
q2 3 5 5q2 2 3.5 2.5t2.5 1.5q7 7 12 10.5t10 5.5q1 0 1.5 0.5t1.5 0.5h-2q8 5 15 10t9 19zM107 398q-3 -14 -9 -21t-13 -11.5t-14.5 -8t-13.5 -9.5q-3 -4 -9 -8t-12 -8.5t-10.5 -8.5t-4.5 -8q-2 -4 1.5 -9t9.5 -10.5t12.5 -10.5t11.5 -9q6 -6 13.5 -9.5t14.5 -8t13 -12
t9 -20.5q9 0 16.5 -1t13.5 -0.5t9.5 4.5t3.5 14q0 17 -15 36.5t-33 31.5q19 12 34 32.5t15 37.5q0 10 -3.5 14t-9.5 4.5t-13.5 -0.5t-16.5 -1zM248 402q-3 -14 -9 -21t-13 -11.5t-14.5 -8t-13.5 -9.5q-3 -4 -9 -8t-12 -8.5t-10.5 -8.5t-4.5 -8q-2 -4 1.5 -9t9.5 -10.5
t12.5 -10.5t11.5 -9q6 -6 13.5 -9.5t14.5 -8t13 -12t9 -20.5q9 0 16.5 -1t13.5 -0.5t9.5 4.5t3.5 14q0 17 -15 36.5t-33 31.5q19 12 34 32.5t15 37.5q0 10 -3.5 14t-9.5 4.5t-13.5 -0.5t-16.5 -1z" />
    <glyph glyph-name="FL00ACh" unicode="&#xac;" horiz-adv-x="552" 
d="M40 258h-10q-2 1 -5.5 4.5t-4.5 5.5q25 21 70.5 34t102 21.5t119 14t121.5 11.5q1 0 10.5 0.5t20.5 -0.5t19.5 -4.5t8.5 -11.5q0 -1 -0.5 -3l-0.5 -2q-2 -3 -9 -10.5t-15 -14.5q5 -1 9 -1.5t6 -0.5q0 -11 -7.5 -41t-18.5 -62t-24 -57t-25 -25q-10 0 -12.5 23t-2 52.5
t3 57t2.5 36.5l-338 -17zM416 91q4 -4 11 -4q9 0 18.5 13t19 33t18 44t14.5 46.5t10 40.5t4 26l-2 2q4 4 6.5 8t4.5 6q1 4 1 7q0 8 -6 14l-12 11q-4 14 -20.5 19t-32.5 5q-3 0 -5.5 -0.5t-4.5 -0.5h-8l-33 -3l-18 -2t-19 -2q-53 -5 -105.5 -10.5t-100 -14.5t-86.5 -22.5
t-64 -34.5q2 -6 9 -15t11 -11h3l12 -12q4 -4 6 -5h15l20 10l301 15q-2 -17 -2.5 -37t-0.5 -40q0 -28 4.5 -48.5t17.5 -24.5z" />
    <glyph glyph-name="FL00ADh" unicode="&#xad;" horiz-adv-x="364" 
d="M60 268l-20 -10h-5h-5q-2 1 -5.5 4.5t-4.5 5.5q25 21 41 34.5t37.5 23t54.5 15.5t92 12q1 0 10.5 0.5t20.5 -0.5t19.5 -4.5t8.5 -11.5q0 -1 -0.5 -3l-0.5 -2q-2 -3 -7.5 -8.5l-12 -12l-12 -12t-8.5 -7.5h-4zM41 234q4 -4 6 -5h15l20 10l197 24h6q3 2 10 8.5t14.5 14
t14 14.5t8.5 10q1 4 1 7q0 8 -6 14l-12 11q-4 14 -20.5 19t-32.5 5q-3 0 -5.5 -0.5t-4.5 -0.5h-8q-56 -6 -89 -11.5t-54.5 -13.5t-37 -19.5t-35.5 -29.5q-3 -2 -11 -10q-2 -2 -5.5 -4.5t-6.5 -4.5q2 -6 9 -15t12 -11h3z" />
    <glyph glyph-name="FL00AEh" unicode="&#xae;" horiz-adv-x="1112" 
d="M896 187q2 -3 5 -5zM904 179q3 -5 8 -8zM343 257q0 9 -4 17h-1v1h-1q-25 0 -44 -51v-12v-15q6 0 16 5t25 14q9 19 9 41zM1065 354l-1 -5l18 -17l-24 -155l-44 6l-16 16l-7 1l8 172zM1056 152l-3 -3l18 -18l-45 -44l-18 18l-2 -2l-26 27q-33 5 -66 38q-15 11 -32 29v-64
l-44 -7l-16 16v-14l-36 15l-15 15l-7 3q-3 6 -6 11t-5 9q-1 0 -1.5 0.5l-0.5 0.5q-17 0 -39 -42h-51l-11 10v-7l-61 -19l-14 14v-14q-40 0 -78 38q-8 5 -15 12l-15 15v-64l-46 -8l-17 17l-6 -1l-1 45q-21 -54 -58 -54q-4 0 -12 -2q-5 -1 -9 -1h-8q-38 0 -56 18l-8 7
q-20 10 -28 33q0 58 13 97q-14 6 -18 6q-20 0 -39 -24q-25 -32 -25 -69v-5h9q21 0 45 14v-10l17 -16l2 -53q-15 -9 -24.5 -10.5t-19.5 -1.5q-27 0 -46 19l-5 5q-23 11 -36 40l-1 -33l-60 -23l-18 17l-5 -2l19 222l56 14l-1 -7l18 -17l-2 -34q36 44 133 60l-1 -7l18 -17
l-5 -40q16 32 47 52v-1q10 6 17 6h8q48 0 71 -38l6 -6l3 -3l-1 57l105 -121l4 117l56 -19v-5l17 -17v-87l11 122l57 10l-1 -7l18 -17l-6 -103q20 62 62 119q15 11 30 11q30 0 45 -30l6 -6q4 -5 7.5 -10.5t6.5 -13.5l-1 64l105 -121l6 115l52 -19v-5l17 -17v-171l20 14z
M355 257q0 -13 -3 -26.5t-12 -26.5q-31 -19 -48 -19q-28 0 -28 47v13q23 59 53 59q19 0 33 -24q5 -8 5 -23zM705 253l35 62l22 -62h-57zM37 342l-17 -194l41 16l8 186zM217 353q-129 -21 -129 -109q0 -7 0.5 -11.5l1.5 -13.5q15 -83 68 -83q9 0 17 1t18 7l-1 32
q-7 -4 -34 -4q-38 0 -38 37q0 40 27 75q21 27 46 27q12 0 19 -4zM387 284q-15 65 -73 65h-8q-3 0 -10 -4q-66 -42 -66 -162q10 -33 60 -33q7 0 13.5 1t15.5 2q51 0 68 131zM546 339l-32 11l-5 -131l-103 119l4 -190l28 5v92q62 -92 108 -92v186zM597 350l-18 -193l42 13
l9 186zM791 302q-11 60 -45 60q-12 0 -22 -7q-67 -91 -73 -186h36q22 42 44 42t42 -42l20 -8zM961 345l-29 11l-7 -129l-102 118l4 -188l26 4v92q64 -94 108 -94v186zM1010 161l-25 -18l22 -23l29 28zM1010 356l-7 -145l27 -4l22 138z" />
    <glyph glyph-name="FL00AFh" unicode="&#xaf;" horiz-adv-x="447" 
d="M50 669l-21 -8l-5 1h-5q-2 2 -5 5.5t-4 5.5q27 19 58 30.5t69 18.5t85.5 9.5t106.5 3.5q1 0 10.5 -0.5t20 -2.5t19 -6.5t7.5 -11.5q0 -1 -0.5 -3l-0.5 -2q-3 -3 -9 -8.5t-12.5 -11t-13 -10.5t-9.5 -6h-4zM36 633h6l7 -1l21 8l287 4h7q3 1 10.5 6.5t15 12.5t14.5 13.5
t10 9.5q1 4 1 8v2q0 8 -5 13l-13 13q-3 9 -13.5 14.5t-22.5 7.5t-21.5 2.5t-10.5 0.5q-60 -1 -108 -4t-88 -10.5t-73.5 -21t-64.5 -34.5q2 -8 8.5 -15t11.5 -12h4z" />
    <glyph glyph-name="FL00B0h" unicode="&#xb0;" horiz-adv-x="164" 
d="M8 717q0 16 7 26.5t24 27.5q16 -6 25 -11t15 -9q7 -4 13.5 -5.5t23.5 -1.5v-6l17 -17q0 -14 -4 -29t-11.5 -27t-18.5 -20t-25 -8q-9 0 -15.5 3t-11.5 8l-9 8q-17 7 -23.5 25t-6.5 36zM20 717q0 -17 7 -34t27 -17q12 0 21 6t15.5 16t10 21.5t3.5 22.5q-9 0 -15 2t-12 5.5
t-14 8t-22 9.5q-11 -11 -16 -19t-5 -21z" />
    <glyph glyph-name="FL00B1h" unicode="&#xb1;" horiz-adv-x="466" 
d="M75 -6l-20 -10h-5h-5q-2 1 -5.5 4.5t-4.5 5.5q25 21 55 35.5t67.5 25t84 17.5t105.5 13q1 0 10.5 0.5t20.5 -0.5t19.5 -4.5t8.5 -11.5q0 -1 -0.5 -3l-0.5 -2q-2 -3 -7.5 -8.5l-12 -12l-12 -12t-8.5 -7.5h-4zM182 281l-122 -13l-20 -10h-10q-2 1 -5.5 4.5t-4.5 5.5
q30 26 67.5 41.5t88.5 26.5l-12 118l-10 20v10q1 2 4.5 5.5t5.5 4.5q24 -29 39.5 -64.5t26.5 -83.5q23 3 48 6.5t54 6.5q1 0 10.5 0.5t20.5 -0.5t19.5 -4.5t8.5 -11.5q0 -1 -0.5 -3l-0.5 -2q-2 -3 -7.5 -8.5l-12 -12l-12 -12t-8.5 -7.5h-4l-105 -11q2 -12 0.5 -17.5
t-3.5 -10t-3.5 -11t0.5 -21.5q0 -2 2 -15.5t2.5 -30t-1.5 -29.5t-10 -13q-1 0 -3 0.5l-2 0.5q-3 -19 -7.5 -22t-9.5 4t-10 20.5t-9.5 27.5t-8 25t-4.5 14v4zM162 214v-8q2 -5 2.5 -7.5t3.5 -10.5q0 -2 0.5 -2.5t1.5 -2.5q3 -12 7.5 -25.5t9.5 -25t11 -19.5t14 -8l12 -12
q5 -5 9 -5q11 0 17 22q11 2 14.5 13.5t3.5 28.5q0 14 -1 28t-2 22q0 2 -0.5 3.5t-0.5 2.5q-1 5 -1 8v6q0 9 3 14q2 4 3.5 8t1.5 12v3l95 10h6q3 2 10 8.5t14.5 14t14 14.5t8.5 10q1 4 1 7q0 8 -6 14l-12 11q-4 14 -20.5 19t-32.5 5q-3 0 -5.5 -0.5t-4.5 -0.5h-8
q-43 -5 -74 -9q-2 -1 -7 -1q-11 36 -26 66.5t-37 57.5l-5 4q-3 5 -6.5 10t-7.5 10q-6 -2 -15 -9t-11 -12v-17l10 -21l11 -104q-49 -12 -86.5 -29t-70.5 -45q2 -6 9 -15t11 -11h3l12 -12q4 -4 6 -5h15l20 10l83 8zM56 -40q4 -4 6 -5h15l20 10l284 30h6q3 2 10 8.5t14.5 14
t14 14.5t8.5 10q1 4 1 7q0 8 -6 14l-2 1q1 0 1 -1h1l-12 11q-4 14 -20.5 19t-32.5 5q-3 0 -5.5 -0.5t-4.5 -0.5h-8q-60 -6 -107.5 -13.5t-86.5 -19t-71 -27.5t-60 -39q2 -6 9 -15t11 -11h3z" />
    <glyph glyph-name="FL00B2h" unicode="&#xb2;" horiz-adv-x="253" 
d="M126 536q-15 -19 -28 -36t-18 -35q5 -2 11.5 -3t8.5 -1q14 0 24.5 4t18.5 9h-1q8 5 14.5 7.5t16.5 2.5q11 0 17 -6t10 -14l10 -10q7 -7 9.5 -17t2.5 -18q0 -18 -10 -23t-26 -5q-7 0 -13 0.5t-12 1.5q-5 1 -10 1h-9q-8 0 -16 2.5t-15 6.5q4 -10 4 -21q-17 0 -35 8t-32 22
l-4 3q-15 10 -25.5 23t-10.5 28q0 24 7.5 44.5t19.5 38t26 32.5t28 29q8 8 16.5 17t14.5 17l-8 4q2 -1 -7 1t-22 5q-15 4 -27.5 7.5t-17.5 8.5l-2 1l-10 10q-9 3 -11 7h-1l-2 5q0 12 1 15t9 3q3 2 6.5 3.5t6.5 1.5h119v-5q15 -2 17 -14l14 -13q4 -4 4 -11v-11
q0 -38 -20 -68.5t-43 -57.5zM193 439q0 8 -4 20.5t-16 12.5q-8 0 -15 -3.5t-15 -8t-18.5 -8t-24.5 -3.5q-3 0 -12.5 1.5t-12.5 3.5q-5 -3 -5 -5l-0.5 -1t-0.5 -2l1 -2q11 -6 24.5 -13.5t27.5 -7.5q9 0 21 -1.5t23 -1.5q12 0 19.5 3.5t7.5 15.5zM49 469q0 26 17.5 50t38 49
t38 53t17.5 61v11q0 6 -8 6h-2q-2 -2 -4.5 -5t-3.5 -5v15h-107q-2 0 -5.5 -2t-4.5 -3l-0.5 -0.5t-0.5 -2.5l1 -2l11 -3t24.5 -6.5t25.5 -6.5t14 -4l25 -10l2 -1q2 0 2.5 0.5l0.5 0.5l15 15v-5q0 -21 -19.5 -41.5t-43 -44.5t-43 -53.5t-19.5 -68.5q0 -11 6.5 -21t16.5 -17.5
t21.5 -12t21.5 -4.5q0 8 -6 13t-12.5 10.5t-12.5 13t-6 21.5z" />
    <glyph glyph-name="FL00B3h" unicode="&#xb3;" horiz-adv-x="266" 
d="M49 659q-1 0 -2 0.5l-1 0.5q-16 -5 -21 -2.5t-5 5.5v4q0 2 0.5 6.5t0.5 6.5q21 14 43.5 17.5t46.5 3.5h7q7 0 16 -0.5t12 -0.5q20 -17 20 -43q0 -11 -4.5 -23t-11.5 -23t-16.5 -20t-18.5 -13q4 1 8 1h8h16q25 0 42 -11t17 -40q0 -16 -6 -36t-17.5 -38t-26.5 -30t-33 -12
q-20 0 -30 19t-10 39q7 0 12 -4.5t9.5 -9.5t9 -9.5t12.5 -4.5q10 0 17 12t12 27t7.5 29t2.5 18q0 2 -1 7t-2.5 10t-4.5 9t-7 4h-70v5q7 7 16.5 20.5t17.5 28.5t13 30.5t4 27.5q-2 8 -7 9t-10 1q-12 0 -22.5 -5t-20.5 -10v-8zM91 529h62v-1q0 -4 -1.5 -16t-5 -25t-8.5 -23
t-12 -10q-6 0 -13 10l-2 2q-5 5 -13.5 10.5t-26.5 5.5q0 -24 9 -47.5t27 -31.5l9 -8q12 -12 27 -12q20 0 37 13t29 32t19 41t7 39q0 28 -15 43l-8 8q-10 20 -34 28q8 12 12.5 25t4.5 25q0 27 -20 47l-6 5q-3 6 -8 12t-10 11h-14q-2 0 -4.5 0.5t-5.5 0.5h-16
q-25 0 -49.5 -4.5t-52.5 -23.5q0 -1 -0.5 -3t-0.5 -4v-15q0 -15 14 -18l13 -12q5 -5 15 -5q3 0 6.5 0.5t8.5 1.5h3l32 -3v13q4 2 7.5 4t8.5 4q-7 -21 -21.5 -45t-26.5 -36v-21h6z" />
    <glyph glyph-name="FL00B4h" unicode="&#xb4;" horiz-adv-x="180" 
d="M19 705q14 2 19 9t10 15v-2q0 1 0.5 1.5t0.5 1.5q2 5 6.5 11t14.5 16q8 7 17 12.5t20 5.5q17 0 22 -16l12 -12q7 -7 7 -25v-8q0 -4 -1 -9q0 -12 -9 -26.5t-22.5 -27t-28.5 -21.5t-28 -9q-16 0 -22 6l-13 12q-16 5 -16 27v9t1 7v3q0 2 0.5 4.5t0.5 4.5zM22 693
q0 -9 -1 -16.5t-0.5 -13.5t4.5 -9.5t14 -3.5q12 0 25.5 8t25.5 19.5t20 24.5t8 24q3 22 -1 30t-11.5 7.5t-16.5 -7t-17 -13.5q-6 -6 -9.5 -13.5t-8 -14.5t-12 -13t-20.5 -9z" />
    <glyph glyph-name="FL00B5h" unicode="&#xb5;" horiz-adv-x="533" 
d="M56 33q-10 -7 -14 -15h10q3 0 4 1v14zM383 278q0 62 -13.5 113t-47.5 105q-5 8 -11.5 12.5t-13 8t-13.5 7.5t-12 11q6 8 15.5 19t21.5 20.5t25.5 15.5t27.5 4q13 -2 24.5 -19t20.5 -41.5t15.5 -54t11 -56t7 -46.5t2.5 -27q0 -8 -1.5 -27.5t-4.5 -44t-8.5 -51.5t-13.5 -49
t-19 -36.5t-25 -14.5q0 38 6 75t6 76zM27 -129q7 0 11.5 9.5t8 25t5.5 36.5t3 44l-13 -7h-5q-8 0 -11 4t-4.5 9t-1 11t0.5 10q0 18 4 34t9.5 32t10.5 32t7 34v30q0 22 0.5 46t0.5 45v30q0 17 0.5 45t0 59.5t-3 62t-8.5 53.5q0 1 -3 7t-7 12.5t-7 12t-3 7.5q0 1 -0.5 4.5
t-0.5 5.5q0 19 16 19q18 0 28.5 -16t16 -36.5t7.5 -39.5t3 -25q14 -100 21 -196.5t9 -193.5q-1 -1 -2.5 -3t-3.5 -4v-33q75 23 150 41.5t156 18.5q5 0 20 -0.5t20 -0.5q2 -1 5.5 -4.5t4.5 -5.5l1 -4q0 -12 -10.5 -24t-24.5 -22t-27.5 -17.5t-18.5 -10.5h-4q-33 0 -64.5 5.5
t-66.5 5.5q-33 0 -68 -1t-67 -10q-2 -2 -6 -2q0 -26 0.5 -46t0.5 -25q0 -11 -0.5 -20t-0.5 -13q-8 -28 -22.5 -51.5t-47.5 -28.5zM371 278q0 -19 -2 -37.5t-4 -37.5t-4 -39t-2 -49h5l9 -8q-58 -5 -112.5 -17.5t-109.5 -29.5q-2 98 -9 194t-21 194q0 7 -1 12q-1 9 -3 22.5
t-6 28t-9.5 27.5t-14.5 22l-3 2l0.5 -0.5t1.5 -0.5l-5 5q-8 13 -18.5 21.5t-25.5 8.5q-28 0 -28 -31v-4q0 -1 0.5 -1.5t0.5 -1.5v-3q0 -4 3 -11t8 -15q2 -2 3 -5t3 -5l-1 1q4 -8 4 -7q8 -28 10 -66t2 -74q0 -8 -0.5 -14.5t-0.5 -13.5v-124q0 -6 -0.5 -12t-0.5 -12v-51
q-2 -14 -6 -28.5t-9 -28.5q-6 -17 -11 -35t-5 -41v-9q0 -10 2.5 -20.5t14.5 -14.5l13 -13v0q1 0 1 -1q-2 -31 -5.5 -51.5t-8.5 -20.5l-10 -15l23 -59q2 0 4 1l18 -18q21 3 35 11.5t23.5 20.5t15 26t10.5 29v11q0 5 0.5 11t0.5 14v12q0 9 -0.5 22.5t-0.5 30.5q29 8 61 9t62 1
h9q17 0 33.5 -2t33.5 -4q16 -2 31.5 -3.5t32.5 -1.5h6l5 2.5t6 3.5q9 5 22.5 13.5t25.5 18.5t20.5 22t8.5 25l-1 4q-2 4 -9 12l-8 7v2q-2 4 -7.5 10.5t-10.5 8.5h-24q-4 0 -7.5 0.5t-6.5 0.5h-6h-13q18 16 30.5 48.5t19.5 67.5t10 64.5t3 40.5q0 10 -4.5 42.5t-13.5 71
t-22 75t-30 53.5l-7 6q-14 25 -32 28h-7q-15 0 -29.5 -8t-27.5 -19t-24 -23.5t-18 -21.5q8 -10 14 -15t12 -9l5 -4q5 -6 10.5 -9.5t12.5 -6.5v-1h1h-1q33 -53 46.5 -102t13.5 -109z" />
    <glyph glyph-name="FL00B6h" unicode="&#xb6;" horiz-adv-x="542" 
d="M278 444q0 -29 7.5 -67.5t15.5 -70.5q4 39 6.5 78t2.5 79q-3 3 -6 5.5t-5 5.5q-4 2 -6.5 3t-4.5 1q-5 0 -7.5 -9.5t-2.5 -24.5zM69 58h-5q-5 12 -12 22.5t-13 20.5q-1 1 -0.5 1.5t-4.5 5.5q-10 15 -18 32t-8 44q22 0 32.5 -2t18.5 -4q2 0 3 -0.5t3 -0.5q10 -2 19.5 -4
t19.5 -2q23 0 44 21t39 44l-1 -1q1 2 2 3.5l1 1.5q2 2 5 6t19 20q5 0 14.5 -8t11.5 -13l11 -11q6 -5 6 -10q0 -10 -8.5 -27.5t-22.5 -38t-31.5 -41.5t-35 -38t-34 -27.5t-27.5 -10.5h-11zM444 142l17 -17v-28q-2 -4 -3.5 -6.5t-5.5 -8.5q-5 -8 -12 -18t-14 -21t-14 -21
t-12 -16q-1 -2 -4 -5q-12 -18 -20.5 -25t-28.5 -7q-15 0 -24 9l-10 10q-17 6 -22.5 22.5t-7.5 32.5q0 1 -0.5 1.5t-0.5 2.5q-1 3 -1 5q0 3 -1 5q2 40 5.5 81t7.5 81q1 6 1 11q0 6 1 12q0 6 2 16q-32 5 -62 21.5t-55 41.5q-22 17 -40.5 38.5t-32 45t-21 47.5t-7.5 47v17
q0 9 1.5 19t6 18t13 13.5t22.5 5.5h185q5 5 12 11t11 9q4 1 7 1h6t4 -2q5 -5 7 -8.5t3 -5.5l9 -9q5 -5 6 -8t2 -5q6 -2 9 -2v-1h2q5 -1 18 -4t27.5 -6t27.5 -6t18 -4q2 -2 4.5 -6t5.5 -8l9 -9q4 -4 10 -14.5t6 -14.5t-4.5 -15.5t-6.5 -18.5l-12 -24q-5 -2 -6 -2h-4h-6t-3 1
l-86 28q0 -20 -0.5 -40t-1.5 -40q-1 -23 -1.5 -47t-0.5 -49q0 -38 2.5 -74t9.5 -71l28 14q5 1 8 1.5t17 5.5v-7zM227 244q0 2 -4 6t-6 4q-11 -12 -23.5 -28.5t-26.5 -31.5t-29.5 -25t-33.5 -10q-23 0 -42 6.5t-42 6.5q0 -12 6.5 -25t15 -26.5t17 -26.5t13.5 -24h5
q11 0 26 10t32 26.5t33.5 36t29.5 39t21 36t8 26.5zM432 132l-2.5 -0.5l-7.5 -1.5l-40 -20h-5h-5q-13 43 -17.5 89t-4.5 94t2 94.5t2 91.5q2 0 4.5 0.5t3.5 0.5l90 -30l2 -0.5t4 -0.5q1 0 2.5 0.5l1.5 0.5q1 1 4.5 8.5t5.5 11.5q2 6 6 17t4 13q0 3 -4 10.5t-6 9.5
q-5 1 -18 4t-27.5 6t-27 6t-17.5 4q-3 1 -7.5 2t-9.5 3q-12 4 -13 5t-2 5q-2 6 -4 14.5t-4 10.5l-1.5 0.5t-3.5 0.5q-1 0 -3 -0.5l-2 -0.5q-3 -2 -10.5 -9.5t-9.5 -10.5h-190q-20 0 -25.5 -15t-5.5 -29v-17q0 -35 16.5 -72.5t43.5 -68.5t62 -51.5t71 -20.5q-4 10 -11.5 37.5
t-14 59.5t-9 62.5t3 47t21.5 13.5t48 -39q0 -51 -4 -102t-9 -101.5t-10 -101.5t-7 -102q2 -8 4 -19t5 -20.5t9 -16t17 -6.5q18 0 25 7t20 25q7 9 17 24t19.5 29.5t16.5 25.5l7 11v12z" />
    <glyph glyph-name="FL00B7h" unicode="&#xb7;" horiz-adv-x="164" 
d="M20 270q0 13 5 21t16 19q14 -5 22 -9.5t14 -8t12 -5.5t15 -2q0 -11 -3.5 -22.5t-10 -21.5t-15.5 -16t-21 -6q-20 0 -27 17t-7 34zM8 270q0 -18 6.5 -36t23.5 -25l9 -8q5 -5 11.5 -8t15.5 -3q14 0 25 8t18.5 20t11.5 27t4 29l-17 17v6q-17 0 -23.5 1.5t-13.5 5.5
q-6 4 -15 9t-25 11q-17 -17 -24 -27.5t-7 -26.5z" />
    <glyph glyph-name="FL00B8h" unicode="&#xb8;" horiz-adv-x="283" 
d="M22 -149q18 -7 38 1.5t39.5 26.5t36 43t28 51.5t15.5 52t-2 44.5q-2 5 2 6t4 3q0 4 -8 4q-7 0 -13 3l61 -28v-5q0 -72 -24.5 -119.5t-56 -75.5t-61.5 -39t-42 -11t-15.5 4.5t-3.5 12.5q0 5 1 11.5t1 14.5zM10 -148q0 -9 -1 -14q0 -2 -0.5 -4t-0.5 -4v-5q0 -11 3 -18
t14 -10l12 -12q6 -6 22 -6q12 0 44 11.5t65 40.5t58.5 78t25.5 124v11l-17 17v5l-70 32l-11 -22q6 -4 10 -4v-2q0 -2 1 -3q3 -12 3 -21q0 -27 -12 -59t-31 -60.5t-41.5 -47.5t-44.5 -19q-8 0 -14 2z" />
    <glyph glyph-name="FL00B9h" unicode="&#xb9;" horiz-adv-x="193" 
d="M8 667q0 6 5.5 13.5t14 14.5t19.5 11.5t22 4.5h6q31 -3 44 -15t22 -27h-1v-1h1q6 -6 10 -12t9 -13v-20q0 -5 1 -8q0 -3 0.5 -7t0.5 -6v-22q0 -8 -0.5 -15.5t-1.5 -12.5v-8q-2 -6 -3.5 -13t-4.5 -16q-5 -16 -11 -35t-11 -35q9 -7 10 -14l12 -11q6 -6 6 -14q0 -5 -3 -13
t-22 -8l-3 1q-2 1 -9 3t-15 4h-1q-12 3 -21 7q-5 0 -11 6l-11 11q-1 0 -2 0.5l-1 0.5h-1v1q-5 2 -9.5 8t-4.5 14l16 11q3 33 4.5 51.5t2 30.5t1.5 21t2 22v51q0 10 -1 15l-8 -1h1q-9 -3 -22 -3l-17 17h-4zM20 668q11 0 19 3t19 3q12 0 17 -9t6.5 -20t1 -22.5t-0.5 -15.5v-8
v-18v-5q-1 -14 -3 -36t-3.5 -43.5t-2.5 -37l-1 -15.5l-16 -10q0 -2 3 -3.5t5 -1.5q2 -1 9 -3t15 -4t15.5 -4t9.5 -3l3 -1q10 0 11.5 4.5t1.5 7.5q0 6 -4.5 9t-10.5 5.5t-11 5t-6 8.5q2 5 7 21t10.5 34t10 34.5t6.5 22.5q0 2 1 12.5t1 21.5v12v10q0 5 -1 10.5t-1 10.5v17
q-8 13 -19 24.5t-38 14.5q-19 2 -36.5 -9.5t-17.5 -21.5z" />
    <glyph glyph-name="FL00BAh" unicode="&#xba;" horiz-adv-x="344" 
d="M128 406q2 -3 7 -8q-1 1 -1 2zM8 530v7q0 2 1 6l2 6q-2 -2 -0.5 2t2.5 7q2 9 4.5 19t4.5 15q11 8 23.5 22t25.5 29q2 3 5 5.5t5 5.5q9 10 17.5 19t15.5 17v1q0 24 24 24q11 0 18.5 -6.5t11.5 -15.5l10 -9q7 -9 10 -17q70 0 95 -44l5 -5q-1 1 -2 1l-1 1l3 -2
q25 -25 25 -76q0 -18 -3.5 -49.5t-15 -62t-31.5 -52.5t-53 -22q-8 0 -14 0.5t-9 3.5l-14 14q-7 2 -10 6.5t-3 15.5q0 5 0.5 7t4.5 10q20 2 32.5 10.5t20 20.5t10.5 27t3 30v23q0 17 -1.5 33t-8.5 29h-34q-5 0 -9 4l-14 13q-2 0 -3 0.5t-2 0.5q-29 -23 -52 -48.5t-23 -57.5
q0 -18 6.5 -34.5t17.5 -31.5l14 -16t15 -15q2 -6 2 -7q0 -2 2 -2q3 -3 6.5 -6t6.5 -6q2 -4 2 -9l-1 -2q-9 -12 -15 -12h-9q-25 8 -44 27q-17 11 -31.5 29t-25 38.5t-16.5 41t-6 37.5zM172 396q0 -8 5 -9.5t13 -1.5q30 0 48.5 21t28.5 50t13.5 58.5t3.5 47.5q0 45 -22.5 69
t-73.5 24q-11 0 -22 -5.5t-11 -19.5v-2q2 -3 6 -8t6 -5h46q1 0 5.5 -5t6.5 -9q12 -14 15 -35.5t3 -41.5v-23q0 -17 -3 -34t-11 -31t-21.5 -23.5t-34.5 -11.5l-0.5 -1.5t-0.5 -3.5zM20 530q0 -17 7 -39.5t19.5 -43.5t30 -38t37.5 -23h3h3q3 0 6 5l1 2q0 1 -0.5 2l-0.5 1
q-25 25 -48 55.5t-23 66.5q0 21 10 40t26 35.5t34.5 31.5t35.5 29q1 1 1 6v7q0 10 -5 23t-19 13q-15 0 -12 -17q-9 -8 -20.5 -22t-24.5 -29t-25.5 -28.5t-22.5 -20.5q-1 -3 -3 -10t-3.5 -14.5t-3 -14t-2.5 -9.5l-0.5 -3t-0.5 -5z" />
    <glyph glyph-name="FL00BBh" unicode="&#xbb;" horiz-adv-x="351" 
d="M204 398q3 -14 9 -21t13 -11.5t14.5 -8t13.5 -9.5q3 -4 9 -8t12 -8.5t10.5 -8.5t4.5 -8q2 -4 -2 -9t-10 -10t-12.5 -10.5t-10.5 -9.5q-6 -6 -13.5 -9.5t-14.5 -8t-13 -12t-9 -20.5q-9 0 -16.5 -1t-13.5 -0.5t-9.5 4.5t-3.5 14q0 17 15 36.5t33 31.5q-19 12 -34 32.5
t-15 37.5q0 10 3.5 14t9.5 4.5t13.5 -0.5t16.5 -1zM63 402q3 -14 9 -21t13 -11.5t14.5 -8t13.5 -9.5q3 -4 9 -8t12 -8.5t10.5 -8.5t4.5 -8q2 -4 -2 -9t-10 -10t-12.5 -10.5t-10.5 -9.5q-6 -6 -13.5 -9.5t-14.5 -8t-13 -12t-9 -20.5q-9 0 -16.5 -1t-13.5 -0.5t-9.5 4.5
t-3.5 14q0 17 15 36.5t33 31.5q-19 12 -34 32.5t-15 37.5q0 10 3.5 14t9.5 4.5t13.5 -0.5t16.5 -1zM205 410h-12v1q-3 1 -7 1h-9q-14 0 -21 -6.5t-7 -24.5q0 -17 12.5 -36.5t29.5 -34.5q-4 -3 -7 -6l-6 -6v1q0 6 -7 13l-10 10q-2 7 -8 13t-14 11q-1 1 -2 1l-1 1q-6 4 -9 7
q-3 2 -5 4q-7 7 -12 10.5t-10 5.5q-1 0 -1.5 0.5t-1.5 0.5h2q-2 1 -3.5 1.5t-3.5 1.5v5l-16 16q-1 1 -1 5l-11 9h-12v1q-3 1 -7 1h-9q-14 0 -21 -6.5t-7 -24.5q0 -17 12.5 -36.5t29.5 -34.5q-17 -15 -29 -33t-12 -34q0 -14 4.5 -21t12.5 -9l12 -12q6 -6 19 -6q10 0 14 1
q5 0 11 0.5t10 0.5q5 21 12.5 27.5t15.5 11.5q5 2 10 5.5t10 8.5l2.5 2.5t9.5 7.5l4 2q-6 -12 -6 -23q0 -14 4.5 -21t12.5 -9l12 -12q6 -6 19 -6q10 0 14 1q5 0 11 0.5t10 0.5q5 21 12.5 27.5t15.5 11.5q5 2 10 5.5t10 8.5l2.5 2.5t9.5 7.5q9 8 18 14.5t9 17.5q0 1 -0.5 1.5
t-0.5 1.5q0 6 -7 13l-10 10q-2 7 -8 13t-14 11q-1 1 -2 1l-1 1q-6 4 -9 7q-3 2 -5 4q-7 7 -12 10.5t-10 5.5q-1 0 -1.5 0.5t-1.5 0.5h2q-2 1 -3.5 1.5t-3.5 1.5v5l-16 16q-1 1 -1 5z" />
    <glyph glyph-name="FL00BEh" unicode="&#xbc;" horiz-adv-x="573" 
d="M337 173q-2 6 -5 6h-9q-5 0 -9 3t-7 16q0 3 -0.5 8l-0.5 5h30q0 1 0.5 7t0.5 15v15q0 6 -2.5 19.5t-2.5 15.5t-4.5 5.5t-5.5 4.5v3v2q2 2 5 5.5t5 4.5q11 -8 16.5 -20t7.5 -25.5t1.5 -26.5t-0.5 -23l5 -5l90 -30v7q0 5 0.5 9.5t0.5 9.5v7q0 20 -5.5 36.5t-5.5 35.5
q0 7 3.5 13.5t11.5 6.5q2 0 5 -16t6 -36t5.5 -38.5t3.5 -24.5q3 -16 9 -22.5t12 -10t10.5 -5.5t4.5 -9q0 -1 -0.5 -2l-0.5 -1q0 -3 -5 -5l-20 10h-2h-3q-4 -38 -5 -71.5t-1 -71.5q-17 0 -28 16t-11 31q0 27 8 53t8 54q0 9 -12.5 13.5t-28.5 6.5t-31 2.5t-19 0.5l-25 -11v7z
M20 670q0 10 17.5 21.5t36.5 9.5q27 -3 38 -14.5t19 -24.5v-17q0 -5 1 -10.5t1 -10.5v-10v-12q0 -11 -1 -21.5t-1 -12.5q-2 -6 -6.5 -22.5t-10 -34.5t-10.5 -34t-7 -21q1 -6 6 -8.5t11 -5t10.5 -5.5t4.5 -9q0 -3 -1.5 -7.5t-11.5 -4.5l-3 1q-2 1 -9.5 3t-15.5 4t-15 4t-9 3
q-2 0 -5 1.5t-3 3.5l16 10l1 15.5t2.5 37t3.5 43.5t3 36v5v18v8q0 4 0.5 15.5t-1 22.5t-6.5 20t-17 9q-11 0 -19 -3t-19 -3zM137 88q0 -10 -9.5 -33.5t-23 -49t-28 -47t-23 -28.5t-9 6t13.5 58q0 26 1.5 51.5t9.5 58t25 75.5t49 103t81.5 140.5t121.5 188.5q1 -1 9.5 16
l19 38l19 38t9.5 16l0.5 -2t0.5 -3t-0.5 -3l-0.5 -2q1 -8 -2 -27t-8.5 -42.5t-13 -49t-15 -47t-15 -36t-13.5 -16.5zM59 -99q3 -3 9 -3q7 0 22.5 21t32 49.5t29.5 56t14 41.5l197 400q9 9 21 38.5t22.5 64t18 67.5t7.5 48v3q1 4 1 7v3q0 2 -2 8l-15 15q0 2 -0.5 3t-1.5 5
q-1 0 -2.5 0.5t-2.5 0.5q-8 0 -21.5 -18t-24.5 -41v1q-2 -4 -4 -8.5t-4 -8.5q-5 -8 -7.5 -15t-3.5 -10q-73 -110 -123.5 -192.5t-84 -144t-51.5 -106t-27 -77.5t-10.5 -59t-1.5 -51q-8 -23 -11 -38.5t-3 -25.5q0 -18 13 -20zM325 147l5 2l18 -17l36 16q6 0 23.5 -0.5
t33.5 -3.5q-1 -9 -3 -18.5t-4 -19.5q0 -1 -0.5 -1.5t-0.5 -1.5q-3 -14 -5.5 -27t-2.5 -29q0 -14 8.5 -28.5t24.5 -22.5l8 -8q17 -17 39 -17q0 39 1 72t4 68l17 -8q12 4 14 13q1 2 1 5q0 9 -4 13l-14 13q-2 7 -6 10t-9 6q-1 0 -1.5 0.5t-1.5 0.5h1h-1v6q-2 8 -5 30
q-2 12 -3.5 26t-3.5 27t-5 23t-7 14l-1 1l-11 10q-6 14 -13 14q-15 0 -21 -10.5t-6 -21.5q0 -20 5 -38q0 -1 0.5 -2l0.5 -1q5 -18 5 -31v-7q0 -2 -0.5 -3t-0.5 -3v-3l-54 17v5q0 18 -4 37.5t-20 35.5l-6 5q-5 7 -10 13.5t-13 12.5q-4 -2 -8.5 -4.5t-7.5 -6.5q-1 -1 -2 -2.5
t-2 -2.5q0 -1 -3 -2v-22h5l6 -6q0 -4 1 -6l3 -21v-15q0 -7 -1 -10h-31q2 -14 2 -17v-11q3 -15 8 -20.5t12 -7.5l10 -9v-11zM19 658h4l17 -17q13 0 22 3h-1l8 1q1 -5 1 -15v-51q-1 -13 -2 -22t-1.5 -21t-2 -30.5t-4.5 -51.5l-16 -11q0 -8 4.5 -14t9.5 -8v-1h1l1 -0.5t2 -0.5
l11 -11q6 -6 11 -6q9 -4 21 -7h1q8 -2 15 -4t9 -3l3 -1q19 0 22 8t3 13q0 8 -6 14l-2 1q1 0 1 -1h1l-12 11q-1 7 -10 14q5 16 11 35t11 35q3 9 4.5 16t3.5 13v7q1 5 1.5 13t0.5 16v22q0 2 -0.5 6t-0.5 7q-1 3 -1 8v20q-5 7 -9 13t-10 12h-1v1h1q-9 15 -22 27t-44 15h-6
q-11 0 -22 -4.5t-19.5 -11.5t-14 -14.5t-5.5 -13.5zM62 662h1q0 -1 2 -3l-4 4q1 0 1 -1z" />
    <glyph glyph-name="FL00BDh" unicode="&#xbd;" horiz-adv-x="555" 
d="M495 15q0 -12 -7.5 -15.5t-19.5 -3.5q-11 0 -23 1.5t-21 1.5q-14 0 -27.5 7.5t-24.5 13.5l-1 2q0 1 0.5 2l0.5 1q0 2 5 5q3 -2 12.5 -3.5t12.5 -1.5q14 0 24.5 3.5t18.5 8t15 8t15 3.5q12 0 16 -12.5t4 -20.5zM351 45q0 -14 6 -21.5t12.5 -13t12.5 -10.5t6 -13
q-10 0 -21.5 4.5t-21.5 12t-16.5 17.5t-6.5 21q0 39 19.5 68.5t43 53.5t43 44.5t19.5 41.5v5l-15 -15l-0.5 -0.5t-2.5 -0.5l-2 1l-25 10q-2 1 -14 4t-25.5 6.5t-24.5 6.5l-11 3l-1 2q0 2 0.5 2.5l0.5 0.5q1 1 4.5 3t5.5 2h107v-15q1 2 3.5 5t4.5 5h2q8 0 8 -6v-11
q0 -33 -17.5 -61t-38 -53t-38 -49t-17.5 -50zM20 669q0 10 17.5 21.5t36.5 9.5q27 -3 38 -14.5t19 -24.5v-17q0 -5 1 -10.5t1 -10.5v-10v-12q0 -11 -1 -21.5t-1 -12.5q-2 -6 -6.5 -22.5t-10 -34.5t-10.5 -34t-7 -21q1 -6 6 -8.5t11 -5t10.5 -5.5t4.5 -9q0 -3 -1.5 -7.5
t-11.5 -4.5l-3 1q-2 1 -9.5 3t-15.5 4t-15 4t-9 3q-2 0 -5 1.5t-3 3.5l16 10l1 15.5t2.5 37t3.5 43.5t3 36v5v18v8q0 4 0.5 15.5t-1 22.5t-6.5 20t-17 9q-11 0 -19 -3t-19 -3zM132 88q0 -10 -9.5 -33.5t-23 -49t-28 -47t-23 -28.5t-9 6t13.5 58q0 26 1.5 51.5t9.5 58
t25 75.5t49 103t81.5 140.5t121.5 188.5q1 -1 9.5 16l19 38l19 38t9.5 16l0.5 -2t0.5 -3t-0.5 -3l-0.5 -2q1 -8 -2 -27t-8.5 -42.5t-13 -49t-15 -47t-15 -36t-13.5 -16.5zM54 -99q3 -3 9 -3q7 0 22.5 21t32 49.5t29.5 56t14 41.5l197 400q9 9 21 38.5t22.5 64t18 67.5
t7.5 48v3q1 4 1 7v3q0 2 -2 8l-15 15q0 2 -0.5 3t-1.5 5q-1 0 -2.5 0.5t-2.5 0.5q-8 0 -21.5 -18t-24.5 -41v1q-2 -4 -4 -8.5t-4 -8.5q-5 -8 -7.5 -15t-3.5 -10q-73 -110 -123.5 -192.5t-84 -144t-51.5 -106t-27 -77.5t-10.5 -59t-1.5 -51q-8 -23 -11 -38.5t-3 -25.5
q0 -18 13 -20zM340 246q5 -5 17.5 -8.5t27.5 -7.5q13 -3 22 -5t7 -1l8 -4q-6 -8 -14.5 -17t-16.5 -17q-14 -14 -28 -29t-26 -32.5t-19.5 -38t-7.5 -44.5q0 -15 10.5 -28t25.5 -22l4 -4q14 -14 32 -22t35 -8q0 11 -4 21q7 -4 15 -6.5t16 -2.5h9q5 0 10 -1q6 -1 12 -1.5
t13 -0.5q16 0 26 5t10 23q0 8 -2.5 18t-9.5 17l-10 10q-4 8 -10 14t-17 6q-10 0 -16.5 -2.5t-14.5 -7.5h1q-8 -5 -18.5 -9t-24.5 -4q-2 0 -8.5 1t-11.5 3q5 18 18 35t28 36q23 27 43 57.5t20 68.5v11q0 7 -4 11l-14 13q-2 12 -17 14v5h-119q-3 0 -6.5 -1.5t-6.5 -3.5
q-8 0 -9 -3t-1 -15l2 -5h1q2 -4 11 -7l10 -10zM19 657h4l17 -17q13 0 22 3h-1l8 1q1 -5 1 -15v-51q-1 -13 -2 -22t-1.5 -21t-2 -30.5t-4.5 -51.5l-16 -11q0 -8 4.5 -14t9.5 -8v-1h1l1 -0.5t2 -0.5l11 -11q6 -6 11 -6q9 -4 21 -7h1q8 -2 15 -4t9 -3l3 -1q19 0 22 8t3 13
q0 8 -6 14l-12 11q-1 7 -10 14q5 16 11 35t11 35q3 9 4.5 16t3.5 13v8q1 5 1.5 12.5t0.5 15.5v22q0 2 -0.5 6t-0.5 7q-1 3 -1 8v20q-5 7 -9 13t-10 12h-1v1h1q-9 15 -22 27t-44 15h-6q-11 0 -22 -4.5t-19.5 -11.5t-14 -14.5t-5.5 -13.5zM65 658l-4 4q3 -1 4 -4z" />
    <glyph glyph-name="FL00CDh" unicode="&#xbe;" horiz-adv-x="616" 
d="M71 662v8q10 5 20.5 10t22.5 5q5 0 10 -1t7 -9q1 -12 -4 -27.5t-13 -30.5t-17.5 -28.5t-16.5 -20.5v-5h70q4 0 7 -4t4.5 -9t2.5 -10t1 -7q0 -4 -2.5 -18t-7.5 -29t-12 -27t-17 -12q-8 0 -12.5 4.5t-9 9.5t-9.5 9.5t-12 4.5q0 -20 10 -39t30 -19q18 0 33 12t26.5 30
t17.5 38t6 36q0 29 -17 40t-42 11h-16h-8q-5 0 -8 -1q9 4 18.5 13t16.5 20t11.5 23t4.5 23q0 26 -20 43q-3 0 -12 0.5t-16 0.5h-7q-24 0 -46.5 -3.5t-43.5 -17.5q0 -2 -0.5 -6.5t-0.5 -6.5v-4q0 -3 5 -5.5t21 2.5l1 -0.5t2 -0.5zM380 173q-2 6 -5 6h-9q-5 0 -9 3t-7 16
q0 3 -0.5 8l-0.5 5h30q0 1 0.5 7t0.5 15v15q0 6 -2.5 19.5t-2.5 15.5t-4.5 5.5t-5.5 4.5v3v2q2 2 5 5.5t5 4.5q11 -8 16.5 -20t7.5 -25.5t1.5 -26.5t-0.5 -23l5 -5l90 -30v7q0 5 0.5 9.5t0.5 9.5v7q0 20 -5.5 36.5t-5.5 35.5q0 7 3.5 13.5t11.5 6.5q2 0 5 -16t6 -36
t5.5 -38.5t3.5 -24.5q3 -16 9 -22.5t12 -10t10.5 -5.5t4.5 -9q0 -1 -0.5 -2l-0.5 -1q0 -3 -5 -5l-20 10h-2h-3q-4 -38 -5 -71.5t-1 -71.5q-17 0 -28 16t-11 31q0 27 8 53t8 54q0 9 -12.5 13.5t-28.5 6.5t-31 2.5t-19 0.5l-25 -11v7zM180 88q0 -10 -9.5 -33.5t-23 -49
t-28 -47t-23 -28.5t-9 6t13.5 58q0 26 1.5 51.5t9.5 58t25 75.5t49 103t81.5 140.5t121.5 188.5q1 -1 9.5 16l19 38l19 38t9.5 16l0.5 -2t0.5 -3t-0.5 -3l-0.5 -2q1 -8 -2 -27t-8.5 -42.5t-13 -49t-15 -47t-15 -36t-13.5 -16.5zM102 -99q3 -3 9 -3q7 0 22.5 21t32 49.5
t29.5 56t14 41.5l197 400q9 9 21 38.5t22.5 64t18 67.5t7.5 48v3q1 4 1 7v3q0 2 -2 8l-15 15q0 2 -0.5 3t-1.5 5q-1 0 -2.5 0.5t-2.5 0.5q-8 0 -21.5 -18t-24.5 -41v1q-2 -4 -4 -8.5t-4 -8.5q-5 -8 -7.5 -15t-3.5 -10q-73 -110 -123.5 -192.5t-84 -144t-51.5 -106t-27 -77.5
t-10.5 -59t-1.5 -51q-8 -23 -11 -38.5t-3 -25.5q0 -18 13 -20zM368 147l5 2l18 -17l36 16q6 0 23.5 -0.5t33.5 -3.5q-1 -9 -3 -18.5t-4 -19.5q0 -1 -0.5 -2t-0.5 -2v1q-3 -14 -5.5 -27t-2.5 -29q0 -14 8.5 -28.5t24.5 -22.5l8 -8q17 -17 39 -17q0 39 1 72t4 68l17 -8
q12 4 14 13q1 2 1 5q0 9 -4 13l-14 13q-2 7 -6 10t-9 6q-1 0 -1.5 0.5t-1.5 0.5h1h-1v6q-2 8 -5 30q-2 12 -3.5 26t-3.5 27t-5 23t-7 14l-12 11q-6 14 -13 14q-15 0 -21 -10.5t-6 -21.5q0 -20 5 -38q0 -1 0.5 -2l0.5 -1q5 -18 5 -31v-7q0 -2 -0.5 -3t-0.5 -3v-3l-54 17v5
q0 18 -4 37.5t-20 35.5l-6 5q-5 7 -10 13.5t-13 12.5q-4 -2 -8.5 -4.5t-7.5 -6.5q-1 -1 -2 -2.5t-2 -2.5q0 -1 -3 -2v-22h5l6 -6q0 -4 1 -6l3 -21v-15q0 -7 -1 -10h-31q2 -14 2 -17v-11q3 -15 8 -20.5t12 -7.5l10 -9v-11zM106 593l1 -5q-2 -4 -5 -7t-5 -6h-24l11 -11l-1 -2
l4 -3l1 1l18 -18l2 2l1 -1v2q4 4 6 7h55q2 -6 3 -11.5t1 -7.5q0 -5 -3 -20t-9 -32t-15 -30t-21 -13q-9 0 -13 3q-1 4 -1 14l-17 17q-1 2 -0.5 4.5t0.5 5.5l-19 -19q9 0 11 -2.5t5 -4.5l2 -2q4 -14 12 -21l20 -20q7 -7 17 -7q16 0 29.5 11t23.5 27.5t15.5 35t5.5 33.5
q0 20 -10 30l-20 20q-6 6 -15 8.5t-20 3.5h-2h-3h-10q16 10 28 30t12 37q0 20 -14 34h3l-19 18l1 5l-8 2l-3 -4v-1q-5 0 -10 0.5t-9 0.5h-7h-2q-21 0 -40 -3t-36 -12h-1q0 2 0.5 2.5t0.5 1.5l-5 1l-6 -9l5 -3l1 1l1 -1v-1q-3 -1 -3 -6h3l20 -20v2v0q0 1 1 1q4 0 17 4l2 -1
l1 -1h1l11 -11l10 9l-6 6q11 6 23 11.5t25 5.5h6v-3q0 -17 -8.5 -37t-19.5 -38q-2 -1 -3 -2t-3 -1zM197 533q0 -14 -4 -25q1 2 1 5q0 1 -0.5 3t-0.5 5t0.5 6t0.5 6q0 9 -4 19q1 -1 4 -1q3 -8 3 -18zM155 676q2 -8 2 -12q-2 4 -3 5h-1q0 2 -0.5 3.5t-0.5 3.5h3zM126 426h-9
q-1 1 -1 4q2 -1 7 -1zM110 442l7 -7q-2 0 -3 1v1q-3 3 -4 5zM154 678l-7 7v0q0 1 -1 1l7 -7v-1h1zM114 438l2 -2h-2v1v1z" />
    <glyph glyph-name="FL00BFh" unicode="&#xbf;" horiz-adv-x="353" 
d="M258 529q0 -13 -5 -21t-16 -19q-14 5 -22 9.5t-14 8t-12 5.5t-15 2q0 11 3.5 22.5t10 21.5t15.5 16t21 6q20 0 27 -17t7 -34zM201 397q1 10 10 15t19 5q25 0 30 -15q11 -51 0 -88t-34.5 -66t-53.5 -51.5t-57 -43.5t-45.5 -43t-18.5 -50q0 -2 0.5 -5.5t0.5 -4.5
q3 4 14.5 15.5t15.5 14.5l1.5 0.5t3.5 0.5q1 0 3 -0.5l2 -0.5l50 -20q3 -1 15 -4.5t28.5 -7.5t35 -9t34.5 -9t26.5 -7l10.5 -3l0.5 -2t0.5 -3q0 -2 -0.5 -3.5l-0.5 -1.5q-2 -2 -10 -6t-10 -4h-215v30q-1 -3 -7 -10.5t-8 -9.5l-2 -0.5t-3 -0.5q-14 0 -15 13t-1 22
q0 44 16.5 77.5t40 61t50 51t46.5 48t29 52t-2 63.5zM189 393q6 -18 6 -32q0 -36 -23.5 -64.5t-53.5 -56.5q-19 -19 -38.5 -39t-35 -43.5t-25.5 -51.5t-10 -62v-8q0 -11 2.5 -22.5t15.5 -15.5l13 -12q6 -6 17 -6h2l9 -9h224q3 0 13.5 5.5t14.5 9.5q2 4 2 9v5q0 1 -2 7
l-15 15q-1 2 -1 3q0 2 -1 5l-8 2t-7 2q-14 4 -23.5 6.5t-29.5 7.5q-15 4 -30.5 8t-28.5 7.5t-22.5 6t-11.5 3.5v-1l-43 17q12 14 29 28t37 28q23 17 46 36t41.5 42t30 51t11.5 63q0 11 -1 23t-4 24q-3 8 -7 12l-11 10q-8 23 -41 23q-14 0 -27 -8t-14 -23v-5zM185 485
q15 0 21 -2t13 -6q5 -2 12.5 -6t27.5 -12q15 15 21.5 25t6.5 25q0 14 -3.5 27t-12.5 22l-8 7q-5 11 -14.5 19t-24.5 8t-26.5 -8.5t-19.5 -21.5t-12 -29t-4 -31h6z" />
    </font>
</defs>
</svg>
